<svg width="707" height="82" viewBox="0 0 707 82" fill="none" xmlns="http://www.w3.org/2000/svg">
<path d="M50.2298 50.7801H20.2598L14.1398 65.0001H0.00976562L29.4398 0.920107H40.7798L70.2098 65.0001H56.3498L50.2298 50.7801ZM45.6398 40.0701L35.2898 16.0401L24.9398 40.0701H45.6398Z" fill="white" fill-opacity="0.3"/>
<path d="M117.249 31.8801C120.969 32.9601 123.849 34.8501 125.889 37.5501C127.929 40.2501 128.949 43.5501 128.949 47.4501C128.949 52.8501 126.939 57.1401 122.919 60.3201C118.899 63.4401 113.439 65.0001 106.539 65.0001H76.1185V0.920107H105.639C112.299 0.920107 117.549 2.42011 121.389 5.4201C125.289 8.3601 127.239 12.4101 127.239 17.5701C127.239 20.9301 126.339 23.8701 124.539 26.3901C122.799 28.9101 120.369 30.7401 117.249 31.8801ZM89.7985 27.0201H103.299C106.899 27.0201 109.569 26.4201 111.309 25.2201C113.109 23.9601 114.009 22.0401 114.009 19.4601C114.009 16.8201 113.109 14.8701 111.309 13.6101C109.569 12.3501 106.899 11.7201 103.299 11.7201H89.7985V27.0201ZM104.919 54.2001C108.699 54.2001 111.429 53.5701 113.109 52.3101C114.849 50.9901 115.719 48.9201 115.719 46.1001C115.719 43.2201 114.849 41.1201 113.109 39.8001C111.429 38.4801 108.699 37.8201 104.919 37.8201H89.7985V54.2001H104.919Z" fill="white" fill-opacity="0.3"/>
<path d="M168.652 65.8101C162.292 65.8101 156.742 64.4901 152.002 61.8501C147.322 59.1501 143.692 55.3101 141.112 50.3301C138.592 45.3501 137.332 39.5301 137.332 32.8701C137.332 26.2101 138.592 20.4201 141.112 15.5001C143.692 10.5801 147.322 6.80011 152.002 4.1601C156.742 1.46011 162.292 0.110107 168.652 0.110107C175.012 0.110107 180.532 1.46011 185.212 4.1601C189.892 6.80011 193.492 10.5801 196.012 15.5001C198.532 20.4201 199.792 26.2101 199.792 32.8701C199.792 39.5301 198.532 45.3501 196.012 50.3301C193.492 55.3101 189.892 59.1501 185.212 61.8501C180.532 64.4901 175.012 65.8101 168.652 65.8101ZM168.652 54.8301C174.052 54.8301 178.252 52.9401 181.252 49.1601C184.312 45.3801 185.842 39.9501 185.842 32.8701C185.842 25.7901 184.312 20.3901 181.252 16.6701C178.252 12.9501 174.052 11.0901 168.652 11.0901C163.252 11.0901 159.022 12.9501 155.962 16.6701C152.962 20.3901 151.462 25.7901 151.462 32.8701C151.462 40.0101 152.962 45.4701 155.962 49.2501C159.022 52.9701 163.252 54.8301 168.652 54.8301Z" fill="white" fill-opacity="0.3"/>
<path d="M238.383 65.8101C229.383 65.8101 222.543 63.5001 217.863 58.8801C213.183 54.2601 210.843 47.4801 210.843 38.5401V0.920107H224.613V39.1701C224.613 44.2701 225.783 48.1701 228.123 50.8701C230.523 53.5101 233.943 54.8301 238.383 54.8301C242.823 54.8301 246.213 53.5101 248.553 50.8701C250.893 48.1701 252.063 44.2701 252.063 39.1701V0.920107H265.923V38.5401C265.923 47.4201 263.553 54.2001 258.813 58.8801C254.133 63.5001 247.323 65.8101 238.383 65.8101Z" fill="white" fill-opacity="0.3"/>
<path d="M293.549 12.3501H273.479V0.920107H327.839V12.3501H307.769V65.0001H293.549V12.3501Z" fill="white" fill-opacity="0.3"/>
<path d="M415.581 65.0001H400.731L392.541 43.6701C391.881 41.9901 390.861 40.8201 389.481 40.1601C388.161 39.5001 386.481 39.1701 384.441 39.1701H375.351V65.0001H361.491V0.920107H390.021C397.461 0.920107 403.101 2.54011 406.941 5.7801C410.781 9.02011 412.701 13.6701 412.701 19.7301C412.701 23.9901 411.561 27.6501 409.281 30.7101C407.061 33.7701 403.851 35.9601 399.651 37.2801C403.431 38.0601 406.161 40.6701 407.841 45.1101L415.581 65.0001ZM387.951 28.4601C391.971 28.4601 394.911 27.8001 396.771 26.4801C398.631 25.1001 399.561 22.9701 399.561 20.0901C399.561 17.2101 398.631 15.1101 396.771 13.7901C394.911 12.4101 391.971 11.7201 387.951 11.7201H375.171V28.4601H387.951Z" fill="white" fill-opacity="0.3"/>
<path d="M452.829 65.8101C443.829 65.8101 436.989 63.5001 432.309 58.8801C427.629 54.2601 425.289 47.4801 425.289 38.5401V0.920107H439.059V39.1701C439.059 44.2701 440.229 48.1701 442.569 50.8701C444.969 53.5101 448.389 54.8301 452.829 54.8301C457.269 54.8301 460.659 53.5101 462.999 50.8701C465.339 48.1701 466.509 44.2701 466.509 39.1701V0.920107H480.369V38.5401C480.369 47.4201 477.999 54.2001 473.259 58.8801C468.579 63.5001 461.769 65.8101 452.829 65.8101Z" fill="white" fill-opacity="0.3"/>
<path d="M493.236 0.920107H507.276V65.0001H493.236V0.920107Z" fill="white" fill-opacity="0.3"/>
<path d="M514.178 69.7701C516.698 70.1301 518.828 70.3101 520.568 70.3101C523.448 70.3101 525.398 69.6501 526.418 68.3301C527.438 67.0701 527.948 64.7601 527.948 61.4001V0.920107H541.988V61.2201C541.988 68.3601 540.578 73.5801 537.758 76.8801C534.938 80.2401 530.138 81.9201 523.358 81.9201C520.658 81.9201 517.598 81.6501 514.178 81.1101V69.7701Z" fill="white" fill-opacity="0.3"/>
<path d="M555.283 0.920107H569.323V65.0001H555.283V0.920107Z" fill="white" fill-opacity="0.3"/>
<path d="M625.455 50.7801H595.485L589.365 65.0001H575.235L604.665 0.920107H616.005L645.435 65.0001H631.575L625.455 50.7801ZM620.865 40.0701L610.515 16.0401L600.165 40.0701H620.865Z" fill="white" fill-opacity="0.3"/>
<path d="M706.874 0.920107V65.0001H696.434L664.484 24.1401V65.0001H651.344V0.920107H661.694L693.644 41.6901V0.920107H706.874Z" fill="white" fill-opacity="0.3"/>
</svg>
