<svg width="731" height="82" viewBox="0 0 731 82" fill="none" xmlns="http://www.w3.org/2000/svg">
<path d="M54.48 65H39.63L31.44 43.67C30.78 41.99 29.76 40.82 28.38 40.16C27.06 39.5 25.38 39.17 23.34 39.17H14.25V65H0.39V0.919999H28.92C36.36 0.919999 42 2.54 45.84 5.78C49.68 9.02 51.6 13.67 51.6 19.73C51.6 23.99 50.46 27.65 48.18 30.71C45.96 33.77 42.75 35.96 38.55 37.28C42.33 38.06 45.06 40.67 46.74 45.11L54.48 65ZM26.85 28.46C30.87 28.46 33.81 27.8 35.67 26.48C37.53 25.1 38.46 22.97 38.46 20.09C38.46 17.21 37.53 15.11 35.67 13.79C33.81 12.41 30.87 11.72 26.85 11.72H14.07V28.46H26.85ZM91.7285 65.81C82.7285 65.81 75.8885 63.5 71.2085 58.88C66.5285 54.26 64.1885 47.48 64.1885 38.54V0.919999H77.9585V39.17C77.9585 44.27 79.1285 48.17 81.4685 50.87C83.8685 53.51 87.2885 54.83 91.7285 54.83C96.1685 54.83 99.5585 53.51 101.898 50.87C104.238 48.17 105.408 44.27 105.408 39.17V0.919999H119.268V38.54C119.268 47.42 116.898 54.2 112.158 58.88C107.478 63.5 100.668 65.81 91.7285 65.81ZM132.135 0.919999H146.175V65H132.135V0.919999ZM153.077 69.77C155.597 70.13 157.727 70.31 159.467 70.31C162.347 70.31 164.297 69.65 165.317 68.33C166.337 67.07 166.847 64.76 166.847 61.4V0.919999H180.887V61.22C180.887 68.36 179.477 73.58 176.657 76.88C173.837 80.24 169.037 81.92 162.257 81.92C159.557 81.92 156.497 81.65 153.077 81.11V69.77ZM194.182 0.919999H208.222V65H194.182V0.919999ZM264.354 50.78H234.384L228.264 65H214.134L243.564 0.919999H254.904L284.334 65H270.474L264.354 50.78ZM259.764 40.07L249.414 16.04L239.064 40.07H259.764ZM345.773 0.919999V65H335.333L303.383 24.14V65H290.243V0.919999H300.593L332.543 41.69V0.919999H345.773ZM478.05 0.919999L455.28 65H444.03L429.09 22.61L414.06 65H402.81L380.04 0.919999H394.35L409.11 45.2L424.59 0.919999H434.4L449.52 45.83L464.64 0.919999H478.05ZM514.258 65.81C507.898 65.81 502.348 64.49 497.608 61.85C492.928 59.15 489.298 55.31 486.718 50.33C484.198 45.35 482.938 39.53 482.938 32.87C482.938 26.21 484.198 20.42 486.718 15.5C489.298 10.58 492.928 6.8 497.608 4.15999C502.348 1.46 507.898 0.109999 514.258 0.109999C520.618 0.109999 526.138 1.46 530.818 4.15999C535.498 6.8 539.098 10.58 541.618 15.5C544.138 20.42 545.398 26.21 545.398 32.87C545.398 39.53 544.138 45.35 541.618 50.33C539.098 55.31 535.498 59.15 530.818 61.85C526.138 64.49 520.618 65.81 514.258 65.81ZM514.258 54.83C519.658 54.83 523.858 52.94 526.858 49.16C529.918 45.38 531.448 39.95 531.448 32.87C531.448 25.79 529.918 20.39 526.858 16.67C523.858 12.95 519.658 11.09 514.258 11.09C508.858 11.09 504.628 12.95 501.568 16.67C498.568 20.39 497.068 25.79 497.068 32.87C497.068 40.01 498.568 45.47 501.568 49.25C504.628 52.97 508.858 54.83 514.258 54.83ZM610.899 65H596.049L587.859 43.67C587.199 41.99 586.179 40.82 584.799 40.16C583.479 39.5 581.799 39.17 579.759 39.17H570.669V65H556.809V0.919999H585.339C592.779 0.919999 598.419 2.54 602.259 5.78C606.099 9.02 608.019 13.67 608.019 19.73C608.019 23.99 606.879 27.65 604.599 30.71C602.379 33.77 599.169 35.96 594.969 37.28C598.749 38.06 601.479 40.67 603.159 45.11L610.899 65ZM583.269 28.46C587.289 28.46 590.229 27.8 592.089 26.48C593.949 25.1 594.879 22.97 594.879 20.09C594.879 17.21 593.949 15.11 592.089 13.79C590.229 12.41 587.289 11.72 583.269 11.72H570.489V28.46H583.269ZM662.907 65L635.007 35.39V65H620.967V0.919999H635.007V29.09L661.917 0.919999H678.657L648.867 31.52L679.827 65H662.907ZM704.02 65.81C699.16 65.81 694.48 65.18 689.98 63.92C685.54 62.6 681.85 60.77 678.91 58.43L683.41 48.35C689.59 52.67 696.49 54.83 704.11 54.83C708.19 54.83 711.31 54.2 713.47 52.94C715.69 51.62 716.8 49.79 716.8 47.45C716.8 45.41 715.78 43.82 713.74 42.68C711.76 41.48 708.25 40.34 703.21 39.26C697.57 38.12 693.07 36.74 689.71 35.12C686.41 33.44 683.98 31.43 682.42 29.09C680.92 26.69 680.17 23.72 680.17 20.18C680.17 16.34 681.22 12.89 683.32 9.83C685.48 6.77 688.48 4.4 692.32 2.72C696.16 0.979998 700.6 0.109999 705.64 0.109999C710.2 0.109999 714.58 0.769997 718.78 2.08999C722.98 3.41 726.34 5.21 728.86 7.48999L724.36 17.57C718.72 13.25 712.51 11.09 705.73 11.09C702.13 11.09 699.25 11.81 697.09 13.25C694.93 14.69 693.85 16.64 693.85 19.1C693.85 20.54 694.24 21.74 695.02 22.7C695.86 23.66 697.24 24.53 699.16 25.31C701.08 26.03 703.81 26.75 707.35 27.47C715.57 29.27 721.48 31.61 725.08 34.49C728.74 37.37 730.57 41.3 730.57 46.28C730.57 52.28 728.23 57.05 723.55 60.59C718.87 64.07 712.36 65.81 704.02 65.81Z" fill="white" fill-opacity="0.3"/>
</svg>
