<svg width="581" height="66" viewBox="0 0 581 66" fill="none" xmlns="http://www.w3.org/2000/svg">
<path d="M32.45 65.8101C25.97 65.8101 20.3 64.4601 15.44 61.7601C10.64 59.0001 6.95 55.1601 4.37 50.2401C1.79 45.2601 0.5 39.4701 0.5 32.8701C0.5 26.3301 1.79 20.6001 4.37 15.6801C6.95 10.7001 10.64 6.8601 15.44 4.1601C20.3 1.46011 25.97 0.110107 32.45 0.110107C36.71 0.110107 40.76 0.770106 44.6 2.0901C48.5 3.3501 51.68 5.15011 54.14 7.4901L49.73 17.5701C46.85 15.4101 44.03 13.8501 41.27 12.8901C38.57 11.8701 35.72 11.3601 32.72 11.3601C26.96 11.3601 22.55 13.1901 19.49 16.8501C16.43 20.5101 14.9 25.8501 14.9 32.8701C14.9 39.9501 16.43 45.3501 19.49 49.0701C22.55 52.7301 26.96 54.5601 32.72 54.5601C35.72 54.5601 38.57 54.0801 41.27 53.1201C44.03 52.1001 46.85 50.5101 49.73 48.3501L54.14 58.4301C51.68 60.7701 48.5 62.6001 44.6 63.9201C40.76 65.1801 36.71 65.8101 32.45 65.8101Z" fill="white" fill-opacity="0.3"/>
<path d="M92.5507 65.8101C86.1907 65.8101 80.6407 64.4901 75.9007 61.8501C71.2207 59.1501 67.5907 55.3101 65.0107 50.3301C62.4907 45.3501 61.2307 39.5301 61.2307 32.8701C61.2307 26.2101 62.4907 20.4201 65.0107 15.5001C67.5907 10.5801 71.2207 6.80011 75.9007 4.1601C80.6407 1.46011 86.1907 0.110107 92.5507 0.110107C98.9107 0.110107 104.431 1.46011 109.111 4.1601C113.791 6.80011 117.391 10.5801 119.911 15.5001C122.431 20.4201 123.691 26.2101 123.691 32.8701C123.691 39.5301 122.431 45.3501 119.911 50.3301C117.391 55.3101 113.791 59.1501 109.111 61.8501C104.431 64.4901 98.9107 65.8101 92.5507 65.8101ZM92.5507 54.8301C97.9507 54.8301 102.151 52.9401 105.151 49.1601C108.211 45.3801 109.741 39.9501 109.741 32.8701C109.741 25.7901 108.211 20.3901 105.151 16.6701C102.151 12.9501 97.9507 11.0901 92.5507 11.0901C87.1507 11.0901 82.9207 12.9501 79.8607 16.6701C76.8607 20.3901 75.3607 25.7901 75.3607 32.8701C75.3607 40.0101 76.8607 45.4701 79.8607 49.2501C82.9207 52.9701 87.1507 54.8301 92.5507 54.8301Z" fill="white" fill-opacity="0.3"/>
<path d="M190.631 0.920107V65.0001H180.191L148.241 24.1401V65.0001H135.101V0.920107H145.451L177.401 41.6901V0.920107H190.631Z" fill="white" fill-opacity="0.3"/>
<path d="M218.678 12.3501H198.608V0.920107H252.968V12.3501H232.898V65.0001H218.678V12.3501Z" fill="white" fill-opacity="0.3"/>
<path d="M295.624 50.7801H265.654L259.534 65.0001H245.404L274.834 0.920107H286.174L315.604 65.0001H301.744L295.624 50.7801ZM291.034 40.0701L280.684 16.0401L270.334 40.0701H291.034Z" fill="white" fill-opacity="0.3"/>
<path d="M349.815 65.8101C343.335 65.8101 337.665 64.4601 332.805 61.7601C328.005 59.0001 324.315 55.1601 321.735 50.2401C319.155 45.2601 317.865 39.4701 317.865 32.8701C317.865 26.3301 319.155 20.6001 321.735 15.6801C324.315 10.7001 328.005 6.8601 332.805 4.1601C337.665 1.46011 343.335 0.110107 349.815 0.110107C354.075 0.110107 358.125 0.770106 361.965 2.0901C365.865 3.3501 369.045 5.15011 371.505 7.4901L367.095 17.5701C364.215 15.4101 361.395 13.8501 358.635 12.8901C355.935 11.8701 353.085 11.3601 350.085 11.3601C344.325 11.3601 339.915 13.1901 336.855 16.8501C333.795 20.5101 332.265 25.8501 332.265 32.8701C332.265 39.9501 333.795 45.3501 336.855 49.0701C339.915 52.7301 344.325 54.5601 350.085 54.5601C353.085 54.5601 355.935 54.0801 358.635 53.1201C361.395 52.1001 364.215 50.5101 367.095 48.3501L371.505 58.4301C369.045 60.7701 365.865 62.6001 361.965 63.9201C358.125 65.1801 354.075 65.8101 349.815 65.8101Z" fill="white" fill-opacity="0.3"/>
<path d="M395.685 12.3501H375.615V0.920107H429.975V12.3501H409.905V65.0001H395.685V12.3501Z" fill="white" fill-opacity="0.3"/>
<path d="M490.807 65.8101C481.807 65.8101 474.967 63.5001 470.287 58.8801C465.607 54.2601 463.267 47.4801 463.267 38.5401V0.920107H477.037V39.1701C477.037 44.2701 478.207 48.1701 480.547 50.8701C482.947 53.5101 486.367 54.8301 490.807 54.8301C495.247 54.8301 498.637 53.5101 500.977 50.8701C503.317 48.1701 504.487 44.2701 504.487 39.1701V0.920107H518.347V38.5401C518.347 47.4201 515.977 54.2001 511.237 58.8801C506.557 63.5001 499.747 65.8101 490.807 65.8101Z" fill="white" fill-opacity="0.3"/>
<path d="M553.623 65.8101C548.763 65.8101 544.083 65.1801 539.583 63.9201C535.143 62.6001 531.453 60.7701 528.513 58.4301L533.013 48.3501C539.193 52.6701 546.093 54.8301 553.713 54.8301C557.793 54.8301 560.913 54.2001 563.073 52.9401C565.293 51.6201 566.403 49.7901 566.403 47.4501C566.403 45.4101 565.383 43.8201 563.343 42.6801C561.363 41.4801 557.853 40.3401 552.813 39.2601C547.173 38.1201 542.673 36.7401 539.313 35.1201C536.013 33.4401 533.583 31.4301 532.023 29.0901C530.523 26.6901 529.773 23.7201 529.773 20.1801C529.773 16.3401 530.823 12.8901 532.923 9.83011C535.083 6.77011 538.083 4.40011 541.923 2.72011C545.763 0.980107 550.203 0.110107 555.243 0.110107C559.803 0.110107 564.183 0.770106 568.383 2.0901C572.583 3.4101 575.943 5.2101 578.463 7.4901L573.963 17.5701C568.323 13.2501 562.113 11.0901 555.333 11.0901C551.733 11.0901 548.853 11.8101 546.693 13.2501C544.533 14.6901 543.453 16.6401 543.453 19.1001C543.453 20.5401 543.843 21.7401 544.623 22.7001C545.463 23.6601 546.843 24.5301 548.763 25.3101C550.683 26.0301 553.413 26.7501 556.953 27.4701C565.173 29.2701 571.083 31.6101 574.683 34.4901C578.343 37.3701 580.173 41.3001 580.173 46.2801C580.173 52.2801 577.833 57.0501 573.153 60.5901C568.473 64.0701 561.963 65.8101 553.623 65.8101Z" fill="white" fill-opacity="0.3"/>
</svg>
