<svg width="431" height="43" viewBox="0 0 431 43" fill="none" xmlns="http://www.w3.org/2000/svg">
<g clip-path="url(#clip0)">
<path d="M77.2969 6.23983H71.8475L70.0737 0.657894H75.3522L77.2969 6.23983ZM77.2969 14.1352L75.6942 26.1056H70.2019L72.0184 14.1352H77.2969ZM77.532 13.0315H72.0612L70.5225 7.06757H75.801L77.532 13.0315ZM83.8791 11.0577V9.2961H90.0124V11.0789H96.2739V13.9442H94.4361L96.3167 25.9782H91.6793L90.0765 13.9442H89.7559V26.148H84.1783V13.9229H83.7936L81.7634 25.957H76.9978L79.434 13.9229H77.7885V11.0577H83.8791ZM77.8098 0.572998H96.0389V4.60557H90.4612V3.43825H83.3662V4.6268H77.8098V0.572998ZM85.204 5.26352L83.644 9.25365H77.8953L79.5409 5.26352H85.204ZM89.0507 5.26352H94.7353L96.1244 9.25365H90.3543L89.0507 5.26352Z" fill="#0068B7"/>
<path d="M105.549 3.43835H107.28V0.594323H112.088V26.1481H97.7485V23.2404H99.6078V6.3036H97.7485V3.43835H99.6078V0.0637207H105.549V3.43835ZM105.549 6.3036V23.2404H107.28V6.3036H105.549ZM113.093 26.1057V0.657995H117.73V26.1057H113.093ZM118.692 26.1481V0.594323H123.521V26.1481H118.692Z" fill="#0068B7"/>
<path d="M135.596 9.4235H132.411V25.575H126.299V6.55824H135.596V4.56318H125.552V1.71915H134.997L134.591 0H141.515L141.943 1.71915H152.008V4.56318H141.921V6.55824H151.324V25.575H145.191V9.4235H141.921V26.4452H135.617V9.4235H135.596Z" fill="#0068B7"/>
<path d="M166.198 12.9679L166.626 11.079H162.693V8.42596H179.79V11.079H172.46L172.054 12.9679H179.384V26.0632H175.323V15.6209H174.447V26.0632H171.477V15.6209H170.707V26.0632H167.737V15.6209H166.903V26.0632H153.312V23.1979H155.406V12.9679H153.547V10.1027H155.406V3.56565H153.312V0.700395H162.351V3.54442H160.407V10.0814H162.223V12.9467H160.407V23.1767H162.822V12.9679H166.198ZM168.741 4.69052V0H173.571V4.69052H174.682V0.615498H179.32V7.36476H162.928V0.615498H167.566V4.69052H168.741Z" fill="#0068B7"/>
<path d="M206.503 5.11504H207.529V7.76805H206.503V12.119H199.258V13.6047H206.738V16.0454H199.258V17.9981H206.973V20.6511H199.258V23.2192H207.507V26.0844H183.914V26.0632H181.264L183.679 12.2676H181.563V9.95413L183.679 3.45956H181.243V0.615531H188.744V2.9714L186.607 9.38108H189L188.359 13.6047H193.552V12.119H189.342V9.65699H193.552V7.74682H189.129V5.11504H193.531V3.5869H189.535V1.14613H193.531V0.0424805H199.28V1.14613H206.524V5.11504H206.503ZM193.531 23.2192V20.6511H187.248L186.863 23.2192H193.531ZM193.531 17.9981V16.0667H187.975L187.675 18.0193H193.531V17.9981ZM201.694 5.11504V3.5869H199.28V5.11504H201.694ZM201.694 7.76805H199.28V9.67822H201.694V7.76805Z" fill="#0068B7"/>
<path d="M234.327 5.11504H235.353V7.76805H234.327V12.119H227.083V13.6047H234.562V16.0454H227.083V17.9981H234.797V20.6511H227.083V23.2192H235.332V26.0844H211.739V26.0632H209.089L211.504 12.2676H209.388V9.95413L211.504 3.45956H209.067V0.615531H216.568V2.9714L214.431 9.38108H216.825L216.184 13.6047H221.377V12.119H217.167V9.65699H221.377V7.74682H216.974V5.11504H221.377V3.5869H217.38V1.14613H221.377V0.0424805H227.125V1.14613H234.37V5.11504H234.327ZM221.334 23.2192V20.6511H215.051L214.666 23.2192H221.334ZM221.334 17.9981V16.0667H215.778L215.479 18.0193H221.334V17.9981ZM229.498 5.11504V3.5869H227.083V5.11504H229.498ZM229.498 7.76805H227.083V9.67822H229.498V7.76805Z" fill="#0068B7"/>
<path d="M254.694 19.42L252.364 26.1481H239.093V8.6382H237.084V5.77295H245.013V23.2828H247.684L249.201 19.0168L247.363 15.3238H252.984L254.694 18.7196L256.766 14.6658H246.872V12.0128H262.665V14.6022L260.506 19.0168L263.199 26.1481H257.258L254.694 19.42ZM245.333 4.11747H239.349L238.089 0H244.094L245.333 4.11747ZM252.984 11.1214H247.235V0.615498H261.746V8.23495H263.049V11.1002H255.997V3.45953H252.963V11.1214H252.984Z" fill="#0068B7"/>
<path d="M274.76 14.5597H266.105V5.9003L265.122 6.53702V2.16486L268.584 0H272.046V1.1461H276.406L276.171 0H282.411L282.753 1.1461H290.596V3.60809H282.753V4.71175H290.233V6.9615H282.753V8.36229H290.233V10.612H282.753V12.0977H290.468V14.5385H281.043V15.9393H290.745V18.5923H287.07L291.066 26.0632H284.719L281.172 18.5923H281.022V26.1693H274.718V18.5923H274.525L271.106 26.0632H264.652L268.67 18.5923H264.844V15.9393H274.718V14.5597H274.76ZM276.833 4.69052V3.58687H272.046V4.69052H276.833ZM276.833 8.34107V6.91905H272.046V8.31984H276.833V8.34107ZM276.833 12.0977V10.5696H272.046V12.0977H276.833Z" fill="#0068B7"/>
<path d="M318.207 0.679199V26.1481H293.374V0.679199H318.207ZM312.65 3.52323H298.952V23.2829H312.65V3.52323ZM305.748 8.48966L303.952 22.1155H299.422L301.431 8.48966H299.272V5.85788H306.303V4.1175H311.496V5.85788H312.436V8.48966H311.496V22.4127H306.303V8.48966H305.748Z" fill="#0068B7"/>
<path d="M339.342 20.6086H329.426V26.1481H322.929V7.17374H321.583L323.058 4.20237H320.493V1.35834H324.468L325.131 0H331.67L331.029 1.35834H346.565V4.22359H329.661L328.422 6.8766H345.817V26.1269H339.321V20.6086H339.342ZM339.342 12.2675V9.72063H329.426V12.2675H339.342ZM339.342 14.8993H329.426V17.9556H339.342V14.8993Z" fill="#0068B7"/>
<path d="M358.96 0.594238V3.50194L357.656 10.3785H359.024L357.72 25.4052H353.959L355.049 12.883H354.066V11.1638L355.37 3.67173H353.66V26.148H348.83V0.594238H358.96ZM359.494 0.594238H374.026V13.7956H364.88V20.8208L369.047 15.1115H374.304L372.039 17.9343L374.56 26.1268H369.816L368.619 22.2216L365.499 26.1268H359.473V0.594238H359.494ZM364.88 3.45949V5.60312H368.833V3.45949H364.88ZM364.88 10.9516H368.833V8.25613H364.88V10.9516Z" fill="#0068B7"/>
<path d="M375.971 10.9728L381.399 0.551758H387.318L381.997 10.9728H375.971ZM395.055 22.5399L392.084 15.0266H397.811L402.171 25.5962H396.273H377.488V23.5587L385.224 8.04386H391.999L385.075 22.5187H395.055V22.5399ZM402.385 10.9728H396.294L391.635 0.551758H397.405L402.385 10.9728Z" fill="#0068B7"/>
<path d="M423.435 5.58191V3.43828H404.437V0.615479H429.547V26.0844H423.435V8.23493H404.65V5.58191H423.435ZM404.885 10.6545H421.832V26.0419H404.885V10.6545ZM410.826 13.3075V23.4101H415.891V13.3075H410.826Z" fill="#0068B7"/>
<path d="M75.5233 40.347V35.7201H69.3044V30.499H78.5792V33.1096H75.8011V31.7725H72.3818V34.5104H78.5792V41.578H69.3044V37.036H72.0826V40.347H75.5233Z" fill="#0068B7"/>
<path d="M83.2379 34.1708V41.5568H80.2888V30.4778H83.2379V32.8337H88.2173V41.5568H85.3536V34.1708H83.2379Z" fill="#0068B7"/>
<path d="M92.7692 38.0549V40.241H97.7485V41.5781H89.8201V32.855H91.7648H97.7485V38.0549H92.7692ZM92.7692 36.8239H94.8635V34.0648H92.7692V36.8239Z" fill="#0068B7"/>
<path d="M102.151 34.1709V41.5568H99.1804V32.8337H102.151V33.5978L102.6 32.8337H107.13V41.5568H104.16V34.1709H102.151Z" fill="#0068B7"/>
<path d="M108.434 41.5781V40.4108L113.178 34.1921H108.455V32.855H116.341V34.3831L111.917 40.241H116.362V41.5781H108.434Z" fill="#0068B7"/>
<path d="M121.043 34.1708V41.5568H118.072V30.4778H121.043V32.8337H126V41.5568H123.137V34.1708H121.043Z" fill="#0068B7"/>
<path d="M130.574 38.0549V40.241H135.531V41.5781H127.603V32.855H129.548H135.531V38.0549H130.574ZM130.574 36.8239H132.668V34.0648H130.574V36.8239Z" fill="#0068B7"/>
<path d="M139.955 34.1709V41.5568H136.985V32.8337H139.955V33.5978L140.404 32.8337H144.913V41.5568H141.943V34.1709H139.955Z" fill="#0068B7"/>
<path d="M150.106 30.499H159.381V36.3144H157.671L159.445 41.5568H156.603L154.936 36.3144H153.184V41.5568H150.128V30.499H150.106ZM153.162 31.8361V34.9985H156.411V31.8361H153.162Z" fill="#0068B7"/>
<path d="M163.933 40.241H165.942V32.855H168.912V41.5781H160.984V32.855H163.954V40.241H163.933Z" fill="#0068B7"/>
<path d="M170.387 30.4565H173.443V32.3455H170.387V30.4565ZM170.387 32.8549H173.443V41.578H170.387V32.8549Z" fill="#0068B7"/>
<path d="M175.858 32.8549H178.914V42.5118H174.618V41.1747H175.858V32.8549ZM175.858 30.4778H178.914V32.3667H175.858V30.4778Z" fill="#0068B7"/>
<path d="M180.324 30.4565H183.38V32.3455H180.324V30.4565ZM180.324 32.8549H183.38V41.578H180.324V32.8549Z" fill="#0068B7"/>
<path d="M192.89 41.5569H184.961V35.7839H189.941V34.1921H184.961V32.855H192.89V41.5569ZM189.941 37.0149H187.825V40.3259H189.941V37.0149Z" fill="#0068B7"/>
<path d="M197.485 34.1709V41.5568H194.514V32.8337H197.485V33.5978L197.933 32.8337H202.464V41.5568H199.493V34.1709H197.485Z" fill="#0068B7"/>
<path d="M210.777 40.1135H216.91V41.5568H207.635V30.4778H216.91V31.921H210.777V40.1135Z" fill="#0068B7"/>
<path d="M218.47 41.5568V32.8337H226.42V41.5568H218.47ZM221.441 40.2409H223.45V34.1709H221.441V40.2409Z" fill="#0068B7"/>
<path d="M231.058 34.1709V41.5568H228.087V32.8337H231.058V33.5978L231.506 32.8337H236.016V41.5568H233.045V34.1709H231.058Z" fill="#0068B7"/>
<path d="M242.341 37.4818H237.341V32.855H245.29V34.086H240.311V36.2508H245.312V41.5781H237.362V40.3259H242.341V37.4818Z" fill="#0068B7"/>
<path d="M250.954 34.1921V40.2409H254.458V41.578H247.898V34.1921H246.551V32.8549H247.898V31.8362H250.954V32.8549H254.48V34.1921H250.954Z" fill="#0068B7"/>
<path d="M259.288 33.4705L259.716 32.8762H262.237V34.2133H259.288V41.5781H256.232V32.8762H259.288V33.4705Z" fill="#0068B7"/>
<path d="M266.618 40.241H268.606V32.855H271.576V41.5781H263.648V32.855H266.618V40.241Z" fill="#0068B7"/>
<path d="M281.214 32.8337V34.1709H276.342V40.2409H281.214V41.5781H273.286V32.855H281.214V32.8337Z" fill="#0068B7"/>
<path d="M287.176 34.1921V40.2409H290.681V41.578H284.12V34.1921H282.774V32.8549H284.12V31.8362H287.176V32.8549H290.703V34.1921H287.176Z" fill="#0068B7"/>
<path d="M292.327 30.4565H295.383V32.3455H292.327V30.4565ZM292.327 32.8549H295.383V41.578H292.327V32.8549Z" fill="#0068B7"/>
<path d="M296.943 41.5568V32.8337H304.893V41.5568H296.943ZM299.913 40.2409H301.922V34.1709H299.913V40.2409Z" fill="#0068B7"/>
<path d="M309.53 34.1709V41.5568H306.56V32.8337H309.53V33.5978L309.979 32.8337H314.488V41.5568H311.518V34.1709H309.53Z" fill="#0068B7"/>
<path d="M328.956 41.5567H319.681V30.4565H328.956V31.7937H322.737V40.2408H325.921V35.8262H323.336V34.4891H328.977V41.5567H328.956Z" fill="#0068B7"/>
<path d="M333.465 33.4705L333.893 32.8762H336.414V34.2133H333.465V41.5781H330.409V32.8762H333.465V33.4705Z" fill="#0068B7"/>
<path d="M337.846 41.5568V32.8337H345.796V41.5568H337.846ZM340.816 40.2409H342.825V34.1709H340.816V40.2409Z" fill="#0068B7"/>
<path d="M350.412 40.241H352.399V32.855H355.37V41.5781H347.441V32.855H350.412V40.241Z" fill="#0068B7"/>
<path d="M360.029 38.0549V42.5544H357.058V32.855H364.987V38.0549H360.029ZM360.029 34.086V36.8451H362.123V34.086H360.029Z" fill="#0068B7"/>
<path d="M373.214 40.1135H379.348V41.5568H370.073V30.4778H379.348V31.921H373.214V40.1135Z" fill="#0068B7"/>
<path d="M380.907 41.5568V32.8337H388.857V41.5568H380.907ZM383.878 40.2409H385.887V34.1709H383.878V40.2409Z" fill="#0068B7"/>
<path d="M392.918 41.0262H390.417V38.2458H392.918V41.0262Z" fill="#0068B7"/>
<path d="M396.807 40.8563L396.102 42.9999H394.478L395.097 41.0261H394.328V38.4155H396.828V40.8563H396.807Z" fill="#0068B7"/>
<path d="M401.68 30.4778V40.1135H407.813V41.5568H398.538V30.4778H401.68Z" fill="#0068B7"/>
<path d="M413.626 34.1921V40.2409H417.131V41.578H410.57V34.1921H409.202V32.8549H410.57V31.8362H413.626V32.8549H417.152V34.1921H413.626Z" fill="#0068B7"/>
<path d="M426.918 41.578H418.968V32.8549H423.948V30.499H426.918V41.578ZM423.948 34.1708H421.917V40.2409H423.948V34.1708Z" fill="#0068B7"/>
<path d="M431 41.0262H428.5V38.2458H431V41.0262Z" fill="#0068B7"/>
<path fill-rule="evenodd" clip-rule="evenodd" d="M0 0.955078H12.288H25.6018H31.842V5.94274H37.5693V19.5262H31.842V23.9195V28.0582V28.1431H42.6769V37.2907H49.7291V0.955078H62.0172V37.3119H55.5846V41.5355H42.6769H31.842H26.8413H25.6018V28.1644V28.0795H19.383V23.9408H12.288V41.5355H0V23.9408V19.5262V5.94274V0.955078ZM25.6232 5.94274H12.288V19.5262H19.383H25.6232V5.94274Z" fill="#0068B7"/>
</g>
<defs>
<clipPath id="clip0">
<rect width="431" height="43" fill="white"/>
</clipPath>
</defs>
</svg>
