<svg width="804" height="70" viewBox="0 0 804 70" fill="none" xmlns="http://www.w3.org/2000/svg">
<path d="M34.475 69.855C27.635 69.855 21.65 68.43 16.52 65.58C11.4533 62.6667 7.55833 58.6133 4.835 53.42C2.11167 48.1633 0.75 42.0517 0.75 35.085C0.75 28.1817 2.11167 22.1333 4.835 16.94C7.55833 11.6833 11.4533 7.63 16.52 4.77999C21.65 1.93 27.635 0.504999 34.475 0.504999C38.9717 0.504999 43.2467 1.20166 47.3 2.59499C51.4167 3.925 54.7733 5.825 57.37 8.29499L52.715 18.935C49.675 16.655 46.6983 15.0083 43.785 13.995C40.935 12.9183 37.9267 12.38 34.76 12.38C28.68 12.38 24.025 14.3117 20.795 18.175C17.565 22.0383 15.95 27.675 15.95 35.085C15.95 42.5583 17.565 48.2583 20.795 52.185C24.025 56.0483 28.68 57.98 34.76 57.98C37.9267 57.98 40.935 57.4733 43.785 56.46C46.6983 55.3833 49.675 53.705 52.715 51.425L57.37 62.065C54.7733 64.535 51.4167 66.4667 47.3 67.86C43.2467 69.19 38.9717 69.855 34.475 69.855ZM97.8903 69.855C91.177 69.855 85.3187 68.4617 80.3153 65.675C75.3753 62.825 71.5437 58.7717 68.8203 53.515C66.1603 48.2583 64.8303 42.115 64.8303 35.085C64.8303 28.055 66.1603 21.9433 68.8203 16.75C71.5437 11.5567 75.3753 7.56666 80.3153 4.77999C85.3187 1.93 91.177 0.504999 97.8903 0.504999C104.604 0.504999 110.43 1.93 115.37 4.77999C120.31 7.56666 124.11 11.5567 126.77 16.75C129.43 21.9433 130.76 28.055 130.76 35.085C130.76 42.115 129.43 48.2583 126.77 53.515C124.11 58.7717 120.31 62.825 115.37 65.675C110.43 68.4617 104.604 69.855 97.8903 69.855ZM97.8903 58.265C103.59 58.265 108.024 56.27 111.19 52.28C114.42 48.29 116.035 42.5583 116.035 35.085C116.035 27.6117 114.42 21.9117 111.19 17.985C108.024 14.0583 103.59 12.095 97.8903 12.095C92.1903 12.095 87.7253 14.0583 84.4953 17.985C81.3287 21.9117 79.7453 27.6117 79.7453 35.085C79.7453 42.6217 81.3287 48.385 84.4953 52.375C87.7253 56.3017 92.1903 58.265 97.8903 58.265ZM209.946 1.36V69H196.836V32.045L181.256 69H171.661L155.986 32.52V69H142.971V1.36H154.751L176.601 51.235L198.261 1.36H209.946ZM224.024 1.36H254.709C262.182 1.36 267.977 3.165 272.094 6.775C276.274 10.385 278.364 15.2933 278.364 21.5C278.364 27.6433 276.274 32.5517 272.094 36.225C267.914 39.835 262.119 41.64 254.709 41.64H238.844V69H224.024V1.36ZM252.809 30.335C260.536 30.335 264.399 27.4217 264.399 21.595C264.399 15.705 260.536 12.76 252.809 12.76H238.844V30.335H252.809ZM326.552 53.99H294.917L288.457 69H273.542L304.607 1.36H316.577L347.642 69H333.012L326.552 53.99ZM321.707 42.685L310.782 17.32L299.857 42.685H321.707ZM412.47 1.36V69H401.45L367.725 25.87V69H353.855V1.36H364.78L398.505 44.395V1.36H412.47ZM457.63 42.78V69H442.81V42.685L414.88 1.36H431.695L450.125 30.24L468.745 1.36H485.655L457.63 42.78ZM573.632 1.36V69H562.612L528.887 25.87V69H515.017V1.36H525.942L559.667 44.395V1.36H573.632ZM587.632 1.36H634.277V12.855H602.072V28.815H632.282V40.405H602.072V57.505H634.277V69H587.632V1.36ZM743.731 1.36L719.696 69H707.821L692.051 24.255L676.186 69H664.311L640.276 1.36H655.381L670.961 48.1L687.301 1.36H697.656L713.616 48.765L729.576 1.36H743.731ZM774.98 69.855C769.85 69.855 764.91 69.19 760.16 67.86C755.473 66.4667 751.578 64.535 748.475 62.065L753.225 51.425C759.748 55.985 767.032 58.265 775.075 58.265C779.382 58.265 782.675 57.6 784.955 56.27C787.298 54.8767 788.47 52.945 788.47 50.475C788.47 48.3217 787.393 46.6433 785.24 45.44C783.15 44.1733 779.445 42.97 774.125 41.83C768.172 40.6267 763.422 39.17 759.875 37.46C756.392 35.6867 753.827 33.565 752.18 31.095C750.597 28.5617 749.805 25.4267 749.805 21.69C749.805 17.6367 750.913 13.995 753.13 10.765C755.41 7.535 758.577 5.03333 762.63 3.26C766.683 1.42333 771.37 0.504999 776.69 0.504999C781.503 0.504999 786.127 1.20166 790.56 2.59499C794.993 3.98833 798.54 5.88833 801.2 8.29499L796.45 18.935C790.497 14.375 783.942 12.095 776.785 12.095C772.985 12.095 769.945 12.855 767.665 14.375C765.385 15.895 764.245 17.9533 764.245 20.55C764.245 22.07 764.657 23.3367 765.48 24.35C766.367 25.3633 767.823 26.2817 769.85 27.105C771.877 27.865 774.758 28.625 778.495 29.385C787.172 31.285 793.41 33.755 797.21 36.795C801.073 39.835 803.005 43.9833 803.005 49.24C803.005 55.5733 800.535 60.6083 795.595 64.345C790.655 68.0183 783.783 69.855 774.98 69.855Z" fill="white" fill-opacity="0.3"/>
</svg>
