<svg width="610" height="66" viewBox="0 0 610 66" fill="none" xmlns="http://www.w3.org/2000/svg">
<path d="M31.82 65.8101C25.46 65.8101 19.91 64.4901 15.17 61.8501C10.49 59.1501 6.86 55.3101 4.28 50.3301C1.76 45.3501 0.5 39.5301 0.5 32.8701C0.5 26.2101 1.76 20.4201 4.28 15.5001C6.86 10.5801 10.49 6.80011 15.17 4.1601C19.91 1.46011 25.46 0.110107 31.82 0.110107C38.18 0.110107 43.7 1.46011 48.38 4.1601C53.06 6.80011 56.66 10.5801 59.18 15.5001C61.7 20.4201 62.96 26.2101 62.96 32.8701C62.96 39.5301 61.7 45.3501 59.18 50.3301C56.66 55.3101 53.06 59.1501 48.38 61.8501C43.7 64.4901 38.18 65.8101 31.82 65.8101ZM31.82 54.8301C37.22 54.8301 41.42 52.9401 44.42 49.1601C47.48 45.3801 49.01 39.9501 49.01 32.8701C49.01 25.7901 47.48 20.3901 44.42 16.6701C41.42 12.9501 37.22 11.0901 31.82 11.0901C26.42 11.0901 22.19 12.9501 19.13 16.6701C16.13 20.3901 14.63 25.7901 14.63 32.8701C14.63 40.0101 16.13 45.4701 19.13 49.2501C22.19 52.9701 26.42 54.8301 31.82 54.8301Z" fill="white" fill-opacity="0.3"/>
<path d="M101.551 65.8101C92.5507 65.8101 85.7107 63.5001 81.0307 58.8801C76.3507 54.2601 74.0107 47.4801 74.0107 38.5401V0.920107H87.7807V39.1701C87.7807 44.2701 88.9507 48.1701 91.2907 50.8701C93.6907 53.5101 97.1107 54.8301 101.551 54.8301C105.991 54.8301 109.381 53.5101 111.721 50.8701C114.061 48.1701 115.231 44.2701 115.231 39.1701V0.920107H129.091V38.5401C129.091 47.4201 126.721 54.2001 121.981 58.8801C117.301 63.5001 110.491 65.8101 101.551 65.8101Z" fill="white" fill-opacity="0.3"/>
<path d="M196.047 65.0001H181.197L173.007 43.6701C172.347 41.9901 171.327 40.8201 169.947 40.1601C168.627 39.5001 166.947 39.1701 164.907 39.1701H155.817V65.0001H141.957V0.920107H170.487C177.927 0.920107 183.567 2.54011 187.407 5.7801C191.247 9.02011 193.167 13.6701 193.167 19.7301C193.167 23.9901 192.027 27.6501 189.747 30.7101C187.527 33.7701 184.317 35.9601 180.117 37.2801C183.897 38.0601 186.627 40.6701 188.307 45.1101L196.047 65.0001ZM168.417 28.4601C172.437 28.4601 175.377 27.8001 177.237 26.4801C179.097 25.1001 180.027 22.9701 180.027 20.0901C180.027 17.2101 179.097 15.1101 177.237 13.7901C175.377 12.4101 172.437 11.7201 168.417 11.7201H155.637V28.4601H168.417Z" fill="white" fill-opacity="0.3"/>
<path d="M254.276 65.8101C249.416 65.8101 244.736 65.1801 240.236 63.9201C235.796 62.6001 232.106 60.7701 229.166 58.4301L233.666 48.3501C239.846 52.6701 246.746 54.8301 254.366 54.8301C258.446 54.8301 261.566 54.2001 263.726 52.9401C265.946 51.6201 267.056 49.7901 267.056 47.4501C267.056 45.4101 266.036 43.8201 263.996 42.6801C262.016 41.4801 258.506 40.3401 253.466 39.2601C247.826 38.1201 243.326 36.7401 239.966 35.1201C236.666 33.4401 234.236 31.4301 232.676 29.0901C231.176 26.6901 230.426 23.7201 230.426 20.1801C230.426 16.3401 231.476 12.8901 233.576 9.83011C235.736 6.77011 238.736 4.40011 242.576 2.72011C246.416 0.980107 250.856 0.110107 255.896 0.110107C260.456 0.110107 264.836 0.770106 269.036 2.0901C273.236 3.4101 276.596 5.2101 279.116 7.4901L274.616 17.5701C268.976 13.2501 262.766 11.0901 255.986 11.0901C252.386 11.0901 249.506 11.8101 247.346 13.2501C245.186 14.6901 244.106 16.6401 244.106 19.1001C244.106 20.5401 244.496 21.7401 245.276 22.7001C246.116 23.6601 247.496 24.5301 249.416 25.3101C251.336 26.0301 254.066 26.7501 257.606 27.4701C265.826 29.2701 271.736 31.6101 275.336 34.4901C278.996 37.3701 280.826 41.3001 280.826 46.2801C280.826 52.2801 278.486 57.0501 273.806 60.5901C269.126 64.0701 262.616 65.8101 254.276 65.8101Z" fill="white" fill-opacity="0.3"/>
<path d="M291.454 0.920107H335.644V11.8101H305.134V26.9301H333.754V37.9101H305.134V54.1101H335.644V65.0001H291.454V0.920107Z" fill="white" fill-opacity="0.3"/>
<path d="M399.859 65.0001H385.009L376.819 43.6701C376.159 41.9901 375.139 40.8201 373.759 40.1601C372.439 39.5001 370.759 39.1701 368.719 39.1701H359.629V65.0001H345.769V0.920107H374.299C381.739 0.920107 387.379 2.54011 391.219 5.7801C395.059 9.02011 396.979 13.6701 396.979 19.7301C396.979 23.9901 395.839 27.6501 393.559 30.7101C391.339 33.7701 388.129 35.9601 383.929 37.2801C387.709 38.0601 390.439 40.6701 392.119 45.1101L399.859 65.0001ZM372.229 28.4601C376.249 28.4601 379.189 27.8001 381.049 26.4801C382.909 25.1001 383.839 22.9701 383.839 20.0901C383.839 17.2101 382.909 15.1101 381.049 13.7901C379.189 12.4101 376.249 11.7201 372.229 11.7201H359.449V28.4601H372.229Z" fill="white" fill-opacity="0.3"/>
<path d="M470.158 0.920107L441.358 65.0001H430.108L401.308 0.920107H415.888L435.868 47.4501L456.028 0.920107H470.158Z" fill="white" fill-opacity="0.3"/>
<path d="M475.668 0.920107H489.708V65.0001H475.668V0.920107Z" fill="white" fill-opacity="0.3"/>
<path d="M533.06 65.8101C526.58 65.8101 520.91 64.4601 516.05 61.7601C511.25 59.0001 507.56 55.1601 504.98 50.2401C502.4 45.2601 501.11 39.4701 501.11 32.8701C501.11 26.3301 502.4 20.6001 504.98 15.6801C507.56 10.7001 511.25 6.8601 516.05 4.1601C520.91 1.46011 526.58 0.110107 533.06 0.110107C537.32 0.110107 541.37 0.770106 545.21 2.0901C549.11 3.3501 552.29 5.15011 554.75 7.4901L550.34 17.5701C547.46 15.4101 544.64 13.8501 541.88 12.8901C539.18 11.8701 536.33 11.3601 533.33 11.3601C527.57 11.3601 523.16 13.1901 520.1 16.8501C517.04 20.5101 515.51 25.8501 515.51 32.8701C515.51 39.9501 517.04 45.3501 520.1 49.0701C523.16 52.7301 527.57 54.5601 533.33 54.5601C536.33 54.5601 539.18 54.0801 541.88 53.1201C544.64 52.1001 547.46 50.5101 550.34 48.3501L554.75 58.4301C552.29 60.7701 549.11 62.6001 545.21 63.9201C541.37 65.1801 537.32 65.8101 533.06 65.8101Z" fill="white" fill-opacity="0.3"/>
<path d="M565.049 0.920107H609.239V11.8101H578.729V26.9301H607.349V37.9101H578.729V54.1101H609.239V65.0001H565.049V0.920107Z" fill="white" fill-opacity="0.3"/>
</svg>
