<svg width="1348" height="147" viewBox="0 0 1348 147" fill="none" xmlns="http://www.w3.org/2000/svg">
<path d="M69.6 146.8C55.4667 146.8 43.1333 143.867 32.6 138C22.2 132 14.1333 123.467 8.4 112.4C2.8 101.333 1.49012e-07 88.4 1.49012e-07 73.6C1.49012e-07 58.8 2.8 45.9333 8.4 35C14.1333 24.0667 22.2 15.6667 32.6 9.79999C43.1333 3.79999 55.4667 0.799997 69.6 0.799997C83.7333 0.799997 96 3.79999 106.4 9.79999C116.8 15.6667 124.8 24.0667 130.4 35C136 45.9333 138.8 58.8 138.8 73.6C138.8 88.4 136 101.333 130.4 112.4C124.8 123.467 116.8 132 106.4 138C96 143.867 83.7333 146.8 69.6 146.8ZM69.6 122.4C81.6 122.4 90.9333 118.2 97.6 109.8C104.4 101.4 107.8 89.3333 107.8 73.6C107.8 57.8667 104.4 45.8667 97.6 37.6C90.9333 29.3333 81.6 25.2 69.6 25.2C57.6 25.2 48.2 29.3333 41.4 37.6C34.7333 45.8667 31.4 57.8667 31.4 73.6C31.4 89.4667 34.7333 101.6 41.4 110C48.2 118.267 57.6 122.4 69.6 122.4ZM224.022 146.8C204.022 146.8 188.822 141.667 178.422 131.4C168.022 121.133 162.822 106.067 162.822 86.2V2.6H193.422V87.6C193.422 98.9333 196.022 107.6 201.222 113.6C206.555 119.467 214.155 122.4 224.022 122.4C233.889 122.4 241.422 119.467 246.622 113.6C251.822 107.6 254.422 98.9333 254.422 87.6V2.6H285.222V86.2C285.222 105.933 279.955 121 269.422 131.4C259.022 141.667 243.889 146.8 224.022 146.8ZM433.479 145H400.479L382.279 97.6C380.812 93.8667 378.545 91.2667 375.479 89.8C372.545 88.3333 368.812 87.6 364.279 87.6H344.079V145H313.279V2.6H376.679C393.212 2.6 405.745 6.19999 414.279 13.4C422.812 20.6 427.079 30.9333 427.079 44.4C427.079 53.8667 424.545 62 419.479 68.8C414.545 75.6 407.412 80.4667 398.079 83.4C406.479 85.1333 412.545 90.9333 416.279 100.8L433.479 145ZM372.079 63.8C381.012 63.8 387.545 62.3333 391.679 59.4C395.812 56.3333 397.879 51.6 397.879 45.2C397.879 38.8 395.812 34.1333 391.679 31.2C387.545 28.1333 381.012 26.6 372.079 26.6H343.679V63.8H372.079ZM561.806 146.8C551.006 146.8 540.606 145.4 530.606 142.6C520.739 139.667 512.539 135.6 506.006 130.4L516.006 108C529.739 117.6 545.072 122.4 562.006 122.4C571.072 122.4 578.006 121 582.806 118.2C587.739 115.267 590.206 111.2 590.206 106C590.206 101.467 587.939 97.9333 583.406 95.4C579.006 92.7333 571.206 90.2 560.006 87.8C547.472 85.2667 537.472 82.2 530.006 78.6C522.672 74.8667 517.272 70.4 513.806 65.2C510.472 59.8667 508.806 53.2667 508.806 45.4C508.806 36.8667 511.139 29.2 515.806 22.4C520.606 15.6 527.272 10.3333 535.806 6.59999C544.339 2.73333 554.206 0.799997 565.406 0.799997C575.539 0.799997 585.272 2.26666 594.606 5.19999C603.939 8.13332 611.406 12.1333 617.006 17.2L607.006 39.6C594.472 30 580.672 25.2 565.606 25.2C557.606 25.2 551.206 26.8 546.406 30C541.606 33.2 539.206 37.5333 539.206 43C539.206 46.2 540.072 48.8667 541.806 51C543.672 53.1333 546.739 55.0667 551.006 56.8C555.272 58.4 561.339 60 569.206 61.6C587.472 65.6 600.606 70.8 608.606 77.2C616.739 83.6 620.806 92.3333 620.806 103.4C620.806 116.733 615.606 127.333 605.206 135.2C594.806 142.933 580.339 146.8 561.806 146.8ZM643.889 2.6H742.089V26.8H674.289V60.4H737.889V84.8H674.289V120.8H742.089V145H643.889V2.6ZM884.253 145H851.253L833.053 97.6C831.586 93.8667 829.32 91.2667 826.253 89.8C823.32 88.3333 819.586 87.6 815.053 87.6H794.853V145H764.053V2.6H827.453C843.986 2.6 856.52 6.19999 865.053 13.4C873.586 20.6 877.853 30.9333 877.853 44.4C877.853 53.8667 875.32 62 870.253 68.8C865.32 75.6 858.186 80.4667 848.853 83.4C857.253 85.1333 863.32 90.9333 867.053 100.8L884.253 145ZM822.853 63.8C831.786 63.8 838.32 62.3333 842.453 59.4C846.586 56.3333 848.653 51.6 848.653 45.2C848.653 38.8 846.586 34.1333 842.453 31.2C838.32 28.1333 831.786 26.6 822.853 26.6H794.453V63.8H822.853ZM1039.94 2.6L975.939 145H950.939L886.939 2.6H919.339L963.739 106L1008.54 2.6H1039.94ZM1051.65 2.6H1082.85V145H1051.65V2.6ZM1178.65 146.8C1164.25 146.8 1151.65 143.8 1140.85 137.8C1130.18 131.667 1121.98 123.133 1116.25 112.2C1110.52 101.133 1107.65 88.2667 1107.65 73.6C1107.65 59.0667 1110.52 46.3333 1116.25 35.4C1121.98 24.3333 1130.18 15.8 1140.85 9.79999C1151.65 3.79999 1164.25 0.799997 1178.65 0.799997C1188.12 0.799997 1197.12 2.26666 1205.65 5.19999C1214.32 7.99999 1221.38 12 1226.85 17.2L1217.05 39.6C1210.65 34.8 1204.38 31.3333 1198.25 29.2C1192.25 26.9333 1185.92 25.8 1179.25 25.8C1166.45 25.8 1156.65 29.8667 1149.85 38C1143.05 46.1333 1139.65 58 1139.65 73.6C1139.65 89.3333 1143.05 101.333 1149.85 109.6C1156.65 117.733 1166.45 121.8 1179.25 121.8C1185.92 121.8 1192.25 120.733 1198.25 118.6C1204.38 116.333 1210.65 112.8 1217.05 108L1226.85 130.4C1221.38 135.6 1214.32 139.667 1205.65 142.6C1197.12 145.4 1188.12 146.8 1178.65 146.8ZM1249.2 2.6H1347.4V26.8H1279.6V60.4H1343.2V84.8H1279.6V120.8H1347.4V145H1249.2V2.6Z" fill="white" fill-opacity="0.2"/>
</svg>
