<svg width="56" height="56" viewBox="0 0 56 56" fill="none" xmlns="http://www.w3.org/2000/svg">
<path d="M33.587 40.6968L33.3754 40.0984L32.9523 40.248V40.6968H33.587ZM23.413 40.6969H24.0477V40.248L23.6245 40.0985L23.413 40.6969ZM23.413 46.087H22.7784V46.7216H23.413V46.087ZM33.587 46.087V46.7216H34.2216V46.087H33.587ZM43.1261 26.3043C43.1261 32.6716 39.057 38.0902 33.3754 40.0984L33.7985 41.2952C39.9713 39.1133 44.3954 33.2263 44.3954 26.3043H43.1261ZM28.4999 11.6781C36.5777 11.6781 43.1261 18.2265 43.1261 26.3043H44.3954C44.3954 17.5255 37.2788 10.4088 28.4999 10.4088V11.6781ZM13.8737 26.3043C13.8737 18.2265 20.4221 11.6781 28.4999 11.6781V10.4088C19.721 10.4088 12.6043 17.5255 12.6043 26.3043H13.8737ZM23.6245 40.0985C17.9429 38.0903 13.8737 32.6717 13.8737 26.3043H12.6043C12.6043 33.2264 17.0285 39.1135 23.2015 41.2953L23.6245 40.0985ZM24.0477 46.087V40.6969H22.7784V46.087H24.0477ZM33.587 45.4523H23.413V46.7216H33.587V45.4523ZM32.9523 40.6968V46.087H34.2216V40.6968H32.9523Z" fill="black"/>
<line x1="21.1521" y1="30.7567" x2="35.8478" y2="30.7567" stroke="black" stroke-width="1.26935"/>
<line x1="18.8911" y1="53.3653" x2="38.1085" y2="53.3653" stroke="black" stroke-width="1.26935"/>
<line x1="28.5692" y1="31.3914" x2="28.5692" y2="42.6957" stroke="black" stroke-width="1.26935"/>
<line x1="28.5692" y1="2" x2="28.5692" y2="7.65217" stroke="black" stroke-width="1.26935"/>
<line x1="11.4271" y1="9.4643" x2="15.4237" y2="13.461" stroke="black" stroke-width="1.26935"/>
<line x1="45.6143" y1="9.2315" x2="41.6176" y2="13.2282" stroke="black" stroke-width="1.26935"/>
<line x1="52.8042" y1="24.1129" x2="47.152" y2="24.1129" stroke="black" stroke-width="1.26935"/>
<line x1="9.84766" y1="24.1129" x2="4.19548" y2="24.1129" stroke="black" stroke-width="1.26935"/>
</svg>
