<svg width="56" height="56" viewBox="0 0 56 56" fill="none" xmlns="http://www.w3.org/2000/svg">
<path d="M33.5872 40.6968L33.3757 40.0984L32.9525 40.248V40.6968H33.5872ZM23.4133 40.6969H24.048V40.248L23.6248 40.0985L23.4133 40.6969ZM23.4133 46.087H22.7786V46.7216H23.4133V46.087ZM33.5872 46.087V46.7216H34.2219V46.087H33.5872ZM43.1263 26.3043C43.1263 32.6716 39.0573 38.0902 33.3757 40.0984L33.7987 41.2952C39.9716 39.1133 44.3957 33.2263 44.3957 26.3043H43.1263ZM28.5001 11.6781C36.578 11.6781 43.1263 18.2265 43.1263 26.3043H44.3957C44.3957 17.5255 37.279 10.4088 28.5001 10.4088V11.6781ZM13.8739 26.3043C13.8739 18.2265 20.4223 11.6781 28.5001 11.6781V10.4088C19.7213 10.4088 12.6046 17.5255 12.6046 26.3043H13.8739ZM23.6248 40.0985C17.9431 38.0903 13.8739 32.6717 13.8739 26.3043H12.6046C12.6046 33.2264 17.0288 39.1135 23.2018 41.2953L23.6248 40.0985ZM24.048 46.087V40.6969H22.7786V46.087H24.048ZM33.5872 45.4523H23.4133V46.7216H33.5872V45.4523ZM32.9525 40.6968V46.087H34.2219V40.6968H32.9525Z" fill="black"/>
<line x1="21.1523" y1="30.7567" x2="35.848" y2="30.7567" stroke="black" stroke-width="1.26935"/>
<line x1="18.8916" y1="53.3653" x2="38.109" y2="53.3653" stroke="black" stroke-width="1.26935"/>
<line x1="28.5697" y1="31.3914" x2="28.5697" y2="42.6957" stroke="black" stroke-width="1.26935"/>
<line x1="28.5697" y1="2" x2="28.5697" y2="7.65217" stroke="black" stroke-width="1.26935"/>
<line x1="11.4273" y1="9.4643" x2="15.424" y2="13.461" stroke="black" stroke-width="1.26935"/>
<line x1="45.6148" y1="9.2315" x2="41.6181" y2="13.2282" stroke="black" stroke-width="1.26935"/>
<line x1="52.8047" y1="24.1129" x2="47.1525" y2="24.1129" stroke="black" stroke-width="1.26935"/>
<line x1="9.84814" y1="24.1129" x2="4.19597" y2="24.1129" stroke="black" stroke-width="1.26935"/>
</svg>
