<svg width="59" height="56" viewBox="0 0 59 56" fill="none" xmlns="http://www.w3.org/2000/svg">
<path d="M50.4417 28.5C50.4417 39.8218 41.2635 49 29.9417 49C18.6198 49 9.44165 39.8218 9.44165 28.5C9.44165 17.1782 18.6198 8 29.9417 8C34.4235 8 38.5694 9.43825 41.943 11.8784" stroke="black" stroke-width="1.26935"/>
<path d="M28.2922 30.175C17.1981 36.0362 4.6298 37.2582 2.98526 34.1454C2.22256 32.7018 3.46127 30.3629 6.11572 27.685" stroke="black" stroke-width="1.26935"/>
<path d="M29.4934 27.1676L24.4097 23.2226C23.8769 22.8092 23.7844 22.0401 24.2039 21.5121C24.5498 21.0769 25.1476 20.9329 25.6537 21.1631L28.6283 22.5161C30.0883 23.1801 31.7681 23.1602 33.2118 22.4616L35.674 21.2702C36.197 21.0171 36.3421 20.3394 35.9685 19.8945L32.6416 15.932C31.9543 15.1134 32.203 13.8687 33.1521 13.3771C33.6113 13.1393 34.1548 13.1278 34.6237 13.3459L40.6858 16.1667C42.9995 17.2432 45.6602 17.2928 48.0123 16.3031L53.2909 14.0821C54.7357 13.4742 56.4042 14.0962 57.0983 15.5017C57.8352 16.9935 57.2001 18.7995 55.6917 19.5018L37.3318 28.0499C34.76 29.2473 31.7346 28.9068 29.4934 27.1676Z" stroke="black" stroke-width="1.27"/>
</svg>
