<svg width="48" height="48" viewBox="0 0 48 48" fill="none" xmlns="http://www.w3.org/2000/svg">
<path d="M40 31C37.5 31 35.1 30.6 32.86 29.86C32.5083 29.748 32.1329 29.7335 31.7737 29.818C31.4144 29.9025 31.0848 30.0829 30.82 30.34L26.42 34.74C20.7478 31.8544 16.1342 27.2478 13.24 21.58L17.64 17.16C18.2 16.62 18.36 15.84 18.14 15.14C17.3813 12.8361 16.9964 10.4256 17 8C17 6.9 16.1 6 15 6H8C6.9 6 6 6.9 6 8C6 26.78 21.22 42 40 42C41.1 42 42 41.1 42 40V33C42 31.9 41.1 31 40 31ZM24 6V26L30 20H42V6H24Z" stroke="black" stroke-width="1.08801"/>
</svg>
