<svg width="49" height="49" viewBox="0 0 49 49" fill="none" xmlns="http://www.w3.org/2000/svg">
<rect x="0.998047" y="0.998291" width="48.0016" height="48.0016" fill="white"/>
<line x1="12.999" y1="46.7425" x2="37.0005" y2="46.7425" stroke="black" stroke-width="1.08864"/>
<g clip-path="url(#clip0)">
<path d="M25 10C17.2802 10 11 16.2368 11 23.9004C11 35.3785 24.0678 46.3999 24.6243 46.8636C24.7283 46.9514 24.8602 47 24.9968 47.0008C25.1334 47.0017 25.2659 46.9547 25.371 46.8682C25.9275 46.4126 39 35.5809 39 23.9004C39 16.2368 32.7198 10 25 10ZM25.0023 45.6564C22.8545 43.7544 12.1667 33.7945 12.1667 23.9004C12.1667 16.8728 17.9242 11.1562 25 11.1562C32.0758 11.1562 37.8333 16.8728 37.8333 23.9004C37.8333 33.9621 27.156 43.7798 25.0023 45.6564Z" fill="black"/>
<path d="M25 16.9375C21.1395 16.9375 18 20.049 18 23.875C18 27.701 21.1395 30.8125 25 30.8125C28.8605 30.8125 32 27.701 32 23.875C32 20.049 28.8605 16.9375 25 16.9375ZM25 29.6562C21.7835 29.6562 19.1667 27.0628 19.1667 23.875C19.1667 20.6872 21.7835 18.0938 25 18.0938C28.2165 18.0938 30.8333 20.6872 30.8333 23.875C30.8333 27.0628 28.2165 29.6562 25 29.6562Z" fill="black"/>
</g>
<defs>
<clipPath id="clip0">
<rect x="11" y="10" width="28" height="37" fill="white"/>
</clipPath>
</defs>
</svg>
