<svg width="81" height="81" viewBox="0 0 81 81" fill="none" xmlns="http://www.w3.org/2000/svg">
<rect x="0.5" y="0.5" width="80" height="80" fill="white"/>
<path d="M8.83333 5.5H5.5V8.83333H8.83333V5.5Z" fill="black"/>
<path d="M12.1667 5.5H8.83333V8.83333H12.1667V5.5Z" fill="black"/>
<path d="M15.5 5.5H12.1667V8.83333H15.5V5.5Z" fill="black"/>
<path d="M18.8333 5.5H15.5V8.83333H18.8333V5.5Z" fill="black"/>
<path d="M22.1667 5.5H18.8333V8.83333H22.1667V5.5Z" fill="black"/>
<path d="M25.5 5.5H22.1667V8.83333H25.5V5.5Z" fill="black"/>
<path d="M28.8333 5.5H25.5V8.83333H28.8333V5.5Z" fill="black"/>
<path d="M35.5 5.5H32.1667V8.83333H35.5V5.5Z" fill="black"/>
<path d="M38.8333 5.5H35.5V8.83333H38.8333V5.5Z" fill="black"/>
<path d="M42.1667 5.5H38.8333V8.83333H42.1667V5.5Z" fill="black"/>
<path d="M55.5 5.5H52.1667V8.83333H55.5V5.5Z" fill="black"/>
<path d="M58.8333 5.5H55.5V8.83333H58.8333V5.5Z" fill="black"/>
<path d="M62.1667 5.5H58.8333V8.83333H62.1667V5.5Z" fill="black"/>
<path d="M65.5 5.5H62.1667V8.83333H65.5V5.5Z" fill="black"/>
<path d="M68.8333 5.5H65.5V8.83333H68.8333V5.5Z" fill="black"/>
<path d="M72.1667 5.5H68.8333V8.83333H72.1667V5.5Z" fill="black"/>
<path d="M75.5 5.5H72.1667V8.83333H75.5V5.5Z" fill="black"/>
<path d="M8.83333 8.83333H5.5V12.1667H8.83333V8.83333Z" fill="black"/>
<path d="M28.8333 8.83333H25.5V12.1667H28.8333V8.83333Z" fill="black"/>
<path d="M38.8333 8.83333H35.5L35.5 12.1667H38.8333V8.83333Z" fill="black"/>
<path d="M42.1667 8.83333H38.8333V12.1667H42.1667V8.83333Z" fill="black"/>
<path d="M45.5 8.83333H42.1667V12.1667H45.5V8.83333Z" fill="black"/>
<path d="M55.5 8.83333H52.1667V12.1667H55.5V8.83333Z" fill="black"/>
<path d="M75.5 8.83333H72.1667V12.1667H75.5V8.83333Z" fill="black"/>
<path d="M8.83333 12.1667H5.5V15.5H8.83333V12.1667Z" fill="black"/>
<path d="M15.5 12.1667H12.1667V15.5H15.5V12.1667Z" fill="black"/>
<path d="M18.8333 12.1667H15.5V15.5H18.8333V12.1667Z" fill="black"/>
<path d="M22.1667 12.1667H18.8333V15.5H22.1667V12.1667Z" fill="black"/>
<path d="M28.8333 12.1667H25.5V15.5H28.8333V12.1667Z" fill="black"/>
<path d="M35.5 12.1667H32.1667V15.5H35.5L35.5 12.1667Z" fill="black"/>
<path d="M42.1667 12.1667H38.8333L38.8333 15.5H42.1667V12.1667Z" fill="black"/>
<path d="M45.5 12.1667H42.1667V15.5H45.5V12.1667Z" fill="black"/>
<path d="M48.8333 12.1667H45.5V15.5H48.8333V12.1667Z" fill="black"/>
<path d="M55.5 12.1667H52.1667V15.5H55.5V12.1667Z" fill="black"/>
<path d="M62.1667 12.1667H58.8333V15.5H62.1667V12.1667Z" fill="black"/>
<path d="M65.5 12.1667H62.1667V15.5H65.5V12.1667Z" fill="black"/>
<path d="M68.8333 12.1667H65.5V15.5H68.8333V12.1667Z" fill="black"/>
<path d="M75.5 12.1667H72.1667V15.5H75.5V12.1667Z" fill="black"/>
<path d="M8.83333 15.5H5.5V18.8333H8.83333V15.5Z" fill="black"/>
<path d="M15.5 15.5H12.1667V18.8333H15.5V15.5Z" fill="black"/>
<path d="M18.8333 15.5H15.5V18.8333H18.8333V15.5Z" fill="black"/>
<path d="M22.1667 15.5H18.8333V18.8333H22.1667V15.5Z" fill="black"/>
<path d="M28.8333 15.5H25.5V18.8333H28.8333V15.5Z" fill="black"/>
<path d="M35.5 15.5H32.1667V18.8333H35.5V15.5Z" fill="black"/>
<path d="M42.1667 15.5H38.8333V18.8333H42.1667V15.5Z" fill="black"/>
<path d="M45.5 15.5H42.1667V18.8333H45.5V15.5Z" fill="black"/>
<path d="M48.8333 15.5H45.5V18.8333H48.8333V15.5Z" fill="black"/>
<path d="M55.5 15.5H52.1667V18.8333H55.5V15.5Z" fill="black"/>
<path d="M62.1667 15.5H58.8333V18.8333H62.1667V15.5Z" fill="black"/>
<path d="M65.5 15.5H62.1667V18.8333H65.5V15.5Z" fill="black"/>
<path d="M68.8333 15.5H65.5V18.8333H68.8333V15.5Z" fill="black"/>
<path d="M75.5 15.5H72.1667V18.8333H75.5V15.5Z" fill="black"/>
<path d="M8.83333 18.8333H5.5V22.1667H8.83333V18.8333Z" fill="black"/>
<path d="M15.5 18.8333H12.1667V22.1667H15.5V18.8333Z" fill="black"/>
<path d="M18.8333 18.8333H15.5V22.1667H18.8333V18.8333Z" fill="black"/>
<path d="M22.1667 18.8333H18.8333V22.1667H22.1667V18.8333Z" fill="black"/>
<path d="M28.8333 18.8333H25.5V22.1667H28.8333V18.8333Z" fill="black"/>
<path d="M38.8333 18.8333H35.5L35.5 22.1667H38.8333L38.8333 18.8333Z" fill="black"/>
<path d="M45.5 18.8333H42.1667L42.1667 22.1667H45.5V18.8333Z" fill="black"/>
<path d="M48.8333 18.8333H45.5V22.1667H48.8333V18.8333Z" fill="black"/>
<path d="M55.5 18.8333H52.1667V22.1667H55.5V18.8333Z" fill="black"/>
<path d="M62.1667 18.8333H58.8333V22.1667H62.1667V18.8333Z" fill="black"/>
<path d="M65.5 18.8333H62.1667V22.1667H65.5V18.8333Z" fill="black"/>
<path d="M68.8333 18.8333H65.5V22.1667H68.8333V18.8333Z" fill="black"/>
<path d="M75.5 18.8333H72.1667V22.1667H75.5V18.8333Z" fill="black"/>
<path d="M8.83333 22.1667H5.5V25.5H8.83333V22.1667Z" fill="black"/>
<path d="M28.8333 22.1667H25.5V25.5H28.8333V22.1667Z" fill="black"/>
<path d="M35.5 22.1667H32.1667V25.5H35.5L35.5 22.1667Z" fill="black"/>
<path d="M38.8333 22.1667H35.5L35.5 25.5H38.8333V22.1667Z" fill="black"/>
<path d="M42.1667 22.1667H38.8333V25.5H42.1667L42.1667 22.1667Z" fill="black"/>
<path d="M55.5 22.1667H52.1667V25.5H55.5V22.1667Z" fill="black"/>
<path d="M75.5 22.1667H72.1667V25.5H75.5V22.1667Z" fill="black"/>
<path d="M8.83333 25.5H5.5V28.8333H8.83333V25.5Z" fill="black"/>
<path d="M12.1667 25.5H8.83333V28.8333H12.1667V25.5Z" fill="black"/>
<path d="M15.5 25.5H12.1667V28.8333H15.5V25.5Z" fill="black"/>
<path d="M18.8333 25.5H15.5V28.8333H18.8333V25.5Z" fill="black"/>
<path d="M22.1667 25.5H18.8333V28.8333H22.1667V25.5Z" fill="black"/>
<path d="M25.5 25.5H22.1667V28.8333H25.5V25.5Z" fill="black"/>
<path d="M28.8333 25.5H25.5V28.8333H28.8333V25.5Z" fill="black"/>
<path d="M35.5 25.5H32.1667V28.8333H35.5V25.5Z" fill="black"/>
<path d="M42.1667 25.5H38.8333L38.8333 28.8333H42.1667V25.5Z" fill="black"/>
<path d="M48.8333 25.5H45.5V28.8333H48.8333V25.5Z" fill="black"/>
<path d="M55.5 25.5H52.1667V28.8333H55.5V25.5Z" fill="black"/>
<path d="M58.8333 25.5H55.5V28.8333H58.8333V25.5Z" fill="black"/>
<path d="M62.1667 25.5H58.8333V28.8333H62.1667V25.5Z" fill="black"/>
<path d="M65.5 25.5H62.1667V28.8333H65.5V25.5Z" fill="black"/>
<path d="M68.8333 25.5H65.5V28.8333H68.8333V25.5Z" fill="black"/>
<path d="M72.1667 25.5H68.8333V28.8333H72.1667V25.5Z" fill="black"/>
<path d="M75.5 25.5H72.1667V28.8333H75.5V25.5Z" fill="black"/>
<path d="M35.5 28.8333H32.1667V32.1667H35.5V28.8333Z" fill="black"/>
<path d="M38.8333 28.8333H35.5V32.1667H38.8333L38.8333 28.8333Z" fill="black"/>
<path d="M45.5 28.8333H42.1667L42.1667 32.1667H45.5V28.8333Z" fill="black"/>
<path d="M48.8333 28.8333H45.5V32.1667H48.8333V28.8333Z" fill="black"/>
<path d="M8.83333 32.1667H5.5V35.5H8.83333V32.1667Z" fill="black"/>
<path d="M12.1667 32.1667H8.83333V35.5H12.1667V32.1667Z" fill="black"/>
<path d="M18.8333 32.1667H15.5V35.5H18.8333V32.1667Z" fill="black"/>
<path d="M28.8333 32.1667H25.5V35.5H28.8333V32.1667Z" fill="black"/>
<path d="M32.1667 32.1667L28.8333 32.1667V35.5H32.1667L32.1667 32.1667Z" fill="black"/>
<path d="M38.8333 32.1667H35.5L35.5 35.5H38.8333V32.1667Z" fill="black"/>
<path d="M45.5 32.1667H42.1667V35.5H45.5V32.1667Z" fill="black"/>
<path d="M48.8333 32.1667H45.5V35.5H48.8333V32.1667Z" fill="black"/>
<path d="M52.1667 32.1667L48.8333 32.1667V35.5H52.1667V32.1667Z" fill="black"/>
<path d="M55.5 32.1667H52.1667V35.5H55.5V32.1667Z" fill="black"/>
<path d="M58.8333 32.1667H55.5V35.5H58.8333V32.1667Z" fill="black"/>
<path d="M65.5 32.1667H62.1667V35.5H65.5V32.1667Z" fill="black"/>
<path d="M68.8333 32.1667H65.5V35.5H68.8333V32.1667Z" fill="black"/>
<path d="M75.5 32.1667H72.1667V35.5H75.5V32.1667Z" fill="black"/>
<path d="M12.1667 35.5H8.83333V38.8333H12.1667V35.5Z" fill="black"/>
<path d="M15.5 35.5H12.1667V38.8333H15.5V35.5Z" fill="black"/>
<path d="M22.1667 35.5L18.8333 35.5V38.8333H22.1667V35.5Z" fill="black"/>
<path d="M25.5 35.5L22.1667 35.5V38.8333H25.5V35.5Z" fill="black"/>
<path d="M35.5 35.5H32.1667L32.1667 38.8333H35.5L35.5 35.5Z" fill="black"/>
<path d="M38.8333 35.5H35.5L35.5 38.8333H38.8333V35.5Z" fill="black"/>
<path d="M42.1667 35.5H38.8333V38.8333H42.1667L42.1667 35.5Z" fill="black"/>
<path d="M45.5 35.5H42.1667L42.1667 38.8333H45.5V35.5Z" fill="black"/>
<path d="M48.8333 35.5H45.5V38.8333H48.8333V35.5Z" fill="black"/>
<path d="M55.5 35.5H52.1667V38.8333H55.5V35.5Z" fill="black"/>
<path d="M58.8333 35.5H55.5V38.8333H58.8333V35.5Z" fill="black"/>
<path d="M62.1667 35.5H58.8333V38.8333H62.1667V35.5Z" fill="black"/>
<path d="M65.5 35.5H62.1667V38.8333H65.5V35.5Z" fill="black"/>
<path d="M68.8333 35.5H65.5V38.8333H68.8333V35.5Z" fill="black"/>
<path d="M72.1667 35.5H68.8333V38.8333H72.1667V35.5Z" fill="black"/>
<path d="M75.5 35.5H72.1667V38.8333H75.5V35.5Z" fill="black"/>
<path d="M12.1667 38.8333H8.83333V42.1667H12.1667V38.8333Z" fill="black"/>
<path d="M15.5 38.8333H12.1667V42.1667H15.5V38.8333Z" fill="black"/>
<path d="M28.8333 38.8333L25.5 38.8333V42.1667H28.8333V38.8333Z" fill="black"/>
<path d="M32.1667 38.8333L28.8333 38.8333V42.1667H32.1667L32.1667 38.8333Z" fill="black"/>
<path d="M38.8333 38.8333H35.5L35.5 42.1667H38.8333V38.8333Z" fill="black"/>
<path d="M45.5 38.8333H42.1667L42.1667 42.1667H45.5V38.8333Z" fill="black"/>
<path d="M48.8333 38.8333H45.5V42.1667H48.8333V38.8333Z" fill="black"/>
<path d="M55.5 38.8333H52.1667V42.1667H55.5V38.8333Z" fill="black"/>
<path d="M62.1667 38.8333H58.8333V42.1667H62.1667V38.8333Z" fill="black"/>
<path d="M72.1667 38.8333H68.8333V42.1667H72.1667V38.8333Z" fill="black"/>
<path d="M12.1667 42.1667H8.83333V45.5H12.1667V42.1667Z" fill="black"/>
<path d="M22.1667 42.1667H18.8333V45.5H22.1667V42.1667Z" fill="black"/>
<path d="M25.5 42.1667L22.1667 42.1667V45.5H25.5V42.1667Z" fill="black"/>
<path d="M32.1667 42.1667H28.8333V45.5H32.1667V42.1667Z" fill="black"/>
<path d="M35.5 42.1667H32.1667V45.5H35.5L35.5 42.1667Z" fill="black"/>
<path d="M38.8333 42.1667H35.5L35.5 45.5H38.8333V42.1667Z" fill="black"/>
<path d="M42.1667 42.1667H38.8333V45.5H42.1667L42.1667 42.1667Z" fill="black"/>
<path d="M45.5 42.1667H42.1667L42.1667 45.5H45.5V42.1667Z" fill="black"/>
<path d="M52.1667 42.1667H48.8333V45.5H52.1667V42.1667Z" fill="black"/>
<path d="M55.5 42.1667H52.1667V45.5H55.5V42.1667Z" fill="black"/>
<path d="M65.5 42.1667L62.1667 42.1667V45.5H65.5V42.1667Z" fill="black"/>
<path d="M12.1667 45.5H8.83333V48.8333H12.1667V45.5Z" fill="black"/>
<path d="M18.8333 45.5H15.5V48.8333H18.8333V45.5Z" fill="black"/>
<path d="M25.5 45.5H22.1667V48.8333H25.5V45.5Z" fill="black"/>
<path d="M28.8333 45.5H25.5V48.8333H28.8333V45.5Z" fill="black"/>
<path d="M32.1667 45.5H28.8333V48.8333H32.1667V45.5Z" fill="black"/>
<path d="M35.5 45.5H32.1667V48.8333H35.5V45.5Z" fill="black"/>
<path d="M38.8333 45.5H35.5V48.8333H38.8333V45.5Z" fill="black"/>
<path d="M48.8333 45.5H45.5V48.8333H48.8333V45.5Z" fill="black"/>
<path d="M55.5 45.5H52.1667V48.8333H55.5V45.5Z" fill="black"/>
<path d="M62.1667 45.5H58.8333V48.8333H62.1667V45.5Z" fill="black"/>
<path d="M68.8333 45.5H65.5V48.8333H68.8333V45.5Z" fill="black"/>
<path d="M38.8333 48.8333H35.5L35.5 52.1667H38.8333V48.8333Z" fill="black"/>
<path d="M62.1667 48.8333H58.8333V52.1667H62.1667V48.8333Z" fill="black"/>
<path d="M72.1667 48.8333H68.8333V52.1667H72.1667V48.8333Z" fill="black"/>
<path d="M75.5 48.8333H72.1667V52.1667H75.5V48.8333Z" fill="black"/>
<path d="M8.83333 52.1667H5.5V55.5H8.83333V52.1667Z" fill="black"/>
<path d="M12.1667 52.1667H8.83333V55.5H12.1667V52.1667Z" fill="black"/>
<path d="M15.5 52.1667H12.1667V55.5H15.5V52.1667Z" fill="black"/>
<path d="M18.8333 52.1667H15.5V55.5H18.8333V52.1667Z" fill="black"/>
<path d="M22.1667 52.1667H18.8333V55.5H22.1667V52.1667Z" fill="black"/>
<path d="M25.5 52.1667H22.1667V55.5H25.5V52.1667Z" fill="black"/>
<path d="M28.8333 52.1667H25.5V55.5H28.8333V52.1667Z" fill="black"/>
<path d="M35.5 52.1667H32.1667V55.5H35.5L35.5 52.1667Z" fill="black"/>
<path d="M38.8333 52.1667H35.5L35.5 55.5H38.8333V52.1667Z" fill="black"/>
<path d="M45.5 52.1667H42.1667V55.5H45.5V52.1667Z" fill="black"/>
<path d="M52.1667 52.1667H48.8333V55.5H52.1667V52.1667Z" fill="black"/>
<path d="M62.1667 52.1667H58.8333V55.5H62.1667V52.1667Z" fill="black"/>
<path d="M65.5 52.1667H62.1667V55.5H65.5V52.1667Z" fill="black"/>
<path d="M68.8333 52.1667H65.5V55.5H68.8333V52.1667Z" fill="black"/>
<path d="M8.83333 55.5H5.5V58.8333H8.83333V55.5Z" fill="black"/>
<path d="M28.8333 55.5H25.5V58.8333H28.8333V55.5Z" fill="black"/>
<path d="M45.5 55.5H42.1667V58.8333H45.5V55.5Z" fill="black"/>
<path d="M48.8333 55.5H45.5V58.8333H48.8333V55.5Z" fill="black"/>
<path d="M55.5 55.5H52.1667V58.8333H55.5V55.5Z" fill="black"/>
<path d="M58.8333 55.5H55.5V58.8333H58.8333V55.5Z" fill="black"/>
<path d="M62.1667 55.5H58.8333V58.8333H62.1667V55.5Z" fill="black"/>
<path d="M65.5 55.5H62.1667V58.8333H65.5V55.5Z" fill="black"/>
<path d="M68.8333 55.5H65.5V58.8333H68.8333V55.5Z" fill="black"/>
<path d="M72.1667 55.5H68.8333V58.8333H72.1667V55.5Z" fill="black"/>
<path d="M8.83333 58.8333H5.5V62.1667H8.83333V58.8333Z" fill="black"/>
<path d="M15.5 58.8333H12.1667V62.1667H15.5V58.8333Z" fill="black"/>
<path d="M18.8333 58.8333H15.5V62.1667H18.8333V58.8333Z" fill="black"/>
<path d="M22.1667 58.8333H18.8333V62.1667H22.1667V58.8333Z" fill="black"/>
<path d="M28.8333 58.8333H25.5V62.1667H28.8333V58.8333Z" fill="black"/>
<path d="M45.5 58.8333H42.1667V62.1667H45.5V58.8333Z" fill="black"/>
<path d="M58.8333 58.8333H55.5V62.1667H58.8333V58.8333Z" fill="black"/>
<path d="M62.1667 58.8333H58.8333V62.1667H62.1667V58.8333Z" fill="black"/>
<path d="M65.5 58.8333H62.1667V62.1667H65.5V58.8333Z" fill="black"/>
<path d="M75.5 58.8333H72.1667V62.1667H75.5V58.8333Z" fill="black"/>
<path d="M8.83333 62.1667H5.5V65.5H8.83333V62.1667Z" fill="black"/>
<path d="M15.5 62.1667H12.1667V65.5H15.5V62.1667Z" fill="black"/>
<path d="M18.8333 62.1667H15.5V65.5H18.8333V62.1667Z" fill="black"/>
<path d="M22.1667 62.1667H18.8333V65.5H22.1667V62.1667Z" fill="black"/>
<path d="M28.8333 62.1667H25.5V65.5H28.8333V62.1667Z" fill="black"/>
<path d="M35.5 62.1667H32.1667V65.5H35.5V62.1667Z" fill="black"/>
<path d="M38.8333 62.1667H35.5V65.5H38.8333V62.1667Z" fill="black"/>
<path d="M42.1667 62.1667H38.8333V65.5H42.1667L42.1667 62.1667Z" fill="black"/>
<path d="M45.5 62.1667H42.1667L42.1667 65.5H45.5V62.1667Z" fill="black"/>
<path d="M52.1667 62.1667H48.8333V65.5H52.1667V62.1667Z" fill="black"/>
<path d="M55.5 62.1667H52.1667V65.5H55.5V62.1667Z" fill="black"/>
<path d="M65.5 62.1667H62.1667V65.5H65.5V62.1667Z" fill="black"/>
<path d="M8.83333 65.5H5.5V68.8333H8.83333V65.5Z" fill="black"/>
<path d="M15.5 65.5H12.1667V68.8333H15.5V65.5Z" fill="black"/>
<path d="M18.8333 65.5H15.5V68.8333H18.8333V65.5Z" fill="black"/>
<path d="M22.1667 65.5H18.8333V68.8333H22.1667V65.5Z" fill="black"/>
<path d="M28.8333 65.5H25.5V68.8333H28.8333V65.5Z" fill="black"/>
<path d="M42.1667 65.5H38.8333L38.8333 68.8333H42.1667V65.5Z" fill="black"/>
<path d="M45.5 65.5H42.1667V68.8333H45.5V65.5Z" fill="black"/>
<path d="M48.8333 65.5H45.5V68.8333H48.8333V65.5Z" fill="black"/>
<path d="M58.8333 65.5H55.5V68.8333H58.8333V65.5Z" fill="black"/>
<path d="M65.5 65.5H62.1667V68.8333H65.5V65.5Z" fill="black"/>
<path d="M72.1667 65.5H68.8333V68.8333H72.1667V65.5Z" fill="black"/>
<path d="M8.83333 68.8333H5.5V72.1667H8.83333V68.8333Z" fill="black"/>
<path d="M28.8333 68.8333H25.5V72.1667H28.8333V68.8333Z" fill="black"/>
<path d="M35.5 68.8333H32.1667V72.1667H35.5V68.8333Z" fill="black"/>
<path d="M52.1667 68.8333H48.8333V72.1667H52.1667V68.8333Z" fill="black"/>
<path d="M55.5 68.8333H52.1667V72.1667H55.5V68.8333Z" fill="black"/>
<path d="M58.8333 68.8333H55.5V72.1667H58.8333V68.8333Z" fill="black"/>
<path d="M65.5 68.8333H62.1667V72.1667H65.5V68.8333Z" fill="black"/>
<path d="M8.83333 72.1667H5.5V75.5H8.83333V72.1667Z" fill="black"/>
<path d="M12.1667 72.1667H8.83333V75.5H12.1667V72.1667Z" fill="black"/>
<path d="M15.5 72.1667H12.1667V75.5H15.5V72.1667Z" fill="black"/>
<path d="M18.8333 72.1667H15.5V75.5H18.8333V72.1667Z" fill="black"/>
<path d="M22.1667 72.1667H18.8333V75.5H22.1667V72.1667Z" fill="black"/>
<path d="M25.5 72.1667H22.1667V75.5H25.5V72.1667Z" fill="black"/>
<path d="M28.8333 72.1667H25.5V75.5H28.8333V72.1667Z" fill="black"/>
<path d="M35.5 72.1667H32.1667V75.5H35.5V72.1667Z" fill="black"/>
<path d="M42.1667 72.1667H38.8333V75.5H42.1667V72.1667Z" fill="black"/>
<path d="M62.1667 72.1667H58.8333V75.5H62.1667V72.1667Z" fill="black"/>
<path d="M72.1667 72.1667H68.8333V75.5H72.1667V72.1667Z" fill="black"/>
</svg>
