<svg width="219" height="25" viewBox="0 0 219 25" fill="none" xmlns="http://www.w3.org/2000/svg">
<path d="M44.3244 1.28323L43.4161 2.15211C44.4693 2.86301 45.2855 3.53442 45.8647 4.16633L46.7599 3.25796C46.1017 2.59972 45.2855 1.94147 44.3244 1.28323ZM44.0085 4.3638L43.1133 5.23268C44.1006 5.96991 44.8642 6.64132 45.4171 7.26007L46.3123 6.36486C45.6804 5.69345 44.9169 5.02204 44.0085 4.3638ZM45.5488 8.08945C44.9169 9.6429 44.1665 11.17 43.3239 12.6445L44.5877 13.1974C45.3513 11.7493 46.049 10.1958 46.681 8.55022L45.5488 8.08945ZM49.1164 8.55022C48.5109 9.72189 47.563 10.6961 46.2728 11.4728L46.9442 12.5523C48.3924 11.4991 49.4324 10.1563 50.0906 8.55022H50.1696V13.2632H51.4071V8.55022H51.4729C52.0522 9.97202 53.0132 11.2753 54.356 12.4338L55.1723 11.4202C53.9348 10.5776 53.0264 9.61657 52.4471 8.55022H54.6062V7.36539H51.4071V5.98308H50.1696V7.36539H47.1022V8.55022H49.1164ZM54.514 1.61235H47.1417V4.24532H48.3397V2.75769H53.316V4.19266H54.514V1.61235ZM49.3139 3.45543C48.84 4.44279 48.1291 5.23268 47.168 5.83826L48.0764 6.61499C49.0243 5.98308 49.7879 5.06154 50.3671 3.8767L49.3139 3.45543ZM52.0259 3.36328L51.1175 3.94253C52.0127 4.8904 52.7236 5.77244 53.2502 6.56233L54.2507 5.86459C53.7373 5.15369 53.0001 4.31114 52.0259 3.36328Z" fill="white"/>
<path d="M56.6778 4.56128V5.77244H58.2576V10.1432C57.6783 10.3011 57.0991 10.446 56.5067 10.5513L56.8095 11.8151C58.3497 11.4202 59.7979 10.9199 61.1538 10.3406V9.08998C60.6009 9.32695 60.048 9.55075 59.4819 9.76138V5.77244H60.9564V4.56128H59.4819V1.27007H58.2576V4.56128H56.6778ZM64.5109 2.07312V12.447H65.6562V2.07312H64.5109ZM67.1175 1.42805V13.3159H68.2892V1.42805H67.1175ZM61.9306 1.46754V6.73347C61.9042 9.4191 61.3118 11.3675 60.1402 12.5787L61.088 13.408C62.4045 12.0126 63.0891 9.78771 63.1154 6.73347V1.46754H61.9306Z" fill="white"/>
<path d="M70.2292 2.57339V3.77139H75.4688V5.20635H71.3613V11.4596H72.5857V6.40435H75.4688V13.3027H76.7326V6.40435H79.7737V9.80088C79.7737 10.0905 79.6157 10.2485 79.2997 10.2485L78.0491 10.1827L78.365 11.3675H79.6947C80.5636 11.3675 81.0112 10.9331 81.0112 10.0905V5.20635H76.7326V3.77139H81.9722V2.57339H76.7194C76.5351 2.02046 76.3376 1.50703 76.1402 1.04626L74.7974 1.2569C75.0343 1.65185 75.245 2.09945 75.4424 2.57339H70.2292Z" fill="white"/>
<path d="M83.9253 5.95675V7.11525H85.255V10.4591C84.7416 10.6039 84.215 10.7224 83.6884 10.8277L83.978 12.0257C85.3603 11.6571 86.6636 11.2227 87.888 10.6961V9.48492C87.414 9.69556 86.9401 9.89303 86.4662 10.0642V7.11525H87.6773V5.95675H86.4662V3.11314H87.8353V1.9678H83.7674V3.11314H85.255V5.95675H83.9253ZM93.8253 3.61341H92.364V1.19108H91.1528V3.61341H89.731V1.70451H88.533V4.70609H95.0101V1.70451H93.8253V3.61341ZM88.0723 5.54864V6.70714H90.9949C90.9159 7.04943 90.8237 7.37855 90.7052 7.70767H88.3619V13.2632H89.4809V8.81352H90.3629V13.0263H91.403V8.81352H92.206V13.0131H93.246V8.81352H94.1544V11.9467C94.1544 12.1047 94.0886 12.1969 93.9569 12.1969L93.4303 12.1442L93.7331 13.2632H94.3256C94.9575 13.2632 95.2734 12.8946 95.2734 12.1837V7.70767H91.9296C92.048 7.37855 92.1534 7.04943 92.2323 6.70714H95.563V5.54864H88.0723Z" fill="white"/>
<path d="M108.193 6.70714V4.8509H108.983V3.83721H108.193V2.02046H105.402V1.13842H104.191V2.02046H101.992V3.04732H104.191V3.83721H101.347V4.8509H104.191V5.66712H101.992V6.70714H104.191V7.5102H101.716V8.53706H104.191V9.35328H101.308V10.3933H104.191V11.4596H105.402V10.3933H108.759V9.35328H105.402V8.53706H108.377V7.5102H105.402V6.70714H108.193ZM105.402 3.04732H106.995V3.83721H105.402V3.04732ZM105.402 4.8509H106.995V5.66712H105.402V4.8509ZM104.52 11.9073C102.795 11.8809 101.505 11.6308 100.649 11.1569C100.465 11.0515 100.294 10.9199 100.136 10.7619C100.742 9.55075 101.071 8.10262 101.123 6.41752V5.66712H99.2145C99.7937 4.83774 100.373 3.8767 100.965 2.77086V1.744H97.6083V2.92884H99.5699C98.9643 3.95569 98.3192 4.92989 97.6083 5.85143V6.7993H99.978C99.899 7.85248 99.6884 8.80035 99.3329 9.62974C99.0433 9.08998 98.7932 8.41857 98.5694 7.62868L97.5162 8.01046C97.8321 9.08998 98.2271 9.99835 98.7142 10.7356C98.3324 11.2885 97.8585 11.7624 97.2792 12.1574L98.0954 13.2237C98.6484 12.7893 99.1355 12.289 99.5567 11.7098C99.6357 11.7888 99.741 11.8809 99.8727 11.9731C100.913 12.6576 102.637 13.0131 105.06 13.0131H108.917L109.128 11.8151C107.548 11.8678 106.008 11.9073 104.52 11.9073Z" fill="white"/>
<path d="M121.718 6.70714V4.8509H122.508V3.83721H121.718V2.02046H118.927V1.13842H117.716V2.02046H115.517V3.04732H117.716V3.83721H114.872V4.8509H117.716V5.66712H115.517V6.70714H117.716V7.5102H115.241V8.53706H117.716V9.35328H114.833V10.3933H117.716V11.4596H118.927V10.3933H122.284V9.35328H118.927V8.53706H121.902V7.5102H118.927V6.70714H121.718ZM118.927 3.04732H120.52V3.83721H118.927V3.04732ZM118.927 4.8509H120.52V5.66712H118.927V4.8509ZM118.045 11.9073C116.32 11.8809 115.03 11.6308 114.174 11.1569C113.99 11.0515 113.819 10.9199 113.661 10.7619C114.267 9.55075 114.596 8.10262 114.648 6.41752V5.66712H112.739C113.319 4.83774 113.898 3.8767 114.49 2.77086V1.744H111.133V2.92884H113.095C112.489 3.95569 111.844 4.92989 111.133 5.85143V6.7993H113.503C113.424 7.85248 113.213 8.80035 112.858 9.62974C112.568 9.08998 112.318 8.41857 112.094 7.62868L111.041 8.01046C111.357 9.08998 111.752 9.99835 112.239 10.7356C111.857 11.2885 111.384 11.7624 110.804 12.1574L111.62 13.2237C112.173 12.7893 112.66 12.289 113.082 11.7098C113.161 11.7888 113.266 11.8809 113.398 11.9731C114.438 12.6576 116.162 13.0131 118.585 13.0131H122.442L122.653 11.8151C121.073 11.8678 119.533 11.9073 118.045 11.9073Z" fill="white"/>
<path d="M125.83 1.33589L124.961 2.16528C125.883 2.86301 126.607 3.52125 127.12 4.14L127.976 3.27112C127.397 2.63921 126.686 1.99413 125.83 1.33589ZM124.158 5.1142V6.3122H125.896V11.1042C125.896 11.3807 125.777 11.6176 125.567 11.8019L126.041 12.9341C127.002 12.3154 127.91 11.6045 128.766 10.8146L128.424 9.49809C127.95 9.94569 127.515 10.3406 127.107 10.6829V5.1142H124.158ZM128.858 6.68081V7.89198H129.608C129.924 8.94517 130.543 9.9062 131.438 10.7751C130.49 11.407 129.319 11.9204 127.923 12.3285L128.621 13.3817C130.122 12.9341 131.399 12.3417 132.426 11.6045C133.321 12.2627 134.414 12.8683 135.73 13.3949L136.401 12.3154C135.217 11.8941 134.19 11.3938 133.347 10.8409C134.229 9.99835 134.861 8.99782 135.243 7.82615V6.68081H128.858ZM130.78 7.89198H133.979C133.597 8.7082 133.044 9.43226 132.334 10.0773C131.596 9.4191 131.083 8.69503 130.78 7.89198ZM129.78 1.59919V3.29745C129.78 4.19266 129.213 4.8904 128.108 5.39066L128.937 6.35169C130.319 5.6013 131.017 4.53495 131.017 3.1658V2.77086H133.202V4.64026C133.202 5.50914 133.663 5.95675 134.598 5.95675H136.085V4.81141H134.927C134.598 4.81141 134.44 4.65343 134.44 4.3638V1.59919H129.78Z" fill="white"/>
<path d="M141.712 10.2222C140.948 10.8541 139.658 11.4465 137.867 11.9731L138.526 13.0394C140.658 12.2495 142.146 11.3017 142.975 10.2222H143.147V13.3291H144.384V10.2222H144.555C145.464 11.3543 146.964 12.2759 149.058 12.9868L149.597 11.8809C147.952 11.4596 146.701 10.9067 145.832 10.2222H149.439V9.07681H144.384V8.55022H143.147V9.07681H138.012V10.2222H141.712ZM139.21 4.75875V8.27376H149.058V7.23374H144.726V6.536H148.281V5.58813H144.726V4.94306H148.281V3.99519H144.726V3.32378H148.807V2.29692H144.661C144.489 1.83615 144.318 1.42805 144.147 1.05943L142.87 1.27007C143.068 1.58602 143.252 1.92831 143.423 2.29692H140.895C141.04 2.0073 141.172 1.69134 141.29 1.37539L140.119 1.11209C139.566 2.48123 138.736 3.67923 137.631 4.67976L138.355 5.62763C138.657 5.338 138.947 5.04837 139.21 4.75875ZM143.502 7.23374H140.369V6.536H143.502V7.23374ZM143.502 5.58813H140.369V4.94306H143.502V5.58813ZM143.502 3.99519H140.369V3.32378H143.502V3.99519Z" fill="white"/>
<path d="M153.802 4.79824V5.91725H157.251C156.329 7.20741 155.105 8.24743 153.565 9.02415L154.236 10.13C155.842 9.18213 157.132 7.87881 158.12 6.24637V9.36644C158.12 9.72189 157.962 9.9062 157.672 9.9062C157.238 9.9062 156.777 9.87987 156.303 9.82721L156.566 10.9857H158.08C158.896 10.9857 159.318 10.5513 159.318 9.6824V5.91725H160.845V4.79824H159.318V3.32378H158.12V4.79824H153.802ZM162.701 1.65185H151.801V13.3291H152.999V12.8288H161.503V13.3291H162.701V1.65185ZM152.999 11.6966V2.78402H161.503V11.6966H152.999Z" fill="white"/>
<path d="M168.959 6.07523H173.883V7.23374H168.959V6.07523ZM173.883 8.32642V9.45859H168.959V8.32642H173.883ZM173.883 10.5381V11.7361C173.883 12.0257 173.712 12.1705 173.396 12.1705C172.961 12.1705 172.5 12.1442 172.013 12.1047L172.316 13.2369H173.791C174.633 13.2106 175.054 12.842 175.054 12.1179V4.99571H169.051C169.301 4.58761 169.538 4.16633 169.749 3.73189H176.647V2.52073H170.289C170.447 2.11262 170.592 1.67818 170.723 1.23057L169.446 1.08576C169.288 1.55969 169.117 2.04679 168.92 2.52073H165.062V3.73189H168.314C167.445 5.28534 166.234 6.68081 164.707 7.89198L165.51 8.94517C166.353 8.26059 167.103 7.52336 167.787 6.72031V13.2896H168.959V10.5381H173.883Z" fill="white"/>
<path d="M178.693 1.61235V13.3291H179.917V2.78402H181.721C181.378 3.83721 180.918 5.03521 180.325 6.35169C181.22 7.45754 181.668 8.4449 181.668 9.34011C181.668 9.56391 181.602 9.72189 181.484 9.81404C181.352 9.89303 181.115 9.94569 180.746 9.97202C180.562 9.97202 180.338 9.94569 180.075 9.9062L180.483 11.17C181.457 11.1569 182.129 10.9857 182.524 10.6566C182.787 10.3933 182.919 9.94569 182.919 9.34011C182.866 8.43174 182.418 7.37855 181.589 6.16739C182.116 4.91673 182.576 3.73189 182.971 2.59972V1.61235H178.693ZM184.643 5.14053H188.132V6.33853H184.643V5.14053ZM188.132 4.00835H184.643V2.78402H188.132V4.00835ZM185.881 7.48387C186.302 9.9062 187.605 11.8151 189.764 13.2237L190.462 12.1179C189.554 11.5913 188.816 10.9594 188.264 10.2353C188.961 9.8667 189.593 9.35328 190.146 8.69503L189.343 7.89198C188.816 8.52389 188.264 9.01099 187.684 9.35328C187.368 8.77402 187.131 8.15527 187 7.48387H189.356V1.59919H183.419V11.6571C183.419 11.8283 183.3 11.9467 183.09 12.0257L183.393 13.1184C184.854 12.7366 186.065 12.3417 187.026 11.9467L186.736 10.7882C186.052 11.1042 185.354 11.3675 184.643 11.5781V7.48387H185.881Z" fill="white"/>
<path d="M195.338 1.28323C194.561 3.73189 193.376 5.70662 191.796 7.19424L192.784 8.04996C194.324 6.60182 195.562 4.49545 196.496 1.744L195.338 1.28323ZM200.301 8.26059L199.169 8.62921C199.616 9.34011 200.051 10.1168 200.472 10.9462C198.761 11.2227 196.97 11.4202 195.114 11.5518C196.193 10.0773 197.273 8.24743 198.326 6.0489L197.102 5.62763C195.417 9.32695 194.113 11.328 193.179 11.6176L193.403 12.8288C196.194 12.6445 198.721 12.368 200.986 12.0257C201.17 12.4207 201.354 12.8551 201.538 13.3159L202.71 12.7893C202.026 11.1832 201.222 9.66923 200.301 8.26059ZM200.064 1.17791L198.998 1.7835C199.748 4.35064 201.078 6.44385 202.987 8.07629L203.882 7.04943C202.065 5.53547 200.801 3.57391 200.064 1.17791Z" fill="white"/>
<path d="M206.612 6.70714V10.9989H212.641V6.70714H206.612ZM211.443 9.89303H207.81V7.82615H211.443V9.89303ZM214.826 13.2237C215.801 13.2237 216.288 12.7103 216.288 11.6834V1.61235H206.217V2.82352H215.037V11.3412C215.037 11.8151 214.879 12.0521 214.563 12.0521L212.694 12.0257L213.01 13.2237H214.826ZM205.545 4.20582V5.35117H213.865V4.20582H205.545Z" fill="white"/>
<path d="M46.016 17.1178C45.4101 17.1178 44.9079 17.2533 44.5093 17.5244C44.0868 17.8114 43.8795 18.202 43.8795 18.7042C43.8795 19.1985 44.0947 19.5812 44.5332 19.8443C44.7086 19.9399 45.1391 20.0914 45.8406 20.3146C46.4704 20.5059 46.8451 20.6335 46.9727 20.6973C47.3314 20.8806 47.5148 21.1278 47.5148 21.4466C47.5148 21.7018 47.3872 21.9011 47.1321 22.0446C46.877 22.1881 46.5342 22.2678 46.1037 22.2678C45.6254 22.2678 45.2746 22.1801 45.0434 22.0047C44.7883 21.8134 44.6289 21.4865 44.5651 21.0401H43.7041C43.7519 21.7576 44.007 22.2837 44.4774 22.6185C44.868 22.8896 45.4101 23.0331 46.1037 23.0331C46.8212 23.0331 47.3792 22.8896 47.7778 22.6026C48.1764 22.3076 48.3758 21.909 48.3758 21.3988C48.3758 20.8727 48.1286 20.4661 47.6423 20.1711C47.4191 20.0356 46.9169 19.8522 46.1515 19.6131C45.6174 19.4536 45.2905 19.334 45.163 19.2623C44.876 19.1108 44.7405 18.9115 44.7405 18.6564C44.7405 18.3694 44.8601 18.1621 45.1072 18.0346C45.3065 17.923 45.5935 17.8672 45.9682 17.8672C46.3987 17.8672 46.7176 17.9469 46.9408 18.1143C47.164 18.2738 47.3075 18.5448 47.3872 18.9115H48.2482C48.1924 18.2897 47.9692 17.8353 47.5706 17.5403C47.1959 17.2533 46.6777 17.1178 46.016 17.1178Z" fill="#7B7B7B"/>
<path d="M49.1049 17.1178V22.9215H49.9499V20.6096C49.9499 20.2508 50.0376 19.9559 50.221 19.7247C50.3964 19.4935 50.6276 19.3819 50.9146 19.3819C51.2334 19.3819 51.4806 19.4775 51.64 19.6768C51.7835 19.8682 51.8632 20.1392 51.8632 20.5059V22.9215H52.7083V20.3624C52.7083 19.8203 52.5887 19.4058 52.3495 19.1268C52.0944 18.8318 51.7197 18.6883 51.2255 18.6883C50.9624 18.6883 50.7312 18.7361 50.5239 18.8477C50.2927 18.9594 50.1014 19.1427 49.9499 19.3819V17.1178H49.1049Z" fill="#7B7B7B"/>
<path d="M55.4129 18.6883C54.8071 18.6883 54.3208 18.8956 53.97 19.3181C53.6033 19.7326 53.4279 20.2429 53.4279 20.8567C53.4279 21.5343 53.6192 22.0685 54.0019 22.4671C54.3526 22.8418 54.8389 23.0331 55.4448 23.0331C55.9949 23.0331 56.4493 22.8737 56.8081 22.5627C57.095 22.3076 57.2784 21.9808 57.3741 21.5981H56.529C56.4174 21.8373 56.2978 22.0206 56.1543 22.1322C55.971 22.2678 55.7318 22.3395 55.4369 22.3395C55.102 22.3395 54.8389 22.2279 54.6476 22.0206C54.4563 21.8054 54.3526 21.4945 54.3208 21.0959H57.4458C57.4378 20.3624 57.2704 19.7885 56.9515 19.3739C56.6008 18.9115 56.0826 18.6883 55.4129 18.6883ZM55.4369 19.3819C56.1065 19.3819 56.4812 19.7406 56.5609 20.4581H54.3367C54.3845 20.1073 54.5041 19.8443 54.6795 19.6609C54.8708 19.4696 55.118 19.3819 55.4369 19.3819Z" fill="#7B7B7B"/>
<path d="M60.2556 18.6883C60.0005 18.6883 59.7693 18.7361 59.562 18.8477C59.3548 18.9514 59.1714 19.1029 59.012 19.3101V18.7999H58.1669V22.9215H59.012V20.4422C59.0439 20.1073 59.1634 19.8443 59.3548 19.6529C59.5301 19.4775 59.7454 19.3978 59.9846 19.3978C60.6223 19.3978 60.9492 19.7486 60.9492 20.4501V22.9215H61.7942V20.3784C61.7942 19.2463 61.276 18.6883 60.2556 18.6883Z" fill="#7B7B7B"/>
<path d="M62.5609 18.7999V19.4935H64.817L62.4812 22.3395V22.9215H66.0846V22.2279H63.5893L65.957 19.35V18.7999H62.5609Z" fill="#7B7B7B"/>
<path d="M66.7618 17.1178V22.9215H67.6069V20.6096C67.6069 20.2508 67.6946 19.9559 67.8779 19.7247C68.0533 19.4935 68.2845 19.3819 68.5715 19.3819C68.8904 19.3819 69.1375 19.4775 69.297 19.6768C69.4405 19.8682 69.5202 20.1392 69.5202 20.5059V22.9215H70.3652V20.3624C70.3652 19.8203 70.2456 19.4058 70.0065 19.1268C69.7514 18.8318 69.3767 18.6883 68.8824 18.6883C68.6193 18.6883 68.3881 18.7361 68.1809 18.8477C67.9497 18.9594 67.7583 19.1427 67.6069 19.3819V17.1178H66.7618Z" fill="#7B7B7B"/>
<path d="M73.0699 18.6883C72.464 18.6883 71.9777 18.8956 71.6269 19.3181C71.2602 19.7326 71.0848 20.2429 71.0848 20.8567C71.0848 21.5343 71.2762 22.0685 71.6588 22.4671C72.0096 22.8418 72.4959 23.0331 73.1018 23.0331C73.6518 23.0331 74.1063 22.8737 74.465 22.5627C74.752 22.3076 74.9354 21.9808 75.031 21.5981H74.186C74.0744 21.8373 73.9548 22.0206 73.8113 22.1322C73.6279 22.2678 73.3888 22.3395 73.0938 22.3395C72.759 22.3395 72.4959 22.2279 72.3046 22.0206C72.1132 21.8054 72.0096 21.4945 71.9777 21.0959H75.1028C75.0948 20.3624 74.9274 19.7885 74.6085 19.3739C74.2577 18.9115 73.7395 18.6883 73.0699 18.6883ZM73.0938 19.3819C73.7635 19.3819 74.1381 19.7406 74.2179 20.4581H71.9937C72.0415 20.1073 72.1611 19.8443 72.3365 19.6609C72.5278 19.4696 72.7749 19.3819 73.0938 19.3819Z" fill="#7B7B7B"/>
<path d="M77.9126 18.6883C77.6575 18.6883 77.4263 18.7361 77.219 18.8477C77.0117 18.9514 76.8284 19.1029 76.6689 19.3101V18.7999H75.8239V22.9215H76.6689V20.4422C76.7008 20.1073 76.8204 19.8443 77.0117 19.6529C77.1871 19.4775 77.4023 19.3978 77.6415 19.3978C78.2793 19.3978 78.6061 19.7486 78.6061 20.4501V22.9215H79.4512V20.3784C79.4512 19.2463 78.933 18.6883 77.9126 18.6883Z" fill="#7B7B7B"/>
<path d="M83.1517 17.2294V22.9215H84.0206V20.5697H85.5592C85.8861 20.5697 86.1332 20.6335 86.3086 20.777C86.476 20.9205 86.5797 21.1437 86.6116 21.4626L86.6833 22.1721C86.7152 22.491 86.7949 22.7461 86.9304 22.9215H87.8711C87.6798 22.7142 87.5682 22.4352 87.5363 22.0844L87.4406 21.1756C87.3769 20.6175 87.0978 20.2827 86.5876 20.1711V20.1552C86.8985 20.0754 87.1457 19.908 87.329 19.6529C87.4885 19.4217 87.5682 19.1587 87.5682 18.8557C87.5682 18.3136 87.3928 17.907 87.042 17.62C86.7072 17.357 86.2448 17.2294 85.6708 17.2294H83.1517ZM84.0206 17.9708H85.5513C85.9499 17.9708 86.2369 18.0426 86.4282 18.194C86.6036 18.3375 86.6992 18.5687 86.6992 18.8876C86.6992 19.1905 86.6036 19.4217 86.4202 19.5812C86.2289 19.7406 85.9419 19.8283 85.5592 19.8283H84.0206V17.9708Z" fill="#7B7B7B"/>
<path d="M88.5917 18.7999V21.3669C88.5917 22.475 89.086 23.0331 90.0825 23.0331C90.6007 23.0331 91.0311 22.8099 91.3819 22.3634V22.9215H92.227V18.7999H91.3819V21.3191C91.3102 21.622 91.1746 21.8692 90.9833 22.0525C90.792 22.2279 90.5927 22.3236 90.3695 22.3236C90.0426 22.3236 89.8034 22.2359 89.6599 22.0764C89.5085 21.917 89.4367 21.6619 89.4367 21.3111V18.7999H88.5917Z" fill="#7B7B7B"/>
<path d="M93.7907 17.1497C93.6233 17.1497 93.4877 17.1975 93.3761 17.3091C93.2645 17.4128 93.2087 17.5483 93.2087 17.7157C93.2087 17.8751 93.2645 18.0186 93.3761 18.1303C93.4877 18.2339 93.6233 18.2897 93.7907 18.2897C93.9501 18.2897 94.0936 18.2339 94.2052 18.1303C94.3168 18.0186 94.3806 17.8831 94.3806 17.7157C94.3806 17.5483 94.3248 17.4128 94.2132 17.3091C94.1016 17.1975 93.9581 17.1497 93.7907 17.1497ZM93.3681 18.7999V22.9215H94.2132V18.7999H93.3681Z" fill="#7B7B7B"/>
<path d="M100.356 17.2294V21.056C100.356 21.4785 100.276 21.7815 100.132 21.9728C99.9809 22.1641 99.7418 22.2678 99.407 22.2678C98.817 22.2678 98.5221 21.925 98.5221 21.2473V21.064H97.6531V21.2553C97.6531 21.8134 97.8046 22.2439 98.1075 22.5627C98.3945 22.8737 98.825 23.0331 99.391 23.0331C100.045 23.0331 100.523 22.8577 100.826 22.5229C101.089 22.204 101.225 21.7257 101.225 21.0879V17.2294H100.356Z" fill="#7B7B7B"/>
<path d="M102.86 17.1497C102.693 17.1497 102.558 17.1975 102.446 17.3091C102.334 17.4128 102.279 17.5483 102.279 17.7157C102.279 17.8751 102.334 18.0186 102.446 18.1303C102.558 18.2339 102.693 18.2897 102.86 18.2897C103.02 18.2897 103.163 18.2339 103.275 18.1303C103.387 18.0186 103.45 17.8831 103.45 17.7157C103.45 17.5483 103.395 17.4128 103.283 17.3091C103.171 17.1975 103.028 17.1497 102.86 17.1497ZM102.438 18.7999V22.9215H103.283V18.7999H102.438Z" fill="#7B7B7B"/>
<path d="M106.284 18.6883C105.742 18.6883 105.32 18.784 105.017 18.9912C104.666 19.2224 104.459 19.5812 104.395 20.0754H105.232C105.264 19.8363 105.376 19.6529 105.559 19.5333C105.718 19.4217 105.942 19.3739 106.229 19.3739C106.85 19.3739 107.161 19.6609 107.161 20.2349V20.3385L106.237 20.3465C105.671 20.3465 105.216 20.4581 104.881 20.6654C104.467 20.9205 104.267 21.3031 104.267 21.8213C104.267 22.1881 104.395 22.483 104.65 22.7062C104.897 22.9215 105.232 23.0331 105.663 23.0331C106.021 23.0331 106.34 22.9693 106.611 22.8418C106.85 22.7142 107.058 22.5468 107.217 22.3395V22.9215H107.998V20.2907C107.998 19.7885 107.871 19.4058 107.624 19.1427C107.337 18.8398 106.89 18.6883 106.284 18.6883ZM107.161 20.9843V21.1995C107.161 21.5503 107.042 21.8293 106.803 22.0446C106.555 22.2518 106.237 22.3634 105.854 22.3634C105.615 22.3634 105.439 22.3076 105.32 22.204C105.192 22.0924 105.136 21.9569 105.136 21.7974C105.136 21.2633 105.519 20.9922 106.292 20.9922L107.161 20.9843Z" fill="#7B7B7B"/>
<path d="M111.054 18.6883C110.799 18.6883 110.568 18.7361 110.361 18.8477C110.154 18.9514 109.97 19.1029 109.811 19.3101V18.7999H108.966V22.9215H109.811V20.4422C109.843 20.1073 109.962 19.8443 110.154 19.6529C110.329 19.4775 110.544 19.3978 110.783 19.3978C111.421 19.3978 111.748 19.7486 111.748 20.4501V22.9215H112.593V20.3784C112.593 19.2463 112.075 18.6883 111.054 18.6883Z" fill="#7B7B7B"/>
<path d="M118.765 17.1178C117.856 17.1178 117.17 17.4128 116.692 18.0186C116.262 18.5528 116.054 19.2384 116.054 20.0834C116.054 20.9444 116.254 21.63 116.668 22.1402C117.139 22.7302 117.84 23.0331 118.773 23.0331C119.387 23.0331 119.913 22.8577 120.351 22.5069C120.822 22.1322 121.117 21.6141 121.244 20.9524H120.399C120.287 21.3988 120.088 21.7336 119.801 21.9569C119.53 22.1641 119.179 22.2678 118.765 22.2678C118.127 22.2678 117.657 22.0685 117.354 21.6699C117.067 21.2952 116.923 20.769 116.923 20.0834C116.923 19.4217 117.067 18.8956 117.362 18.5129C117.673 18.0904 118.135 17.8831 118.749 17.8831C119.163 17.8831 119.498 17.9708 119.769 18.1542C120.04 18.3375 120.224 18.6245 120.319 19.0072H121.164C121.077 18.4332 120.822 17.9708 120.407 17.636C119.977 17.2852 119.427 17.1178 118.765 17.1178Z" fill="#7B7B7B"/>
<path d="M123.942 18.6883C123.32 18.6883 122.818 18.8956 122.444 19.3101C122.069 19.7167 121.885 20.2349 121.885 20.8647C121.885 21.4865 122.069 22.0047 122.436 22.4033C122.818 22.8178 123.32 23.0331 123.942 23.0331C124.564 23.0331 125.066 22.8178 125.449 22.4033C125.816 22.0047 125.999 21.4865 125.999 20.8647C125.999 20.2349 125.808 19.7167 125.441 19.3101C125.066 18.8956 124.564 18.6883 123.942 18.6883ZM123.942 19.3819C124.333 19.3819 124.636 19.5333 124.859 19.8443C125.05 20.1073 125.146 20.4501 125.146 20.8647C125.146 21.2713 125.05 21.6061 124.859 21.8771C124.636 22.1801 124.333 22.3395 123.942 22.3395C123.552 22.3395 123.249 22.1801 123.033 21.8771C122.842 21.6141 122.754 21.2792 122.754 20.8647C122.754 20.4501 122.842 20.1073 123.033 19.8443C123.249 19.5333 123.552 19.3819 123.942 19.3819Z" fill="#7B7B7B"/>
<path d="M128.89 18.6883C128.635 18.6883 128.404 18.7361 128.197 18.8477C127.99 18.9514 127.806 19.1029 127.647 19.3101V18.7999H126.802V22.9215H127.647V20.4422C127.679 20.1073 127.798 19.8443 127.99 19.6529C128.165 19.4775 128.38 19.3978 128.619 19.3978C129.257 19.3978 129.584 19.7486 129.584 20.4501V22.9215H130.429V20.3784C130.429 19.2463 129.911 18.6883 128.89 18.6883Z" fill="#7B7B7B"/>
<path d="M132.934 18.6883C132.439 18.6883 132.033 18.7919 131.722 19.0072C131.411 19.2145 131.259 19.5094 131.259 19.8841C131.259 20.2349 131.419 20.5139 131.738 20.7132C131.929 20.8408 132.272 20.9603 132.758 21.072C133.181 21.1676 133.46 21.2473 133.587 21.3111C133.826 21.4227 133.954 21.5822 133.954 21.7815C133.954 22.1482 133.619 22.3395 132.965 22.3395C132.647 22.3395 132.423 22.2837 132.28 22.1801C132.136 22.0685 132.033 21.8692 131.985 21.5901H131.156C131.252 22.5468 131.857 23.0331 132.989 23.0331C134.209 23.0331 134.823 22.5946 134.823 21.7257C134.823 21.359 134.656 21.072 134.329 20.8647C134.106 20.7212 133.755 20.5857 133.284 20.4741C132.87 20.3704 132.599 20.2907 132.455 20.2269C132.232 20.1233 132.12 20.0037 132.12 19.8602C132.12 19.7008 132.192 19.5732 132.344 19.4935C132.471 19.4138 132.663 19.3819 132.918 19.3819C133.205 19.3819 133.428 19.4297 133.571 19.5254C133.707 19.6131 133.803 19.7645 133.866 19.9878H134.687C134.592 19.1188 134.002 18.6883 132.934 18.6883Z" fill="#7B7B7B"/>
<path d="M136.788 17.4686L135.943 17.8193V18.7999H135.178V19.5015H135.943V21.8931C135.943 22.2199 136.015 22.4671 136.175 22.6425C136.334 22.8258 136.597 22.9215 136.948 22.9215H137.625V22.2199H137.083C136.98 22.2199 136.908 22.1881 136.86 22.1402C136.812 22.0844 136.788 22.0047 136.788 21.8931V19.5015H137.729V18.7999H136.788V17.4686Z" fill="#7B7B7B"/>
<path d="M140.323 18.6883C140.068 18.6883 139.844 18.7601 139.653 18.9195C139.494 19.0311 139.358 19.1985 139.255 19.4217V18.7999H138.41V22.9215H139.255V20.7371C139.255 20.3784 139.358 20.0834 139.573 19.8602C139.773 19.6529 140.004 19.5493 140.259 19.5493C140.45 19.5493 140.65 19.5732 140.857 19.637V18.7919C140.713 18.7202 140.53 18.6883 140.323 18.6883Z" fill="#7B7B7B"/>
<path d="M141.376 18.7999V21.3669C141.376 22.475 141.87 23.0331 142.866 23.0331C143.385 23.0331 143.815 22.8099 144.166 22.3634V22.9215H145.011V18.7999H144.166V21.3191C144.094 21.622 143.959 21.8692 143.767 22.0525C143.576 22.2279 143.377 22.3236 143.153 22.3236C142.827 22.3236 142.587 22.2359 142.444 22.0764C142.292 21.917 142.221 21.6619 142.221 21.3111V18.7999H141.376Z" fill="#7B7B7B"/>
<path d="M147.81 18.6883C147.173 18.6883 146.678 18.9035 146.32 19.334C145.985 19.7326 145.817 20.2429 145.817 20.8647C145.817 21.5025 145.985 22.0127 146.328 22.4113C146.678 22.8258 147.165 23.0331 147.794 23.0331C148.321 23.0331 148.751 22.8976 149.07 22.6345C149.389 22.3634 149.604 21.9489 149.7 21.3988H148.863C148.783 22.0206 148.432 22.3395 147.802 22.3395C147.436 22.3395 147.165 22.204 146.981 21.9489C146.782 21.6858 146.686 21.3191 146.686 20.8567C146.686 20.3943 146.782 20.0276 146.989 19.7725C147.189 19.5094 147.46 19.3819 147.81 19.3819C148.097 19.3819 148.329 19.4457 148.504 19.5812C148.679 19.7087 148.791 19.916 148.847 20.195H149.684C149.604 19.6848 149.397 19.3022 149.078 19.047C148.759 18.8079 148.337 18.6883 147.81 18.6883Z" fill="#7B7B7B"/>
<path d="M151.674 17.4686L150.829 17.8193V18.7999H150.063V19.5015H150.829V21.8931C150.829 22.2199 150.9 22.4671 151.06 22.6425C151.219 22.8258 151.482 22.9215 151.833 22.9215H152.511V22.2199H151.969C151.865 22.2199 151.793 22.1881 151.746 22.1402C151.698 22.0844 151.674 22.0047 151.674 21.8931V19.5015H152.614V18.7999H151.674V17.4686Z" fill="#7B7B7B"/>
<path d="M153.893 17.1497C153.725 17.1497 153.59 17.1975 153.478 17.3091C153.367 17.4128 153.311 17.5483 153.311 17.7157C153.311 17.8751 153.367 18.0186 153.478 18.1303C153.59 18.2339 153.725 18.2897 153.893 18.2897C154.052 18.2897 154.196 18.2339 154.307 18.1303C154.419 18.0186 154.483 17.8831 154.483 17.7157C154.483 17.5483 154.427 17.4128 154.315 17.3091C154.204 17.1975 154.06 17.1497 153.893 17.1497ZM153.47 18.7999V22.9215H154.315V18.7999H153.47Z" fill="#7B7B7B"/>
<path d="M157.357 18.6883C156.735 18.6883 156.233 18.8956 155.858 19.3101C155.483 19.7167 155.3 20.2349 155.3 20.8647C155.3 21.4865 155.483 22.0047 155.85 22.4033C156.233 22.8178 156.735 23.0331 157.357 23.0331C157.978 23.0331 158.481 22.8178 158.863 22.4033C159.23 22.0047 159.413 21.4865 159.413 20.8647C159.413 20.2349 159.222 19.7167 158.855 19.3101C158.481 18.8956 157.978 18.6883 157.357 18.6883ZM157.357 19.3819C157.747 19.3819 158.05 19.5333 158.273 19.8443C158.465 20.1073 158.56 20.4501 158.56 20.8647C158.56 21.2713 158.465 21.6061 158.273 21.8771C158.05 22.1801 157.747 22.3395 157.357 22.3395C156.966 22.3395 156.663 22.1801 156.448 21.8771C156.256 21.6141 156.169 21.2792 156.169 20.8647C156.169 20.4501 156.256 20.1073 156.448 19.8443C156.663 19.5333 156.966 19.3819 157.357 19.3819Z" fill="#7B7B7B"/>
<path d="M162.305 18.6883C162.05 18.6883 161.818 18.7361 161.611 18.8477C161.404 18.9514 161.22 19.1029 161.061 19.3101V18.7999H160.216V22.9215H161.061V20.4422C161.093 20.1073 161.213 19.8443 161.404 19.6529C161.579 19.4775 161.794 19.3978 162.034 19.3978C162.671 19.3978 162.998 19.7486 162.998 20.4501V22.9215H163.843V20.3784C163.843 19.2463 163.325 18.6883 162.305 18.6883Z" fill="#7B7B7B"/>
<path d="M170.007 17.1178C169.17 17.1178 168.5 17.4048 168.006 17.9947C167.536 18.5448 167.305 19.2463 167.305 20.0994C167.305 20.9444 167.536 21.638 168.006 22.1721C168.508 22.7461 169.21 23.0331 170.119 23.0331C170.613 23.0331 171.067 22.9693 171.482 22.8418C171.873 22.7142 172.215 22.5388 172.51 22.3076V19.916H170.071V20.6574H171.641V21.8931C171.45 22.0127 171.243 22.1083 171.004 22.1721C170.757 22.2359 170.493 22.2757 170.214 22.2757C169.505 22.2757 168.979 22.0764 168.644 21.6778C168.325 21.3111 168.174 20.785 168.174 20.0994C168.174 19.3978 168.341 18.8477 168.692 18.4491C169.019 18.0665 169.457 17.8831 170.007 17.8831C170.454 17.8831 170.82 17.9788 171.091 18.1781C171.362 18.3694 171.538 18.6564 171.618 19.0391H172.494C172.391 18.4013 172.136 17.931 171.729 17.6121C171.307 17.2772 170.733 17.1178 170.007 17.1178Z" fill="#7B7B7B"/>
<path d="M175.388 18.6883C175.132 18.6883 174.909 18.7601 174.718 18.9195C174.558 19.0311 174.423 19.1985 174.319 19.4217V18.7999H173.474V22.9215H174.319V20.7371C174.319 20.3784 174.423 20.0834 174.638 19.8602C174.838 19.6529 175.069 19.5493 175.324 19.5493C175.515 19.5493 175.714 19.5732 175.922 19.637V18.7919C175.778 18.7202 175.595 18.6883 175.388 18.6883Z" fill="#7B7B7B"/>
<path d="M178.338 18.6883C177.716 18.6883 177.214 18.8956 176.839 19.3101C176.464 19.7167 176.281 20.2349 176.281 20.8647C176.281 21.4865 176.464 22.0047 176.831 22.4033C177.214 22.8178 177.716 23.0331 178.338 23.0331C178.96 23.0331 179.462 22.8178 179.845 22.4033C180.211 22.0047 180.395 21.4865 180.395 20.8647C180.395 20.2349 180.203 19.7167 179.837 19.3101C179.462 18.8956 178.96 18.6883 178.338 18.6883ZM178.338 19.3819C178.728 19.3819 179.031 19.5333 179.255 19.8443C179.446 20.1073 179.542 20.4501 179.542 20.8647C179.542 21.2713 179.446 21.6061 179.255 21.8771C179.031 22.1801 178.728 22.3395 178.338 22.3395C177.947 22.3395 177.644 22.1801 177.429 21.8771C177.238 21.6141 177.15 21.2792 177.15 20.8647C177.15 20.4501 177.238 20.1073 177.429 19.8443C177.644 19.5333 177.947 19.3819 178.338 19.3819Z" fill="#7B7B7B"/>
<path d="M181.197 18.7999V21.3669C181.197 22.475 181.692 23.0331 182.688 23.0331C183.206 23.0331 183.637 22.8099 183.987 22.3634V22.9215H184.833V18.7999H183.987V21.3191C183.916 21.622 183.78 21.8692 183.589 22.0525C183.398 22.2279 183.198 22.3236 182.975 22.3236C182.648 22.3236 182.409 22.2359 182.266 22.0764C182.114 21.917 182.042 21.6619 182.042 21.3111V18.7999H181.197Z" fill="#7B7B7B"/>
<path d="M187.863 18.6883C187.305 18.6883 186.875 18.8876 186.588 19.2942V18.7999H185.798V24.5H186.643V22.3156C186.978 22.7939 187.393 23.0331 187.903 23.0331C188.493 23.0331 188.963 22.8178 189.298 22.3874C189.609 21.9887 189.768 21.4865 189.768 20.8806C189.768 20.2429 189.609 19.7326 189.29 19.334C188.939 18.9035 188.469 18.6883 187.863 18.6883ZM187.736 19.3739C188.15 19.3739 188.453 19.5174 188.652 19.8203C188.812 20.0754 188.899 20.4262 188.899 20.8806C188.899 21.335 188.804 21.6858 188.628 21.9409C188.429 22.212 188.126 22.3475 187.712 22.3475C187.393 22.3475 187.138 22.2199 186.946 21.9728C186.723 21.7018 186.619 21.343 186.619 20.9045V20.8328C186.619 20.4103 186.707 20.0675 186.883 19.8124C187.082 19.5174 187.369 19.3739 187.736 19.3739Z" fill="#7B7B7B"/>
<path d="M195.051 18.6883C194.413 18.6883 193.919 18.9035 193.56 19.334C193.226 19.7326 193.058 20.2429 193.058 20.8647C193.058 21.5025 193.226 22.0127 193.568 22.4113C193.919 22.8258 194.406 23.0331 195.035 23.0331C195.561 23.0331 195.992 22.8976 196.311 22.6345C196.63 22.3634 196.845 21.9489 196.941 21.3988H196.104C196.024 22.0206 195.673 22.3395 195.043 22.3395C194.677 22.3395 194.406 22.204 194.222 21.9489C194.023 21.6858 193.927 21.3191 193.927 20.8567C193.927 20.3943 194.023 20.0276 194.23 19.7725C194.429 19.5094 194.701 19.3819 195.051 19.3819C195.338 19.3819 195.569 19.4457 195.745 19.5812C195.92 19.7087 196.032 19.916 196.088 20.195H196.925C196.845 19.6848 196.638 19.3022 196.319 19.047C196 18.8079 195.577 18.6883 195.051 18.6883Z" fill="#7B7B7B"/>
<path d="M199.56 18.6883C198.939 18.6883 198.436 18.8956 198.062 19.3101C197.687 19.7167 197.504 20.2349 197.504 20.8647C197.504 21.4865 197.687 22.0047 198.054 22.4033C198.436 22.8178 198.939 23.0331 199.56 23.0331C200.182 23.0331 200.684 22.8178 201.067 22.4033C201.434 22.0047 201.617 21.4865 201.617 20.8647C201.617 20.2349 201.426 19.7167 201.059 19.3101C200.684 18.8956 200.182 18.6883 199.56 18.6883ZM199.56 19.3819C199.951 19.3819 200.254 19.5333 200.477 19.8443C200.669 20.1073 200.764 20.4501 200.764 20.8647C200.764 21.2713 200.669 21.6061 200.477 21.8771C200.254 22.1801 199.951 22.3395 199.56 22.3395C199.17 22.3395 198.867 22.1801 198.652 21.8771C198.46 21.6141 198.373 21.2792 198.373 20.8647C198.373 20.4501 198.46 20.1073 198.652 19.8443C198.867 19.5333 199.17 19.3819 199.56 19.3819Z" fill="#7B7B7B"/>
<path d="M203.026 21.7815C202.858 21.7815 202.723 21.8293 202.611 21.9409C202.5 22.0446 202.444 22.1801 202.444 22.3475C202.444 22.5069 202.5 22.6425 202.611 22.7541C202.723 22.8657 202.858 22.9215 203.026 22.9215C203.185 22.9215 203.329 22.8657 203.44 22.762C203.552 22.6504 203.616 22.5149 203.616 22.3475C203.616 22.1801 203.56 22.0446 203.448 21.9409C203.337 21.8293 203.193 21.7815 203.026 21.7815Z" fill="#7B7B7B"/>
<path d="M205.15 21.7894C204.991 21.7894 204.847 21.8373 204.735 21.9409C204.624 22.0446 204.568 22.1881 204.568 22.3634C204.568 22.5229 204.624 22.6504 204.735 22.762C204.847 22.8657 204.991 22.9215 205.15 22.9215C205.206 22.9215 205.254 22.9135 205.301 22.9055C205.254 23.344 205.006 23.7107 204.544 23.9977L204.807 24.4202C205.501 24.0456 205.852 23.4795 205.852 22.7142C205.852 22.0924 205.612 21.7894 205.15 21.7894Z" fill="#7B7B7B"/>
<path d="M209.514 17.1178V22.9215H210.359V17.1178H209.514Z" fill="#7B7B7B"/>
<path d="M212.663 17.4686L211.818 17.8193V18.7999H211.053V19.5015H211.818V21.8931C211.818 22.2199 211.89 22.4671 212.05 22.6425C212.209 22.8258 212.472 22.9215 212.823 22.9215H213.501V22.2199H212.958C212.855 22.2199 212.783 22.1881 212.735 22.1402C212.687 22.0844 212.663 22.0047 212.663 21.8931V19.5015H213.604V18.7999H212.663V17.4686Z" fill="#7B7B7B"/>
<path d="M217.25 17.1178V19.4138C216.915 18.9275 216.493 18.6883 215.991 18.6883C215.401 18.6883 214.93 18.9035 214.595 19.334C214.277 19.7326 214.125 20.2349 214.125 20.8408C214.125 21.4706 214.285 21.9887 214.603 22.3874C214.946 22.8178 215.425 23.0331 216.03 23.0331C216.589 23.0331 217.019 22.8258 217.306 22.4272V22.9215H218.095V17.1178H217.25ZM216.182 19.3739C216.493 19.3739 216.748 19.4935 216.955 19.7486C217.163 20.0196 217.274 20.3784 217.274 20.8248V20.8966C217.274 21.3111 217.186 21.6459 217.011 21.909C216.804 22.196 216.525 22.3475 216.158 22.3475C215.743 22.3475 215.433 22.196 215.241 21.9011C215.074 21.6459 214.994 21.2952 214.994 20.8408C214.994 20.3864 215.082 20.0356 215.257 19.7964C215.456 19.5094 215.767 19.3739 216.182 19.3739Z" fill="#7B7B7B"/>
<path fill-rule="evenodd" clip-rule="evenodd" d="M0.5 0.5H7.3989H18.3222V2.79955H21.1966V10.2734H17.7471V12.5729H17.7476V15.4475H17.7471V15.4476H14.8726V15.4475H11.4236V12.573H7.3989V22.9214H0.5V2.79963V0.5ZM14.8726 2.79963V9.69852V10.2734V10.8482H7.3989V2.79963H14.8726ZM24.0711 15.4477H14.8726V22.9215H24.0711V22.9213H31.5447V20.6218H34.9941V0.5H28.0952V20.6217H24.0711V15.4477Z" fill="white"/>
</svg>
