<svg width="85" height="82" viewBox="0 0 85 82" fill="none" xmlns="http://www.w3.org/2000/svg">
<path d="M34.2926 57.9254C34.0729 66.0198 30.3187 70.1037 23.03 70.1769C15.7047 70.1037 11.9689 66.0198 11.8223 57.9254V23.9728C11.9689 15.9516 15.7047 11.8678 23.03 11.7213C30.3187 11.8678 34.0729 15.9516 34.2926 23.9728V57.9254ZM0.339989 58.5847C0.413242 65.9466 2.77564 71.6237 7.42719 75.6159C11.7857 79.5716 16.9867 81.586 23.03 81.6593C29.2565 81.586 34.549 79.5716 38.9075 75.6159C43.3393 71.6237 45.6285 65.9466 45.775 58.5847V23.2586C45.6285 15.86 43.3393 10.1647 38.9075 6.17238C34.549 2.21673 29.2565 0.238912 23.03 0.238912C16.9867 0.238912 11.7857 2.21673 7.42719 6.17238C2.77564 10.1647 0.413242 15.86 0.339989 23.2586V58.5847ZM72.6958 13.0398V81H84.1782V0.898186H72.6958L61.3233 9.19405V21.3906L72.6958 13.0398Z" fill="white"/>
</svg>
