<svg width="59" height="56" viewBox="0 0 59 56" fill="none" xmlns="http://www.w3.org/2000/svg">
<path d="M50.4414 28.5C50.4414 39.8218 41.2632 49 29.9414 49C18.6196 49 9.44141 39.8218 9.44141 28.5C9.44141 17.1782 18.6196 8 29.9414 8C34.4232 8 38.5692 9.43825 41.9428 11.8784" stroke="black" stroke-width="1.26935"/>
<path d="M28.2922 30.175C17.1981 36.0362 4.6298 37.2582 2.98526 34.1454C2.22256 32.7018 3.46127 30.3629 6.11572 27.685" stroke="black" stroke-width="1.26935"/>
<path d="M29.4931 27.1676L24.4094 23.2226C23.8766 22.8092 23.7841 22.0401 24.2037 21.5121C24.5496 21.0769 25.1474 20.9329 25.6535 21.1631L28.6281 22.5161C30.0881 23.1801 31.7678 23.1602 33.2116 22.4616L35.6738 21.2702C36.1968 21.0171 36.3418 20.3394 35.9682 19.8945L32.6413 15.932C31.954 15.1134 32.2028 13.8687 33.1519 13.3771C33.6111 13.1393 34.1546 13.1278 34.6234 13.3459L40.6855 16.1667C42.9992 17.2432 45.6599 17.2928 48.0121 16.3031L53.2906 14.0821C54.7355 13.4742 56.4039 14.0962 57.0981 15.5017C57.8349 16.9935 57.1999 18.7995 55.6915 19.5018L37.3316 28.0499C34.7597 29.2473 31.7344 28.9068 29.4931 27.1676Z" stroke="black" stroke-width="1.27"/>
</svg>
