<svg width="16" height="16" viewBox="0 0 16 16" fill="none" xmlns="http://www.w3.org/2000/svg">
<path d="M7.99967 1.33325C5.41967 1.33325 3.33301 3.41992 3.33301 5.99992C3.33301 9.49992 7.99967 14.6666 7.99967 14.6666C7.99967 14.6666 12.6663 9.49992 12.6663 5.99992C12.6663 3.41992 10.5797 1.33325 7.99967 1.33325ZM7.99967 7.66659C7.55765 7.66659 7.13372 7.49099 6.82116 7.17843C6.5086 6.86587 6.33301 6.44195 6.33301 5.99992C6.33301 5.55789 6.5086 5.13397 6.82116 4.82141C7.13372 4.50885 7.55765 4.33325 7.99967 4.33325C8.4417 4.33325 8.86563 4.50885 9.17819 4.82141C9.49075 5.13397 9.66634 5.55789 9.66634 5.99992C9.66634 6.44195 9.49075 6.86587 9.17819 7.17843C8.86563 7.49099 8.4417 7.66659 7.99967 7.66659Z" fill="#ACACAC"/>
</svg>
