<svg width="275" height="37" viewBox="0 0 275 37" fill="none" xmlns="http://www.w3.org/2000/svg">
<path d="M62.968 4.2L62.344 4.808C63.64 5.704 64.664 6.552 65.432 7.352L66.056 6.728C65.224 5.896 64.2 5.048 62.968 4.2ZM62.584 7.96L61.96 8.552C63.192 9.448 64.168 10.312 64.888 11.112L65.496 10.504C64.712 9.656 63.736 8.808 62.584 7.96ZM65.096 12.392C64.296 14.312 63.368 16.2 62.296 18.04L63.144 18.408C64.136 16.616 65.048 14.728 65.864 12.712L65.096 12.392ZM69.72 12.52C68.92 14.296 67.592 15.752 65.768 16.872L66.216 17.624C68.2 16.28 69.592 14.584 70.424 12.52H70.68V18.504H71.544V12.52H71.8C72.536 14.344 73.832 15.992 75.704 17.48L76.264 16.776C74.504 15.528 73.24 14.104 72.504 12.52H75.672V11.688H71.544V9.752H70.68V11.688H66.728V12.52H69.72ZM75.48 4.664H66.776V7.544H67.608V5.48H74.648V7.512H75.48V4.664ZM69.608 6.696C68.968 8.008 68.024 9.032 66.808 9.8L67.432 10.344C68.632 9.576 69.608 8.456 70.344 6.984L69.608 6.696ZM72.36 6.616L71.72 7.016C72.872 8.2 73.768 9.288 74.424 10.28L75.112 9.8C74.488 8.872 73.576 7.816 72.36 6.616ZM78.3658 8.312V9.176H80.5098V15.08C79.7578 15.304 78.9898 15.512 78.1898 15.672L78.4138 16.536C80.3018 16.056 82.0778 15.464 83.7098 14.744V13.88C82.9578 14.216 82.1738 14.52 81.3738 14.808V9.176H83.3898V8.312H81.3738V4.088H80.5098V8.312H78.3658ZM88.0778 5.08V17.512H88.8938V5.08H88.0778ZM91.2618 4.28V18.552H92.0778V4.28H91.2618ZM84.9578 4.328V10.648C84.9258 14.056 84.1418 16.536 82.5738 18.088L83.2458 18.664C84.9098 16.968 85.7578 14.296 85.7898 10.648V4.328H84.9578ZM94.8355 5.896V6.744H101.444V9.112H96.4355V16.296H97.2835V9.928H101.444V18.52H102.308V9.928H106.66V14.616C106.66 15.128 106.404 15.4 105.908 15.4L104.372 15.368L104.612 16.2H106.196C107.076 16.2 107.524 15.736 107.524 14.808V9.112H102.308V6.744H108.916V5.896H102.404C102.132 5.096 101.844 4.392 101.54 3.784L100.628 3.944C100.948 4.52 101.252 5.176 101.524 5.896H94.8355ZM111.481 9.992V10.824H113.321V15.432C112.617 15.656 111.913 15.848 111.193 16.008L111.385 16.84C113.113 16.392 114.713 15.848 116.201 15.176V14.344C115.545 14.632 114.857 14.904 114.153 15.16V10.824H115.849V9.992H114.153V5.96H116.041V5.144H111.273V5.96H113.321V9.992H111.481ZM123.801 7.16H121.337V3.992H120.473V7.16H118.041V4.632H117.193V7.944H124.649V4.632H123.801V7.16ZM116.441 9.496V10.328H120.377C120.265 10.936 120.089 11.512 119.833 12.072H116.969V18.504H117.769V12.872H119.449V18.2H120.201V12.872H121.737V18.184H122.473V12.872H124.201V17.32C124.201 17.608 124.073 17.752 123.817 17.752L123.129 17.72L123.353 18.504H124.073C124.665 18.504 124.969 18.152 124.969 17.48V12.072H120.665C120.921 11.528 121.113 10.936 121.241 10.328H125.513V9.496H116.441ZM140.607 10.408V8.152H141.775V7.416H140.607V5.16H137.183V3.944H136.319V5.16H133.407V5.912H136.319V7.416H132.623V8.152H136.319V9.64H133.407V10.408H136.319V11.88H133.071V12.632H136.319V14.216H132.591V14.968H136.319V16.76H137.183V14.968H141.487V14.216H137.183V12.632H141.039V11.88H137.183V10.408H140.607ZM137.183 5.912H139.775V7.416H137.183V5.912ZM137.183 8.152H139.775V9.64H137.183V8.152ZM136.655 17.384C134.415 17.352 132.735 17.032 131.615 16.408C131.295 16.216 130.975 15.96 130.687 15.624C131.503 14.136 131.951 12.328 132.015 10.2V9.656H129.343C130.175 8.52 131.023 7.176 131.887 5.608V4.888H128.095V5.72H130.911C130.079 7.16 129.183 8.52 128.207 9.784V10.456H131.199C131.103 12.152 130.751 13.624 130.143 14.856C129.679 14.088 129.263 13.08 128.895 11.832L128.175 12.104C128.575 13.528 129.087 14.696 129.727 15.592C129.215 16.392 128.543 17.08 127.743 17.656L128.303 18.376C129.071 17.784 129.743 17.08 130.287 16.28C130.479 16.504 130.703 16.696 130.943 16.888C132.159 17.72 134.191 18.152 137.039 18.152H141.807L141.967 17.32C140.143 17.352 138.367 17.384 136.655 17.384ZM157.045 10.408V8.152H158.213V7.416H157.045V5.16H153.621V3.944H152.757V5.16H149.845V5.912H152.757V7.416H149.061V8.152H152.757V9.64H149.845V10.408H152.757V11.88H149.509V12.632H152.757V14.216H149.029V14.968H152.757V16.76H153.621V14.968H157.925V14.216H153.621V12.632H157.477V11.88H153.621V10.408H157.045ZM153.621 5.912H156.213V7.416H153.621V5.912ZM153.621 8.152H156.213V9.64H153.621V8.152ZM153.093 17.384C150.853 17.352 149.173 17.032 148.053 16.408C147.733 16.216 147.413 15.96 147.125 15.624C147.941 14.136 148.389 12.328 148.453 10.2V9.656H145.781C146.613 8.52 147.461 7.176 148.325 5.608V4.888H144.533V5.72H147.349C146.517 7.16 145.621 8.52 144.645 9.784V10.456H147.637C147.541 12.152 147.189 13.624 146.581 14.856C146.117 14.088 145.701 13.08 145.333 11.832L144.613 12.104C145.013 13.528 145.525 14.696 146.165 15.592C145.653 16.392 144.981 17.08 144.181 17.656L144.741 18.376C145.509 17.784 146.181 17.08 146.725 16.28C146.917 16.504 147.141 16.696 147.381 16.888C148.597 17.72 150.629 18.152 153.477 18.152H158.245L158.405 17.32C156.581 17.352 154.805 17.384 153.093 17.384ZM161.995 4.232L161.403 4.808C162.555 5.688 163.451 6.52 164.123 7.32L164.731 6.712C163.995 5.88 163.083 5.064 161.995 4.232ZM160.379 8.984V9.832H162.699V16.552C162.699 16.776 162.587 16.968 162.395 17.16L162.731 17.944C163.835 17.208 164.875 16.392 165.835 15.48L165.611 14.552C164.875 15.256 164.187 15.864 163.563 16.344V8.984H160.379ZM166.059 10.84V11.672H166.907C167.371 13.16 168.267 14.488 169.579 15.64C168.363 16.536 166.827 17.272 164.987 17.848L165.467 18.568C167.371 17.992 168.971 17.208 170.267 16.216C171.419 17.096 172.859 17.88 174.603 18.568L175.067 17.832C173.403 17.224 172.011 16.504 170.891 15.688C172.139 14.584 173.019 13.24 173.563 11.64V10.84H166.059ZM167.755 11.672H172.699C172.171 13 171.339 14.152 170.203 15.144C169.019 14.136 168.203 12.984 167.755 11.672ZM167.371 4.664V6.216C167.371 7.608 166.651 8.68 165.227 9.448L165.819 10.104C167.419 9.176 168.235 7.848 168.235 6.136V5.48H171.659V8.36C171.659 9.208 172.091 9.64 172.987 9.64H174.683V8.84H173.163C172.731 8.84 172.523 8.632 172.523 8.216V4.664H167.371ZM182.432 14.6C181.488 15.672 179.696 16.632 177.04 17.464L177.504 18.216C180.336 17.208 182.256 16.008 183.248 14.6H183.68V18.584H184.544V14.6H184.944C186.064 16.056 187.984 17.24 190.72 18.136L191.088 17.368C188.656 16.696 186.896 15.768 185.792 14.6H190.912V13.784H184.544V12.824H183.68V13.784H177.216V14.6H182.432ZM178.848 7.64V12.312H190.448V11.56H184.96V10.2H189.6V9.496H184.96V8.248H189.6V7.544H184.96V6.264H190.16V5.496H184.88C184.672 4.904 184.448 4.36 184.224 3.88L183.36 4.04C183.6 4.472 183.824 4.952 184.048 5.496H180.304C180.528 5.064 180.736 4.616 180.912 4.152L180.112 3.944C179.376 5.72 178.288 7.256 176.816 8.568L177.264 9.256C177.84 8.744 178.368 8.2 178.848 7.64ZM184.112 11.56H179.664V10.2H184.112V11.56ZM184.112 9.496H179.664V8.248H184.112V9.496ZM184.112 7.544H179.664V6.568C179.728 6.472 179.792 6.36 179.856 6.264H184.112V7.544ZM196.406 8.584V9.368H201.126C199.926 11.272 198.262 12.776 196.134 13.896L196.598 14.648C198.838 13.368 200.598 11.608 201.862 9.368H201.878V14.216C201.878 14.728 201.638 15 201.174 15C200.63 15 200.054 14.968 199.478 14.936L199.654 15.736H201.462C202.278 15.736 202.694 15.288 202.694 14.424V9.368H204.79V8.584H202.694V6.52H201.878V8.584H196.406ZM206.854 4.76H194.15V18.568H194.982V17.768H206.022V18.568H206.854V4.76ZM194.982 16.968V5.56H206.022V16.968H194.982ZM214.38 9.56H221.036V11.544H214.38V9.56ZM221.036 12.328V14.28H214.38V12.328H221.036ZM221.036 15.064V17.176C221.036 17.56 220.812 17.752 220.38 17.752C219.852 17.752 219.276 17.736 218.652 17.72L218.86 18.504H220.652C221.452 18.488 221.868 18.136 221.868 17.432V8.792H214.316C214.748 8.12 215.148 7.416 215.516 6.68H223.98V5.848H215.884C216.124 5.256 216.348 4.632 216.54 3.976L215.66 3.88C215.452 4.552 215.212 5.208 214.924 5.848H210.076V6.68H214.524C213.404 8.888 211.772 10.84 209.66 12.52L210.204 13.24C211.484 12.216 212.604 11.08 213.564 9.848V18.536H214.38V15.064H221.036ZM226.834 4.696V18.568H227.698V5.512H230.658C230.242 6.888 229.65 8.44 228.882 10.152C230.018 11.512 230.594 12.744 230.594 13.848C230.594 14.232 230.466 14.504 230.21 14.664C229.97 14.824 229.49 14.92 228.77 14.952C228.642 14.952 228.482 14.936 228.306 14.904L228.578 15.8C229.698 15.784 230.482 15.592 230.93 15.24C231.266 14.952 231.442 14.488 231.458 13.848C231.378 12.664 230.818 11.384 229.778 10.024C230.45 8.424 231.042 6.888 231.554 5.384V4.696H226.834ZM233.298 8.456H238.386V10.536H233.298V8.456ZM238.386 7.672H233.298V5.544H238.386V7.672ZM235.41 11.336C235.986 14.36 237.602 16.728 240.29 18.424L240.77 17.672C239.49 16.904 238.45 15.976 237.682 14.856C238.658 14.376 239.522 13.672 240.274 12.744L239.714 12.184C238.946 13.112 238.13 13.784 237.266 14.216C236.77 13.352 236.418 12.392 236.21 11.336H239.25V4.712H232.434V17.208C232.434 17.368 232.338 17.464 232.146 17.528L232.338 18.28C234.066 17.816 235.49 17.336 236.61 16.824L236.402 15.992C235.378 16.488 234.354 16.888 233.298 17.176V11.336H235.41ZM247.287 4.136C246.231 7.256 244.663 9.736 242.599 11.56L243.271 12.152C245.255 10.392 246.871 7.816 248.103 4.456L247.287 4.136ZM252.359 12.584L251.575 12.856C252.231 13.8 252.855 14.84 253.431 15.992C251.111 16.392 248.583 16.696 245.831 16.888C247.271 15.288 248.711 12.904 250.167 9.736L249.319 9.448C247.447 13.592 245.815 16.088 244.407 16.952L244.567 17.768C247.975 17.544 251.063 17.192 253.815 16.744C254.087 17.304 254.359 17.896 254.631 18.52L255.447 18.168C254.583 16.184 253.543 14.328 252.359 12.584ZM252.103 4.024L251.367 4.44C252.327 7.608 254.039 10.184 256.471 12.184L257.063 11.48C254.695 9.56 253.047 7.064 252.103 4.024ZM260.733 10.856V15.592H267.581V10.856H260.733ZM266.749 14.792H261.565V11.656H266.749V14.792ZM270.429 18.456C271.453 18.456 271.965 17.912 271.965 16.84V4.744H260.109V5.576H271.101V16.616C271.101 17.304 270.813 17.656 270.253 17.656L268.029 17.624L268.253 18.456H270.429ZM259.613 7.864V8.68H269.229V7.864H259.613Z" fill="white"/>
<path d="M65.754 27.448C65.106 27.448 64.566 27.583 64.152 27.862C63.684 28.159 63.459 28.582 63.459 29.14C63.459 29.662 63.702 30.067 64.197 30.346C64.413 30.472 64.908 30.643 65.673 30.859C66.402 31.057 66.87 31.228 67.086 31.354C67.518 31.597 67.743 31.939 67.743 32.38C67.743 32.758 67.563 33.064 67.221 33.289C66.87 33.505 66.411 33.622 65.844 33.622C65.25 33.622 64.791 33.487 64.467 33.226C64.107 32.929 63.9 32.479 63.837 31.876H63.297C63.351 32.65 63.621 33.235 64.107 33.622C64.53 33.955 65.115 34.126 65.853 34.126C66.582 34.126 67.167 33.973 67.608 33.667C68.067 33.343 68.301 32.902 68.301 32.353C68.301 31.768 68.031 31.318 67.5 31.003C67.212 30.823 66.663 30.625 65.844 30.391C65.214 30.211 64.8 30.067 64.611 29.977C64.206 29.761 64.008 29.482 64.008 29.122C64.008 28.717 64.17 28.411 64.512 28.213C64.809 28.033 65.214 27.943 65.736 27.943C66.294 27.943 66.726 28.069 67.032 28.33C67.338 28.591 67.527 28.969 67.599 29.473H68.148C68.094 28.807 67.851 28.303 67.428 27.961C67.014 27.619 66.456 27.448 65.754 27.448ZM69.6034 27.448V34H70.1524V31.309C70.1524 30.85 70.2784 30.463 70.5484 30.157C70.8184 29.842 71.1424 29.689 71.5294 29.689C71.9434 29.689 72.2584 29.806 72.4924 30.049C72.7174 30.301 72.8344 30.652 72.8344 31.102V34H73.3744V31.03C73.3744 30.454 73.2214 30.004 72.9244 29.689C72.6274 29.374 72.2134 29.221 71.6824 29.221C71.3584 29.221 71.0614 29.302 70.8004 29.464C70.5304 29.635 70.3144 29.878 70.1524 30.193V27.448H69.6034ZM76.8265 29.221C76.1695 29.221 75.6475 29.464 75.2515 29.95C74.8645 30.418 74.6755 30.985 74.6755 31.669C74.6755 32.407 74.8735 33.01 75.2785 33.46C75.6655 33.901 76.1875 34.126 76.8445 34.126C77.4385 34.126 77.9155 33.955 78.2935 33.613C78.5995 33.325 78.8065 32.956 78.9145 32.506H78.3655C78.2485 32.866 78.0865 33.136 77.8705 33.325C77.6095 33.541 77.2675 33.658 76.8445 33.658C76.3585 33.658 75.9805 33.496 75.6925 33.172C75.4135 32.848 75.2605 32.398 75.2335 31.831H79.0135C78.9865 31.03 78.8065 30.409 78.4825 29.968C78.1135 29.464 77.5645 29.221 76.8265 29.221ZM76.8355 29.689C77.8165 29.689 78.3565 30.256 78.4465 31.39H75.2425C75.2875 30.886 75.4495 30.481 75.7285 30.166C76.0075 29.842 76.3765 29.689 76.8355 29.689ZM82.3659 29.221C82.0419 29.221 81.7449 29.293 81.4839 29.455C81.2229 29.617 81.0159 29.833 80.8539 30.112V29.347H80.3139V34H80.8539V31.192C80.8809 30.733 81.0249 30.364 81.2949 30.094C81.5469 29.824 81.8529 29.689 82.2309 29.689C83.1129 29.689 83.5539 30.184 83.5539 31.174V34H84.0939V31.138C84.0939 29.86 83.5179 29.221 82.3659 29.221ZM85.4128 29.347V29.815H88.3198L85.3228 33.577V34H89.1658V33.532H86.0158L89.0218 29.761V29.347H85.4128ZM90.3916 27.448V34H90.9406V31.309C90.9406 30.85 91.0666 30.463 91.3366 30.157C91.6066 29.842 91.9306 29.689 92.3176 29.689C92.7316 29.689 93.0466 29.806 93.2806 30.049C93.5056 30.301 93.6226 30.652 93.6226 31.102V34H94.1626V31.03C94.1626 30.454 94.0096 30.004 93.7126 29.689C93.4156 29.374 93.0016 29.221 92.4706 29.221C92.1466 29.221 91.8496 29.302 91.5886 29.464C91.3186 29.635 91.1026 29.878 90.9406 30.193V27.448H90.3916ZM97.6147 29.221C96.9577 29.221 96.4357 29.464 96.0397 29.95C95.6527 30.418 95.4637 30.985 95.4637 31.669C95.4637 32.407 95.6617 33.01 96.0667 33.46C96.4537 33.901 96.9757 34.126 97.6327 34.126C98.2267 34.126 98.7037 33.955 99.0817 33.613C99.3877 33.325 99.5947 32.956 99.7027 32.506H99.1537C99.0367 32.866 98.8747 33.136 98.6587 33.325C98.3977 33.541 98.0557 33.658 97.6327 33.658C97.1467 33.658 96.7687 33.496 96.4807 33.172C96.2017 32.848 96.0487 32.398 96.0217 31.831H99.8017C99.7747 31.03 99.5947 30.409 99.2707 29.968C98.9017 29.464 98.3527 29.221 97.6147 29.221ZM97.6237 29.689C98.6047 29.689 99.1447 30.256 99.2347 31.39H96.0307C96.0757 30.886 96.2377 30.481 96.5167 30.166C96.7957 29.842 97.1647 29.689 97.6237 29.689ZM103.154 29.221C102.83 29.221 102.533 29.293 102.272 29.455C102.011 29.617 101.804 29.833 101.642 30.112V29.347H101.102V34H101.642V31.192C101.669 30.733 101.813 30.364 102.083 30.094C102.335 29.824 102.641 29.689 103.019 29.689C103.901 29.689 104.342 30.184 104.342 31.174V34H104.882V31.138C104.882 29.86 104.306 29.221 103.154 29.221ZM109.978 27.574V34H110.527V31.147H112.651C113.065 31.147 113.398 31.228 113.632 31.39C113.884 31.561 114.037 31.849 114.073 32.245L114.154 33.127C114.19 33.487 114.271 33.784 114.406 34H115.009C114.829 33.766 114.73 33.451 114.694 33.055L114.604 32.092C114.532 31.444 114.172 31.048 113.524 30.904V30.886C113.911 30.796 114.217 30.607 114.433 30.319C114.631 30.04 114.739 29.716 114.739 29.338C114.739 28.762 114.55 28.33 114.19 28.024C113.83 27.718 113.326 27.574 112.696 27.574H109.978ZM110.527 28.06H112.633C113.173 28.06 113.569 28.168 113.821 28.393C114.064 28.609 114.19 28.924 114.19 29.356C114.19 29.752 114.064 30.058 113.812 30.292C113.533 30.535 113.146 30.661 112.642 30.661H110.527V28.06ZM116.311 29.347V32.218C116.311 33.487 116.878 34.126 118.012 34.126C118.678 34.126 119.2 33.82 119.56 33.217V34H120.1V29.347H119.56V32.173C119.524 32.614 119.371 32.974 119.101 33.244C118.831 33.514 118.516 33.658 118.156 33.658C117.706 33.658 117.373 33.532 117.157 33.28C116.95 33.037 116.851 32.677 116.851 32.191V29.347H116.311ZM122.211 27.673C122.076 27.673 121.968 27.718 121.887 27.808C121.797 27.88 121.752 27.988 121.752 28.123C121.752 28.249 121.797 28.357 121.887 28.447C121.968 28.528 122.076 28.573 122.211 28.573C122.337 28.573 122.436 28.528 122.526 28.447C122.616 28.357 122.67 28.249 122.67 28.123C122.67 27.988 122.625 27.88 122.535 27.808C122.445 27.718 122.337 27.673 122.211 27.673ZM121.941 29.347V34H122.481V29.347H121.941ZM130.53 27.574V31.948C130.53 32.515 130.422 32.929 130.224 33.199C130.008 33.478 129.657 33.622 129.171 33.622C128.307 33.622 127.875 33.145 127.875 32.209V31.975H127.326V32.218C127.326 32.839 127.488 33.316 127.83 33.649C128.136 33.964 128.586 34.126 129.162 34.126C129.855 34.126 130.359 33.919 130.674 33.523C130.944 33.163 131.088 32.641 131.088 31.957V27.574H130.53ZM133.289 27.673C133.154 27.673 133.046 27.718 132.965 27.808C132.875 27.88 132.83 27.988 132.83 28.123C132.83 28.249 132.875 28.357 132.965 28.447C133.046 28.528 133.154 28.573 133.289 28.573C133.415 28.573 133.514 28.528 133.604 28.447C133.694 28.357 133.748 28.249 133.748 28.123C133.748 27.988 133.703 27.88 133.613 27.808C133.523 27.718 133.415 27.673 133.289 27.673ZM133.019 29.347V34H133.559V29.347H133.019ZM137.372 29.221C136.814 29.221 136.364 29.338 136.022 29.581C135.653 29.842 135.437 30.229 135.365 30.751H135.896C135.95 30.391 136.103 30.121 136.373 29.941C136.616 29.761 136.94 29.68 137.345 29.68C138.245 29.68 138.695 30.121 138.695 31.003V31.174L137.507 31.183C136.85 31.183 136.328 31.3 135.95 31.516C135.464 31.786 135.221 32.218 135.221 32.812C135.221 33.208 135.356 33.532 135.644 33.775C135.923 34.009 136.292 34.126 136.751 34.126C137.192 34.126 137.597 34.018 137.966 33.802C138.281 33.613 138.533 33.379 138.722 33.109V34H139.235V31.003C139.235 30.463 139.091 30.049 138.821 29.752C138.506 29.392 138.02 29.221 137.372 29.221ZM138.695 31.615V32.155C138.695 32.533 138.515 32.875 138.155 33.19C137.777 33.514 137.345 33.676 136.859 33.676C136.517 33.676 136.256 33.595 136.067 33.433C135.869 33.271 135.77 33.064 135.77 32.803C135.77 32.029 136.355 31.633 137.534 31.624L138.695 31.615ZM142.857 29.221C142.533 29.221 142.236 29.293 141.975 29.455C141.714 29.617 141.507 29.833 141.345 30.112V29.347H140.805V34H141.345V31.192C141.372 30.733 141.516 30.364 141.786 30.094C142.038 29.824 142.344 29.689 142.722 29.689C143.604 29.689 144.045 30.184 144.045 31.174V34H144.585V31.138C144.585 29.86 144.009 29.221 142.857 29.221ZM152.452 27.448C151.48 27.448 150.715 27.781 150.166 28.465C149.662 29.086 149.41 29.869 149.41 30.814C149.41 31.759 149.653 32.533 150.148 33.136C150.688 33.793 151.435 34.126 152.398 34.126C153.073 34.126 153.658 33.928 154.153 33.55C154.693 33.127 155.026 32.542 155.161 31.804H154.63C154.504 32.398 154.225 32.857 153.802 33.181C153.406 33.469 152.938 33.622 152.389 33.622C151.615 33.622 151.012 33.352 150.58 32.821C150.166 32.317 149.959 31.642 149.959 30.814C149.959 29.986 150.166 29.311 150.589 28.789C151.039 28.231 151.651 27.952 152.443 27.952C152.965 27.952 153.424 28.087 153.811 28.357C154.216 28.636 154.459 29.023 154.54 29.518H155.071C154.99 28.888 154.702 28.384 154.198 28.006C153.712 27.628 153.127 27.448 152.452 27.448ZM158.584 29.221C157.9 29.221 157.351 29.464 156.946 29.959C156.559 30.418 156.37 30.994 156.37 31.678C156.37 32.362 156.559 32.929 156.937 33.388C157.351 33.874 157.9 34.126 158.584 34.126C159.268 34.126 159.817 33.874 160.231 33.388C160.609 32.929 160.798 32.362 160.798 31.678C160.798 30.994 160.609 30.418 160.231 29.959C159.817 29.464 159.268 29.221 158.584 29.221ZM158.584 29.689C159.115 29.689 159.538 29.887 159.844 30.301C160.114 30.661 160.258 31.12 160.258 31.678C160.258 32.218 160.114 32.677 159.844 33.046C159.538 33.451 159.115 33.658 158.584 33.658C158.053 33.658 157.639 33.451 157.333 33.046C157.054 32.686 156.919 32.227 156.919 31.678C156.919 31.12 157.054 30.661 157.333 30.301C157.639 29.887 158.053 29.689 158.584 29.689ZM164.243 29.221C163.919 29.221 163.622 29.293 163.361 29.455C163.1 29.617 162.893 29.833 162.731 30.112V29.347H162.191V34H162.731V31.192C162.758 30.733 162.902 30.364 163.172 30.094C163.424 29.824 163.73 29.689 164.108 29.689C164.99 29.689 165.431 30.184 165.431 31.174V34H165.971V31.138C165.971 29.86 165.395 29.221 164.243 29.221ZM169.125 29.221C168.639 29.221 168.225 29.329 167.901 29.554C167.559 29.788 167.397 30.085 167.397 30.463C167.397 30.841 167.568 31.138 167.928 31.354C168.144 31.489 168.522 31.624 169.062 31.768C169.593 31.903 169.935 32.011 170.097 32.092C170.403 32.245 170.556 32.461 170.556 32.74C170.556 33.352 170.106 33.658 169.206 33.658C168.774 33.658 168.45 33.577 168.234 33.415C168 33.235 167.856 32.938 167.802 32.533H167.271C167.379 33.595 168.027 34.126 169.224 34.126C170.484 34.126 171.114 33.649 171.114 32.713C171.114 32.317 170.925 32.002 170.556 31.777C170.322 31.633 169.917 31.489 169.35 31.345C168.873 31.219 168.549 31.111 168.369 31.021C168.09 30.877 167.955 30.688 167.955 30.454C167.955 30.22 168.063 30.04 168.279 29.896C168.495 29.752 168.774 29.689 169.116 29.689C169.53 29.689 169.845 29.77 170.061 29.941C170.259 30.094 170.385 30.328 170.448 30.652H170.979C170.844 29.698 170.223 29.221 169.125 29.221ZM173.543 27.844L173.003 28.069V29.347H172.013V29.815H173.003V32.965C173.003 33.307 173.066 33.559 173.21 33.721C173.363 33.901 173.624 34 173.984 34H174.641V33.532H174.056C173.858 33.532 173.723 33.487 173.651 33.406C173.579 33.316 173.543 33.163 173.543 32.965V29.815H174.758V29.347H173.543V27.844ZM177.964 29.221C177.622 29.221 177.316 29.329 177.064 29.545C176.848 29.716 176.677 29.95 176.551 30.238V29.347H176.011V34H176.551V31.543C176.551 31.075 176.668 30.67 176.92 30.328C177.172 29.95 177.514 29.77 177.928 29.77C178.162 29.77 178.396 29.797 178.639 29.869V29.32C178.459 29.248 178.234 29.221 177.964 29.221ZM179.692 29.347V32.218C179.692 33.487 180.259 34.126 181.393 34.126C182.059 34.126 182.581 33.82 182.941 33.217V34H183.481V29.347H182.941V32.173C182.905 32.614 182.752 32.974 182.482 33.244C182.212 33.514 181.897 33.658 181.537 33.658C181.087 33.658 180.754 33.532 180.538 33.28C180.331 33.037 180.232 32.677 180.232 32.191V29.347H179.692ZM187.013 29.221C186.338 29.221 185.807 29.464 185.42 29.959C185.051 30.418 184.871 31.003 184.871 31.705C184.871 32.416 185.042 32.992 185.402 33.424C185.78 33.892 186.32 34.126 187.004 34.126C187.562 34.126 188.021 33.973 188.363 33.676C188.714 33.37 188.939 32.92 189.029 32.335H188.498C188.363 33.217 187.868 33.658 187.004 33.658C186.491 33.658 186.095 33.478 185.825 33.127C185.555 32.776 185.42 32.299 185.42 31.705C185.42 31.102 185.555 30.616 185.843 30.256C186.131 29.878 186.527 29.689 187.013 29.689C187.418 29.689 187.751 29.788 188.003 29.986C188.255 30.184 188.408 30.472 188.471 30.868H189.011C188.939 30.31 188.723 29.896 188.372 29.626C188.021 29.356 187.571 29.221 187.013 29.221ZM191.457 27.844L190.917 28.069V29.347H189.927V29.815H190.917V32.965C190.917 33.307 190.98 33.559 191.124 33.721C191.277 33.901 191.538 34 191.898 34H192.555V33.532H191.97C191.772 33.532 191.637 33.487 191.565 33.406C191.493 33.316 191.457 33.163 191.457 32.965V29.815H192.672V29.347H191.457V27.844ZM194.465 27.673C194.33 27.673 194.222 27.718 194.141 27.808C194.051 27.88 194.006 27.988 194.006 28.123C194.006 28.249 194.051 28.357 194.141 28.447C194.222 28.528 194.33 28.573 194.465 28.573C194.591 28.573 194.69 28.528 194.78 28.447C194.87 28.357 194.924 28.249 194.924 28.123C194.924 27.988 194.879 27.88 194.789 27.808C194.699 27.718 194.591 27.673 194.465 27.673ZM194.195 29.347V34H194.735V29.347H194.195ZM198.611 29.221C197.927 29.221 197.378 29.464 196.973 29.959C196.586 30.418 196.397 30.994 196.397 31.678C196.397 32.362 196.586 32.929 196.964 33.388C197.378 33.874 197.927 34.126 198.611 34.126C199.295 34.126 199.844 33.874 200.258 33.388C200.636 32.929 200.825 32.362 200.825 31.678C200.825 30.994 200.636 30.418 200.258 29.959C199.844 29.464 199.295 29.221 198.611 29.221ZM198.611 29.689C199.142 29.689 199.565 29.887 199.871 30.301C200.141 30.661 200.285 31.12 200.285 31.678C200.285 32.218 200.141 32.677 199.871 33.046C199.565 33.451 199.142 33.658 198.611 33.658C198.08 33.658 197.666 33.451 197.36 33.046C197.081 32.686 196.946 32.227 196.946 31.678C196.946 31.12 197.081 30.661 197.36 30.301C197.666 29.887 198.08 29.689 198.611 29.689ZM204.27 29.221C203.946 29.221 203.649 29.293 203.388 29.455C203.127 29.617 202.92 29.833 202.758 30.112V29.347H202.218V34H202.758V31.192C202.785 30.733 202.929 30.364 203.199 30.094C203.451 29.824 203.757 29.689 204.135 29.689C205.017 29.689 205.458 30.184 205.458 31.174V34H205.998V31.138C205.998 29.86 205.422 29.221 204.27 29.221ZM213.812 27.448C212.876 27.448 212.138 27.781 211.589 28.465C211.076 29.086 210.824 29.869 210.824 30.823C210.824 31.768 211.076 32.542 211.598 33.145C212.156 33.793 212.948 34.126 213.956 34.126C214.46 34.126 214.946 34.054 215.414 33.91C215.855 33.766 216.224 33.568 216.521 33.334V30.76H213.776V31.246H215.972V33.073C215.738 33.235 215.441 33.361 215.099 33.469C214.739 33.577 214.379 33.631 214.001 33.631C213.137 33.631 212.48 33.361 212.021 32.821C211.589 32.326 211.373 31.66 211.373 30.823C211.373 29.968 211.589 29.284 212.021 28.762C212.462 28.222 213.056 27.952 213.812 27.952C214.424 27.952 214.928 28.105 215.306 28.42C215.666 28.717 215.891 29.131 215.99 29.653H216.548C216.431 28.969 216.152 28.429 215.711 28.051C215.234 27.646 214.604 27.448 213.812 27.448ZM220.083 29.221C219.741 29.221 219.435 29.329 219.183 29.545C218.967 29.716 218.796 29.95 218.67 30.238V29.347H218.13V34H218.67V31.543C218.67 31.075 218.787 30.67 219.039 30.328C219.291 29.95 219.633 29.77 220.047 29.77C220.281 29.77 220.515 29.797 220.758 29.869V29.32C220.578 29.248 220.353 29.221 220.083 29.221ZM223.845 29.221C223.161 29.221 222.612 29.464 222.207 29.959C221.82 30.418 221.631 30.994 221.631 31.678C221.631 32.362 221.82 32.929 222.198 33.388C222.612 33.874 223.161 34.126 223.845 34.126C224.529 34.126 225.078 33.874 225.492 33.388C225.87 32.929 226.059 32.362 226.059 31.678C226.059 30.994 225.87 30.418 225.492 29.959C225.078 29.464 224.529 29.221 223.845 29.221ZM223.845 29.689C224.376 29.689 224.799 29.887 225.105 30.301C225.375 30.661 225.519 31.12 225.519 31.678C225.519 32.218 225.375 32.677 225.105 33.046C224.799 33.451 224.376 33.658 223.845 33.658C223.314 33.658 222.9 33.451 222.594 33.046C222.315 32.686 222.18 32.227 222.18 31.678C222.18 31.12 222.315 30.661 222.594 30.301C222.9 29.887 223.314 29.689 223.845 29.689ZM227.452 29.347V32.218C227.452 33.487 228.019 34.126 229.153 34.126C229.819 34.126 230.341 33.82 230.701 33.217V34H231.241V29.347H230.701V32.173C230.665 32.614 230.512 32.974 230.242 33.244C229.972 33.514 229.657 33.658 229.297 33.658C228.847 33.658 228.514 33.532 228.298 33.28C228.091 33.037 227.992 32.677 227.992 32.191V29.347H227.452ZM234.963 29.221C234.207 29.221 233.667 29.563 233.325 30.265V29.347H232.812V35.782H233.352V33.028C233.694 33.757 234.234 34.126 234.981 34.126C235.647 34.126 236.16 33.874 236.538 33.388C236.871 32.938 237.042 32.371 237.042 31.687C237.042 30.985 236.871 30.418 236.529 29.968C236.142 29.464 235.62 29.221 234.963 29.221ZM234.9 29.68C235.422 29.68 235.827 29.878 236.115 30.283C236.358 30.634 236.484 31.102 236.484 31.687C236.484 32.272 236.358 32.74 236.106 33.091C235.818 33.469 235.413 33.667 234.882 33.667C234.405 33.667 234.027 33.487 233.748 33.127C233.469 32.767 233.334 32.308 233.334 31.75V31.651C233.334 31.084 233.46 30.625 233.721 30.274C234 29.878 234.396 29.68 234.9 29.68ZM243.832 29.221C243.157 29.221 242.626 29.464 242.239 29.959C241.87 30.418 241.69 31.003 241.69 31.705C241.69 32.416 241.861 32.992 242.221 33.424C242.599 33.892 243.139 34.126 243.823 34.126C244.381 34.126 244.84 33.973 245.182 33.676C245.533 33.37 245.758 32.92 245.848 32.335H245.317C245.182 33.217 244.687 33.658 243.823 33.658C243.31 33.658 242.914 33.478 242.644 33.127C242.374 32.776 242.239 32.299 242.239 31.705C242.239 31.102 242.374 30.616 242.662 30.256C242.95 29.878 243.346 29.689 243.832 29.689C244.237 29.689 244.57 29.788 244.822 29.986C245.074 30.184 245.227 30.472 245.29 30.868H245.83C245.758 30.31 245.542 29.896 245.191 29.626C244.84 29.356 244.39 29.221 243.832 29.221ZM249.184 29.221C248.5 29.221 247.951 29.464 247.546 29.959C247.159 30.418 246.97 30.994 246.97 31.678C246.97 32.362 247.159 32.929 247.537 33.388C247.951 33.874 248.5 34.126 249.184 34.126C249.868 34.126 250.417 33.874 250.831 33.388C251.209 32.929 251.398 32.362 251.398 31.678C251.398 30.994 251.209 30.418 250.831 29.959C250.417 29.464 249.868 29.221 249.184 29.221ZM249.184 29.689C249.715 29.689 250.138 29.887 250.444 30.301C250.714 30.661 250.858 31.12 250.858 31.678C250.858 32.218 250.714 32.677 250.444 33.046C250.138 33.451 249.715 33.658 249.184 33.658C248.653 33.658 248.239 33.451 247.933 33.046C247.654 32.686 247.519 32.227 247.519 31.678C247.519 31.12 247.654 30.661 247.933 30.301C248.239 29.887 248.653 29.689 249.184 29.689ZM253.385 33.1C253.25 33.1 253.142 33.136 253.061 33.226C252.971 33.307 252.926 33.415 252.926 33.55C252.926 33.676 252.971 33.775 253.061 33.865C253.142 33.955 253.25 34 253.385 34C253.511 34 253.61 33.955 253.7 33.874C253.79 33.784 253.844 33.676 253.844 33.55C253.844 33.415 253.799 33.307 253.709 33.226C253.619 33.136 253.511 33.1 253.385 33.1ZM256.116 33.1C255.981 33.1 255.873 33.136 255.783 33.226C255.702 33.298 255.666 33.415 255.666 33.559C255.666 33.694 255.702 33.802 255.792 33.883C255.873 33.955 255.981 34 256.125 34C256.179 34 256.224 33.991 256.26 33.991C256.224 34.441 255.999 34.801 255.567 35.089L255.765 35.404C256.359 35.08 256.665 34.558 256.665 33.847C256.665 33.343 256.476 33.1 256.116 33.1ZM261.913 27.448V34H262.453V27.448H261.913ZM265.318 27.844L264.778 28.069V29.347H263.788V29.815H264.778V32.965C264.778 33.307 264.841 33.559 264.985 33.721C265.138 33.901 265.399 34 265.759 34H266.416V33.532H265.831C265.633 33.532 265.498 33.487 265.426 33.406C265.354 33.316 265.318 33.163 265.318 32.965V29.815H266.533V29.347H265.318V27.844ZM271.296 27.448V30.328C270.954 29.59 270.405 29.221 269.667 29.221C269.01 29.221 268.497 29.464 268.119 29.968C267.777 30.418 267.606 30.985 267.606 31.669C267.606 32.362 267.777 32.938 268.119 33.388C268.497 33.874 269.019 34.126 269.694 34.126C270.459 34.126 270.999 33.775 271.323 33.082V34H271.836V27.448H271.296ZM269.766 29.68C270.234 29.68 270.612 29.86 270.9 30.238C271.17 30.598 271.314 31.057 271.314 31.633V31.741C271.314 32.29 271.179 32.74 270.927 33.091C270.648 33.469 270.252 33.667 269.748 33.667C269.217 33.667 268.812 33.469 268.533 33.073C268.281 32.722 268.155 32.254 268.155 31.669C268.155 31.084 268.281 30.616 268.542 30.274C268.83 29.878 269.235 29.68 269.766 29.68Z" fill="#7B7B7B"/>
<path fill-rule="evenodd" clip-rule="evenodd" d="M0 3H10H25.8333V6.33321H30V17.1665H25L25 17.9999L25 20.4998L25 20.4999L25 24.6665V24.6666H20.8333V24.6665H15.8333V20.4999H10L10 35.5H0V6.33333V3ZM20.8333 6.33333V16.3333V17.1665V17.9999H10L10 6.33333H20.8333ZM34.1667 24.6668H20.8333V35.5001H34.1667V35.4998H45V32.1667H50V3H40V32.1665H34.1667V24.6668Z" fill="white"/>
</svg>
