<svg width="117" height="28" viewBox="0 0 117 28" fill="none" xmlns="http://www.w3.org/2000/svg">
<g clip-path="url(#clip0)">
<path d="M55.7582 8.27273L56.0283 7.0677H53.543V5.37524H64.3488V7.0677H59.7293L59.4727 8.27273H64.1057V16.6267H61.5393V9.96518H60.9855V16.6267H59.108V9.96518H58.6217V16.6267H56.7442V9.96518H56.2039V16.6267H47.6133V14.7988H48.937V8.27273H47.7619V6.44487H48.937V2.27466H47.6133V0.446809H53.3269V2.26112H52.0977V6.43133H53.2458V8.25919H52.0977V14.7853H53.624V8.27273H55.7582ZM57.3655 2.99226V0H60.4182V2.99226H61.1206V0.39265H64.0516V4.69826H53.6916V0.39265H56.6226V2.99226H57.3655Z" fill="#0068B7"/>
<path d="M81.2464 3.26283H81.8947V4.95529H81.2464V7.73092H76.6674V8.67869H81.3949V10.2358H76.6674V11.4814H81.5435V13.1739H76.6674V14.8122H81.8812V16.64H66.9692V16.6265H65.2943L66.8206 7.8257H65.4834V6.34987L66.8206 2.20674H65.2808V0.392426H70.0218V1.89533L68.6711 5.9843H70.1839L69.7787 8.67869H73.0609V7.73092H70.373V6.16032H73.0339V4.94175H70.2514V3.26283H73.0339V2.28798H70.5081V0.730917H73.0339V0.0268555H76.6674V0.730917H81.2464V3.26283ZM73.0339 14.8122V13.1739H69.0628L68.8197 14.8122H73.0339ZM73.0339 11.4814V10.2493H69.522L69.3329 11.4949H73.0339V11.4814ZM78.2072 3.26283V2.28798H76.6809V3.26283H78.2072ZM78.2072 4.95529H76.6809V6.17386H78.2072V4.95529Z" fill="#0068B7"/>
<path d="M89.5532 9.2882H84.0827V3.76402L83.4614 4.17021V1.38104L85.6361 0H87.8242V0.731141H90.5797L90.4446 0H94.3888L94.6049 0.731141H99.5621V2.30174H94.6049V3.0058H99.3324V4.44101H94.6049V5.33462H99.3324V6.76983H94.6049V7.7176H99.481V9.27466H93.5243V10.1683H99.6566V11.8607H97.3334L99.8592 16.6267H95.8476L93.6054 11.8607H93.5108V16.6944H89.5532V11.8607H89.4181L87.2569 16.6267H83.1777L85.7171 11.8607H83.2993V10.1683H89.5397V9.2882H89.5532ZM90.8499 2.99226V2.2882H87.8242V2.99226H90.8499ZM90.8499 5.32108V4.41393H87.8242V5.30754H90.8499V5.32108ZM90.8499 7.7176V6.74275H87.8242V7.7176H90.8499Z" fill="#0068B7"/>
<path d="M117 0.43335V16.6809H102.317V0.43335H117ZM113.718 2.24766H105.613V14.8531H113.718V2.24766ZM109.625 5.41594L108.558 14.1084H105.897L107.072 5.41594H105.789V3.73702H109.949V2.62677H113.015V3.73702H113.569V5.41594H113.015V14.298H109.949V5.41594H109.625Z" fill="#0068B7"/>
<path d="M48.2886 19.9167H54.4479V23.8297H53.3133L54.4884 27.35H52.5974L51.4898 23.8297H50.3147V27.35H48.2886V19.9167ZM50.3282 20.8104V22.9361H52.4893V20.8104H50.3282Z" fill="#0068B7"/>
<path d="M57.5004 26.4565H58.8241V21.501H60.7962V27.3501H55.5283V21.501H57.5004V26.4565Z" fill="#0068B7"/>
<path d="M61.7959 19.8899H63.8355V21.1491H61.7959V19.8899ZM61.7959 21.4876H63.8355V27.3367H61.7959V21.4876Z" fill="#0068B7"/>
<path d="M65.4157 21.4875H67.4553V27.973H64.5918V27.0793H65.4157V21.4875ZM65.4157 19.9033H67.4553V21.176H65.4157V19.9033Z" fill="#0068B7"/>
<path d="M68.3872 19.8899H70.4268V21.1491H68.3872V19.8899ZM68.3872 21.4876H70.4268V27.3367H68.3872V21.4876Z" fill="#0068B7"/>
<path d="M76.7481 27.3366H71.4668V23.4642H74.7761V22.3946H71.4668V21.501H76.7481V27.3366ZM74.7896 24.2901H73.3848V26.5107H74.7896V24.2901Z" fill="#0068B7"/>
<path d="M79.8143 22.3812V27.3367H77.8423V21.4875H79.8143V22.0021L80.1115 21.4875H83.1236V27.3367H81.1516V22.3812H79.8143Z" fill="#0068B7"/>
<path d="M93.0381 27.3367H86.8652V19.8899H93.0381V20.7835H88.8913V26.4431H90.9985V23.4779H89.283V22.5843H93.0246V27.3367H93.0381Z" fill="#0068B7"/>
<path d="M96.0363 21.9072L96.32 21.501H97.9949V22.3946H96.0363V27.3366H94.0103V21.501H96.0363V21.9072Z" fill="#0068B7"/>
<path d="M98.9409 27.3367V21.4875H104.222V27.3367H98.9409ZM100.926 26.4566H102.264V22.3812H100.926V26.4566Z" fill="#0068B7"/>
<path d="M107.315 26.4565H108.639V21.501H110.611V27.3501H105.343V21.501H107.315V26.4565Z" fill="#0068B7"/>
<path d="M113.704 24.9942V28.0136H111.732V21.501H117V24.9942H113.704ZM113.704 22.3269V24.1683H115.095V22.3269H113.704Z" fill="#0068B7"/>
<path fill-rule="evenodd" clip-rule="evenodd" d="M0 0.0407715H8.23944H17.1812H21.355V3.41214H25.1911V12.6191H21.355V15.5978V18.4005V18.4547H28.6219V24.6423H33.3495V0.0407715H41.5889V24.6559H37.2801V27.5127H28.6219H21.355H18.0052H17.1812V18.4547V18.4005H12.994V15.5978H8.23944V27.5127H0V15.5978V12.6191V3.42568V0.0407715ZM17.1812 3.42568H8.23944V12.6191H12.994H17.1812V3.42568Z" fill="#0068B7"/>
</g>
<defs>
<clipPath id="clip0">
<rect width="117" height="28" fill="white"/>
</clipPath>
</defs>
</svg>
