<svg width="118" height="42" viewBox="0 0 118 42" fill="none" xmlns="http://www.w3.org/2000/svg">
<path d="M16.1071 13.6254C12.8885 17.496 9.34932 21.0676 6.45542 25.2074C5.61864 26.4045 4.85637 27.6487 4.10545 28.9003C3.84815 29.3291 4.8142 28.1889 5.21749 27.8931C9.94489 24.4264 15.5291 22.0225 20.6602 19.2276C22.1296 18.4272 23.5908 17.525 25.1083 16.8147C25.6381 16.5667 24.3466 17.7026 23.9543 18.1365C22.7624 19.4552 21.5675 20.7783 20.4294 22.1441C19.5595 23.1879 20.5075 22.2623 20.849 21.9552C23.3227 19.7308 26.1869 17.9588 29.1159 16.395C29.531 16.1734 30.006 15.7876 29.8922 16.479C29.743 17.3858 29.6168 18.2883 29.5565 19.2066C29.5555 19.2221 29.4507 20.8299 29.6404 20.7383C30.1417 20.4963 30.637 19.6788 31.0252 19.2905C33.2612 17.0545 35.7815 15.3304 38.5997 13.8982C39.8271 13.2745 41.0919 12.7453 42.3345 12.1567C43.208 11.7429 42.4248 11.9216 42.0407 12.1357C40.743 12.8592 39.5431 13.8672 38.4318 14.8424C37.5445 15.6211 36.2039 16.6639 35.7252 17.8008C35.3504 18.6909 37.5931 18.4556 38.5577 18.4093C46.0877 18.0476 53.6499 16.7077 61.0713 15.4718C63.6781 15.0377 67.4853 14.3729 70.1985 13.6674C70.4098 13.6124 72.5271 12.9925 73.01 12.5973C73.2517 12.3996 72.42 12.3425 72.1078 12.3455C71.8552 12.348 69.2434 12.486 69.1284 12.4924C64.432 12.7541 59.7542 13.096 55.0495 13.2058C52.9955 13.2537 50.952 13.1791 48.9018 13.0589C47.5253 12.9782 45.9213 12.6752 44.5586 13.0379C43.3907 13.3488 40.9491 15.7842 42.0827 17.1294C43.2541 18.5195 46.7917 18.1652 48.2304 18.1365C54.2323 18.0171 60.2199 17.158 66.1699 16.437C69.9185 15.9828 73.6699 15.5472 77.3952 14.9263C78.6788 14.7124 78.0246 14.8518 77.3743 15.241C73.0988 17.8 68.5913 20.1102 64.4914 22.9414C63.6653 23.5119 61.3748 24.8271 62.3512 25.0606C62.7474 25.1553 64.5934 25.0254 64.6802 25.0186C66.2591 24.8949 68.639 24.6176 70.1355 24.4101C75.0862 23.7238 80.0001 22.7919 84.8438 21.5566C86.0056 21.2603 88.3622 20.6055 89.6277 20.1928C90.0652 20.0501 90.6105 19.9944 90.8866 19.6263C91.4929 18.8179 86.1885 17.1744 86.0608 17.1294C81.5827 15.5532 77.6995 13.9931 74.9194 9.97458C73.4428 7.84029 72.058 5.59793 70.8069 3.32331C70.4149 2.61062 69.4313 0.385823 69.6739 1.16218C70.2492 3.00303 71.6433 4.76547 72.6953 6.32372C75.8921 11.059 79.2449 15.6885 82.4729 20.4026C85.9074 25.4184 89.1467 30.5428 92.3973 35.6774C93.5363 37.4766 94.687 39.7236 96.195 41.2796C96.65 41.749 96.7132 40.0382 96.7406 39.8738C96.9612 38.5502 97.2961 37.2396 97.5798 35.9292C98.6764 30.8659 99.8244 25.3018 98.608 20.1508C97.5387 15.623 94.6377 11.7848 92.9428 7.49871C92.431 6.20432 92.0196 4.79202 91.8308 3.40724C91.7277 2.65135 93.1849 4.12847 93.7821 4.60321C99.943 9.50092 107.417 12.4603 115.016 14.3178C115.197 14.3621 118.026 15.0457 116.065 14.3598C114.545 13.8284 113.021 13.4671 111.47 13.0589" stroke="black" stroke-linecap="round" stroke-linejoin="round"/>
<path d="M1 14.5697C15.2052 14.5697 29.4837 14.1239 43.6772 14.769C44.4122 14.8024 45.1469 14.8461 45.8803 14.9054C46.3467 14.9431 47.0008 14.75 47.2651 15.1362C47.2794 15.1571 45.4786 15.4978 45.3767 15.5139" stroke="black" stroke-linecap="round" stroke-linejoin="round"/>
<path d="M16.4849 7.39392C18.898 14.1737 21.3755 20.928 23.6817 27.7464C23.8257 28.1724 25.0313 32.5093 25.3602 32.5093" stroke="black" stroke-linecap="round" stroke-linejoin="round"/>
</svg>
