<svg width="1436" height="149" viewBox="0 0 1436 149" fill="none" xmlns="http://www.w3.org/2000/svg">
<g opacity="0.04">
<path d="M0.769531 2.72459H56.4939C72.2994 2.72459 85.8758 5.56146 97.2233 11.2352C108.571 16.909 117.217 25.1494 123.16 35.9566C129.24 46.7637 132.279 59.6648 132.279 74.6597C132.279 89.7897 129.307 102.758 123.363 113.565C117.419 124.373 108.773 132.681 97.426 138.489C86.0785 144.163 72.4344 147 56.4939 147H0.769531V2.72459ZM54.4676 121.468C85.2679 121.468 100.668 105.865 100.668 74.6597C100.668 43.7242 85.2679 28.2565 54.4676 28.2565H32.3804V121.468H54.4676Z" fill="black"/>
<path d="M157.394 2.72459H256.888V27.2433H188.195V61.2858H252.632V86.0072H188.195V122.481H256.888V147H157.394V2.72459Z" fill="black"/>
<path d="M327.47 148.824C316.528 148.824 305.991 147.405 295.859 144.568C285.863 141.596 277.555 137.476 270.935 132.208L281.067 109.513C294.981 119.239 310.517 124.102 327.673 124.102C336.859 124.102 343.884 122.684 348.747 119.847C353.745 116.875 356.244 112.755 356.244 107.486C356.244 102.893 353.948 99.3135 349.355 96.7468C344.897 94.045 336.994 91.4783 325.647 89.0467C312.948 86.48 302.817 83.3729 295.252 79.7255C287.822 75.943 282.35 71.4175 278.838 66.149C275.461 60.7455 273.772 54.0586 273.772 46.0883C273.772 37.4426 276.136 29.6749 280.865 22.7854C285.728 15.8958 292.482 10.5598 301.128 6.77726C309.774 2.85967 319.77 0.900879 331.118 0.900879C341.385 0.900879 351.246 2.38686 360.702 5.35882C370.159 8.33079 377.724 12.3835 383.397 17.5169L373.266 40.2119C360.567 30.4854 346.586 25.6222 331.32 25.6222C323.215 25.6222 316.731 27.2433 311.868 30.4854C307.004 33.7276 304.573 38.118 304.573 43.6567C304.573 46.8988 305.451 49.6006 307.207 51.762C309.098 53.9235 312.205 55.8823 316.528 57.6384C320.851 59.2595 326.998 60.8806 334.968 62.5016C353.475 66.5543 366.781 71.8228 374.887 78.3071C383.127 84.7914 387.247 93.6397 387.247 104.852C387.247 118.361 381.979 129.101 371.442 137.071C360.905 144.906 346.248 148.824 327.47 148.824Z" fill="black"/>
<path d="M410.487 2.72459H442.098V147H410.487V2.72459Z" fill="black"/>
<path d="M595.144 67.3649V138.084C588.12 141.461 579.879 144.096 570.423 145.987C561.102 147.878 551.511 148.824 541.649 148.824C526.384 148.824 513.145 145.852 501.933 139.908C490.72 133.964 482.075 125.453 475.996 114.376C470.052 103.299 467.08 90.0599 467.08 74.6597C467.08 59.6648 470.052 46.6286 475.996 35.5513C482.075 24.474 490.585 15.9633 501.528 10.0194C512.605 3.94039 525.506 0.900879 540.231 0.900879C550.633 0.900879 560.291 2.31932 569.207 5.15619C578.258 7.99307 585.688 11.9782 591.497 17.1116L581.365 39.8066C574.611 34.9434 568.059 31.4311 561.71 29.2696C555.361 27.1082 548.471 26.0275 541.041 26.0275C513.213 26.0275 499.299 42.2382 499.299 74.6597C499.299 107.757 513.821 124.305 542.865 124.305C550.835 124.305 558.805 123.292 566.776 121.266V89.452H538.407V67.3649H595.144Z" fill="black"/>
<path d="M747.642 2.72459V147H724.137L652.202 55.0042V147H622.617V2.72459H645.92L717.855 94.5178V2.72459H747.642Z" fill="black"/>
<path d="M924.672 28.4591H879.485V2.72459H1001.88V28.4591H956.688V147H924.672V28.4591Z" fill="black"/>
<path d="M1018.98 2.72459H1118.47V27.2433H1049.78V61.2858H1114.21V86.0072H1049.78V122.481H1118.47V147H1018.98V2.72459Z" fill="black"/>
<path d="M1235.05 114.984H1167.57L1153.79 147H1121.98L1188.24 2.72459H1213.77L1280.03 147H1248.83L1235.05 114.984ZM1224.72 90.8704L1201.41 36.7671L1178.11 90.8704H1224.72Z" fill="black"/>
<path d="M1435.91 2.72459V147H1407.95V68.1754L1374.71 147H1354.25L1320.81 69.1886V147H1293.05V2.72459H1318.18L1364.79 109.107L1410.99 2.72459H1435.91Z" fill="black"/>
</g>
</svg>
