<svg width="1416" height="185" viewBox="0 0 1416 185" fill="none" xmlns="http://www.w3.org/2000/svg">
<g opacity="0.02">
<path d="M122.604 146H88.944L70.38 97.6519C68.884 93.8439 66.572 91.192 63.444 89.696C60.452 88.2 56.644 87.452 52.02 87.452H31.416V146H0V0.751953H64.668C81.532 0.751953 94.316 4.42395 103.02 11.7679C111.724 19.1119 116.076 29.6519 116.076 43.3879C116.076 53.0439 113.492 61.34 108.324 68.276C103.292 75.212 96.016 80.176 86.496 83.168C95.064 84.936 101.252 90.852 105.06 100.916L122.604 146ZM59.976 63.1759C69.088 63.1759 75.752 61.68 79.968 58.688C84.184 55.56 86.292 50.7319 86.292 44.2039C86.292 37.6759 84.184 32.9159 79.968 29.924C75.752 26.7959 69.088 25.2319 59.976 25.2319H31.008V63.1759H59.976Z" fill="white"/>
<path d="M206.479 147.836C186.079 147.836 170.575 142.6 159.967 132.128C149.359 121.656 144.055 106.288 144.055 86.024V0.751953H175.267V87.452C175.267 99.0119 177.919 107.852 183.223 113.972C188.663 119.956 196.415 122.948 206.479 122.948C216.543 122.948 224.227 119.956 229.531 113.972C234.835 107.852 237.487 99.0119 237.487 87.452V0.751953H268.903V86.024C268.903 106.152 263.531 121.52 252.787 132.128C242.179 142.6 226.743 147.836 206.479 147.836Z" fill="white"/>
<path d="M297.512 0.751953H329.336V146H297.512V0.751953Z" fill="white"/>
<path d="M344.427 156.812C350.139 157.628 354.967 158.036 358.911 158.036C365.439 158.036 369.859 156.54 372.171 153.548C374.483 150.692 375.639 145.456 375.639 137.84V0.751953H407.463V137.432C407.463 153.616 404.267 165.448 397.875 172.928C391.483 180.544 380.603 184.352 365.235 184.352C359.115 184.352 352.179 183.74 344.427 182.516V156.812Z" fill="white"/>
<path d="M437.044 0.751953H468.868V146H437.044V0.751953Z" fill="white"/>
<path d="M595.547 113.768H527.615L513.743 146H481.715L548.423 0.751953H574.127L640.835 146H609.419L595.547 113.768ZM585.143 89.492L561.683 35.0239L538.223 89.492H585.143Z" fill="white"/>
<path d="M779.541 0.751953V146H755.877L683.457 53.3839V146H653.673V0.751953H677.133L749.553 93.164V0.751953H779.541Z" fill="white"/>
<path d="M900.372 26.6599H854.88V0.751953H978.096V26.6599H932.604V146H900.372V26.6599Z" fill="white"/>
<path d="M995.452 0.751953H1095.62V25.436H1026.46V59.708H1091.33V84.5959H1026.46V121.316H1095.62V146H995.452V0.751953Z" fill="white"/>
<path d="M1213.12 113.768H1145.19L1131.32 146H1099.29L1166 0.751953H1191.7L1258.41 146H1226.99L1213.12 113.768ZM1202.72 89.492L1179.26 35.0239L1155.8 89.492H1202.72Z" fill="white"/>
<path d="M1415.48 0.751953V146H1387.33V66.644L1353.87 146H1333.27L1299.6 67.664V146H1271.66V0.751953H1296.95L1343.87 107.852L1390.39 0.751953H1415.48Z" fill="white"/>
</g>
</svg>
